<?xml version="1.0" encoding="UTF-8"?>
<svg id="_0" data-name="0" xmlns="http://www.w3.org/2000/svg" viewBox="0 0 50.75 67.66">
  <defs>
    <style>
      .cls-1 {
        fill: #fff;
      }
    </style>
  </defs>
  <path class="cls-1" d="m25.3,56.17c-5.25,0-9.8-1.97-13.5-5.86-3.97-4.16-6.34-9.66-7.05-16.37-.13-1.42-.19-2.83-.19-4.22,0-6.26,1.4-11.57,4.16-15.77,3.28-5.02,8.19-7.9,14.61-8.55.66-.05,1.25-.07,1.85-.07,5.87,0,10.93,2.57,15.04,7.63,3.88,4.73,5.9,10.36,5.98,16.73.12,7.07-1.57,13.16-5.05,18.09-3.59,5.09-8.38,7.89-14.24,8.32-.55.04-1.08.06-1.61.06Zm-.24-32.75c-.32,0-.66.03-1.03.09-1.84.24-3.87,1.12-3.87,6.04,0,.89.07,1.84.22,2.84.74,5.06,3.04,5.71,4.97,5.71h0c.28,0,.56-.02.86-.05,1.34-.14,2.34-.7,3.15-1.76,1.01-1.25,1.4-2.89,1.25-5.06-.46-6.92-3.21-7.81-5.55-7.81Z"/>
  <path d="m25.18,7.33c5.26,0,9.76,2.3,13.49,6.89,3.61,4.4,5.46,9.56,5.54,15.5.12,6.68-1.44,12.31-4.68,16.91-3.24,4.6-7.49,7.09-12.76,7.48-.49.04-.98.05-1.46.05-4.71,0-8.73-1.75-12.06-5.24-3.67-3.85-5.84-8.92-6.51-15.2-.12-1.33-.18-2.67-.18-4.01,0-5.89,1.28-10.78,3.83-14.67,2.95-4.52,7.33-7.07,13.14-7.66.55-.04,1.1-.06,1.65-.06m.17,32.76c.34,0,.7-.02,1.06-.06,1.89-.2,3.4-1.04,4.54-2.53,1.3-1.61,1.85-3.75,1.65-6.42-.43-6.44-2.95-9.66-7.54-9.66-.43,0-.88.04-1.35.12-3.69.47-5.54,3.14-5.54,8.01,0,.98.08,2.02.24,3.12.72,4.95,3.04,7.42,6.95,7.42m-.17-36.76c-.63,0-1.28.02-1.93.07-.04,0-.08,0-.12.01-7.05.71-12.46,3.89-16.09,9.45-2.97,4.52-4.48,10.2-4.48,16.86,0,1.44.06,2.91.19,4.36,0,.02,0,.05,0,.07.76,7.15,3.31,13.06,7.59,17.54,4.1,4.3,9.13,6.48,14.95,6.48.58,0,1.17-.02,1.76-.07,6.49-.48,11.78-3.57,15.73-9.17,3.73-5.28,5.55-11.77,5.41-19.28-.09-6.82-2.26-12.87-6.45-17.96-4.5-5.54-10.08-8.35-16.58-8.35h0Zm.17,32.76c-1.02,0-2.41,0-2.99-4-.13-.89-.19-1.75-.19-2.55,0-3.78,1.18-3.93,2.04-4.04.05,0,.1-.01.15-.02.26-.04.49-.06.7-.06,1.1,0,3.15,0,3.55,5.93.12,1.66-.13,2.85-.77,3.65-.02.03-.04.05-.06.08-.47.62-.98.9-1.77.98-.23.02-.45.04-.65.04h0Z"/>
</svg>