<?xml version="1.0" encoding="UTF-8"?>
<svg id="_1" data-name="1" xmlns="http://www.w3.org/2000/svg" viewBox="0 0 50.75 67.66">
  <defs>
    <style>
      .cls-1 {
        fill: #fff;
      }
    </style>
  </defs>
  <path class="cls-1" d="m24.12,56.2c-1.84,0-1.95-1.26-2.16-3.78l-2.44-28.7c-.57-.72-2.11-2.64-6.09-7.56-.2-.25-.34-.53-.4-.84-.34-1.58.84-2.11,2.19-2.72l3.19-1.43c2.83-1.27,7.07-3.16,12.73-5.69.26-.12.54-.17.82-.17.35,0,.71.09,1.02.28.56.33.92.91.97,1.56,1.26,15.32,2.53,30.61,3.83,45.89.09,1.1-.72,2.07-1.82,2.16l-11.67,1c-.06,0-.11,0-.17,0Z"/>
  <path d="m31.95,7.3c1.26,15.32,2.53,30.62,3.83,45.9l-11.67,1s0,0,0,0c0,0-.89-10.41-2.65-31.23.04,0-2.12-2.69-6.48-8.07-.04,0,5.62-2.53,16.97-7.6m0-4c-.55,0-1.11.12-1.63.35-5.66,2.53-9.9,4.42-12.73,5.69-1.42.64-2.48,1.11-3.19,1.43l-.81.37c-3.03,1.38-2.62,4.07-2.51,4.6.13.62.41,1.19.8,1.68,3.34,4.12,4.94,6.12,5.7,7.07l1.89,22.24.5,5.86.13,1.47c.34,3.95,3.41,4.15,4.03,4.15.11,0,.23,0,.34-.01l11.67-1c2.2-.19,3.83-2.12,3.64-4.32-1.3-15.31-2.59-30.74-3.83-45.88-.11-1.29-.83-2.45-1.95-3.11-.63-.37-1.33-.56-2.04-.56h0Z"/>
</svg>