<?xml version="1.0" encoding="UTF-8"?>
<svg id="_2" data-name="2" xmlns="http://www.w3.org/2000/svg" viewBox="0 0 50.75 67.66">
  <defs>
    <style>
      .cls-1 {
        fill: #fff;
      }
    </style>
  </defs>
  <path class="cls-1" d="m41.91,56.17c-2.84,0-15.17-.6-36.64-1.78-.85-.05-1.58-.63-1.81-1.45-.23-.82.08-1.7.77-2.19,4.52-3.18,8.96-6.98,13.22-11.31,7.06-7.2,8.68-11.4,8.8-13.67.11-2.04-.23-3.5-1.02-4.33-.7-.73-1.88-1.11-3.52-1.11-2.15,0-5.09.55-8.74,1.63-.19.06-.38.08-.57.08-.71,0-1.39-.38-1.75-1.03l-5.18-9.38c-.28-.51-.33-1.11-.13-1.66s.63-.98,1.17-1.18c6.09-2.3,11.66-3.47,16.56-3.47,7.16,0,12.73,2.37,16.57,7.03,3.08,3.74,4.46,7.85,4.1,12.21-.25,3.14-1.04,6.06-2.32,8.67-.98,1.95-2.39,4.03-4.21,6.18-.51.58-1.02,1.16-1.53,1.73l9.88.45c.61.03,1.18.34,1.54.84s.46,1.14.29,1.73l-3.12,10.55c-.24.82-.98,1.39-1.83,1.43-.12,0-.29,0-.5,0Z"/>
  <path d="m23.05,7.33c6.56,0,11.57,2.1,15.02,6.3,2.75,3.34,3.97,6.93,3.65,10.78-.24,2.91-.94,5.56-2.12,7.95-.9,1.81-2.22,3.73-3.95,5.77-1.41,1.61-2.85,3.22-4.3,4.83l14.08.65-3.12,10.55c-.1,0-.24,0-.41,0-2.79,0-14.97-.59-36.53-1.77,4.63-3.26,9.13-7.11,13.49-11.55,6.05-6.17,9.17-11.15,9.37-14.96.27-5.03-1.91-7.54-6.54-7.54-2.36,0-5.46.57-9.31,1.71l-5.18-9.38c5.89-2.23,11.17-3.34,15.85-3.34m0-4c-5.14,0-10.94,1.21-17.26,3.6-1.09.41-1.94,1.27-2.34,2.36-.4,1.09-.31,2.3.25,3.31l5.18,9.38c.72,1.3,2.07,2.07,3.5,2.07.38,0,.76-.05,1.13-.16,3.46-1.02,6.21-1.54,8.17-1.54,1.01,0,1.78.18,2.07.48.29.31.57,1.21.48,2.84-.08,1.58-1.26,5.27-8.23,12.38-4.17,4.24-8.52,7.97-12.94,11.08-1.39.98-2.01,2.74-1.54,4.37.47,1.64,1.92,2.8,3.63,2.89,21.81,1.2,33.83,1.78,36.75,1.78.25,0,.45,0,.59-.01,1.7-.08,3.17-1.23,3.65-2.86l3.12-10.55c.35-1.18.14-2.45-.58-3.45-.71-1-1.85-1.62-3.08-1.68l-5.8-.27c1.4-1.79,2.53-3.54,3.36-5.2,1.41-2.86,2.25-6.02,2.53-9.42.4-4.9-1.13-9.49-4.55-13.65-4.24-5.15-10.33-7.76-18.11-7.76h0Z"/>
</svg>