<?xml version="1.0" encoding="UTF-8"?>
<svg id="_3" data-name="3" xmlns="http://www.w3.org/2000/svg" viewBox="0 0 50.75 67.66">
  <defs>
    <style>
      .cls-1 {
        fill: #fff;
      }
    </style>
  </defs>
  <path class="cls-1" d="m10.68,56.2c-.53,0-1.03-.21-1.41-.58-.39-.39-.61-.92-.59-1.47l.29-11.31c.01-.53.24-1.04.63-1.41.37-.35.86-.54,1.37-.54.03,0,4.04.16,5.17.21.5.02.98.04,1.41.09.05,0,.09,0,.14,0,4.14,0,6.82-.73,6.84-1.86.01-.53-.04-1.2-.36-1.54-.31-.32-1-.5-1.94-.5-1.01,0-2.39.22-4.11.65-1.3.29-2.56.58-3.84.89-.16.04-.31.06-.47.06-.39,0-.78-.12-1.12-.34-.47-.31-.78-.81-.86-1.36l-1.53-10.16c-.09-.59.09-1.19.49-1.64.38-.42.92-.66,1.48-.66.03,0,.1,0,.1,0,.34,0,1.44-.11,4.95-1.11,3.26-.91,4.05-1.71,4.2-1.9-.14-2.04-.84-2.04-1.35-2.04-.41,0-1.42.12-3.48.89-1.54.65-3.18,1.34-4.83,2.02-.24.1-.5.15-.76.15-.32,0-.64-.08-.92-.23-.52-.27-.9-.76-1.03-1.34l-2.18-9.78c-.19-.87.21-1.76,1-2.19,4.68-2.55,9.74-3.84,15.04-3.84,4.42,0,8.12.96,11,2.86,3.37,2.2,5.19,5.43,5.37,9.59.09,1.74-.14,3.55-.67,5.37-.29,1.05-.67,1.97-1.13,2.76,2.24,1.09,4.37,3.35,5.51,7.78.55,2.12.81,4.66.77,7.54-.28,4.75-2.29,8.31-5.99,10.67-2.8,1.79-6.8,2.95-12.23,3.54-1.99.2-6.86.44-14.87.72-.02,0-.05,0-.07,0Z"/>
  <path d="m23,7.36c4.04,0,7.34.85,9.9,2.53,2.83,1.85,4.32,4.52,4.48,8.01.08,1.53-.12,3.1-.59,4.71-.63,2.28-1.69,3.75-3.18,4.42,3.81.08,6.32,2.47,7.54,7.19.51,1.96.75,4.3.71,7.01-.24,4.01-1.92,7.01-5.07,9.01-2.51,1.61-6.3,2.69-11.37,3.24-1.92.2-6.83.43-14.73.71l.29-11.31c4.95.2,7.19.29,6.72.29,5.85,0,8.8-1.28,8.84-3.83.08-2.71-1.35-4.07-4.3-4.07-1.18,0-2.71.24-4.6.71-1.26.28-2.53.57-3.83.88l-1.53-10.16s.08,0,.12,0c.88,0,2.7-.39,5.48-1.18,3.81-1.06,5.69-2.32,5.66-3.78-.16-2.72-1.28-4.08-3.36-4.08-.98,0-2.38.34-4.18,1.02-1.61.68-3.24,1.36-4.89,2.04l-2.18-9.78c4.4-2.4,9.09-3.59,14.08-3.59m0-4c-5.64,0-11.02,1.37-15.99,4.08-1.57.85-2.38,2.64-1.99,4.38l2.18,9.78c.25,1.11.96,2.07,1.95,2.62-.69.87-.99,1.98-.82,3.08l1.53,10.16c.08.52.26,1.02.52,1.46-.79.12-1.54.48-2.13,1.03-.78.73-1.24,1.75-1.26,2.82l-.29,11.31c-.03,1.1.4,2.17,1.18,2.94.75.74,1.76,1.16,2.82,1.16.05,0,.09,0,.14,0,8.06-.28,12.97-.52,15-.73,5.77-.63,10.05-1.88,13.12-3.85,4.2-2.68,6.59-6.88,6.9-12.15,0-.06,0-.12,0-.18.04-3.06-.24-5.77-.84-8.07-1.05-4.07-2.88-6.55-4.87-8.03.18-.47.34-.96.49-1.47.59-2.02.84-4.05.74-6.01-.21-4.75-2.39-8.61-6.29-11.16-3.19-2.11-7.26-3.18-12.08-3.18h0Zm0,36.01s0,0,0,0h0Z"/>
</svg>