<?xml version="1.0" encoding="UTF-8"?>
<svg id="_4" data-name="4" xmlns="http://www.w3.org/2000/svg" viewBox="0 0 50.75 67.66">
  <defs>
    <style>
      .cls-1 {
        fill: #fff;
      }
    </style>
  </defs>
  <path class="cls-1" d="m37.89,56.19l-12.43-.82c-1.05-.07-1.87-.94-1.87-2,0-.17,0-.54.46-7.69l-20.11-1.39c-.55-.04-1.05-.3-1.4-.72s-.51-.97-.44-1.51l1.3-10.66c.05-.4.21-.77.48-1.07L25.08,5.99c.38-.44.93-.69,1.51-.69.05,0,.1,0,.15,0l14.79,1.12c1.1.08,1.92,1.03,1.84,2.13l-1.45,21.34,4.84.21c.58.02,1.12.3,1.48.75s.51,1.04.4,1.61l-2.3,12.43c-.18.95-1.01,1.64-1.97,1.64-.05,0-.1,0-.15,0l-3.69-.27c-.43,7.53-.52,8.02-.56,8.26-.16.97-1,1.67-1.97,1.67-.04,0-.09,0-.13,0Zm-10.29-26.49v-4.41l-4.62,4.18,4.62.24Z"/>
  <path d="m26.59,7.3l14.79,1.12-1.59,23.38,6.89.29-2.3,12.43-5.71-.41c-.35,6.25-.57,9.6-.65,10.07l-12.43-.82c0-.35.2-3.54.59-9.54l-22.09-1.53,1.3-10.66L26.59,7.3m3,24.51v-11.02l-11.55,10.43,11.55.59m-3.01-28.51c-1.15,0-2.25.5-3.01,1.37L2.36,29.01c-.53.6-.86,1.35-.96,2.15L.11,41.82c-.13,1.09.19,2.18.89,3.03.7.85,1.71,1.37,2.81,1.44l18.12,1.26c-.34,5.3-.34,5.62-.34,5.83,0,2.11,1.63,3.85,3.74,3.99l12.43.82c.09,0,.18,0,.27,0,1.94,0,3.62-1.4,3.94-3.34.05-.31.12-.74.46-6.45l1.67.12c.1,0,.19.01.29.01,1.91,0,3.58-1.37,3.93-3.27l2.3-12.43c.21-1.14-.08-2.31-.8-3.22-.72-.91-1.8-1.45-2.96-1.5l-2.79-.12,1.31-19.29c.15-2.19-1.5-4.09-3.69-4.26l-14.79-1.12c-.1,0-.2-.01-.3-.01h0Z"/>
</svg>