<?xml version="1.0" encoding="UTF-8"?>
<svg id="_5" data-name="5" xmlns="http://www.w3.org/2000/svg" viewBox="0 0 50.75 67.66">
  <defs>
    <style>
      .cls-1 {
        fill: #fff;
      }
    </style>
  </defs>
  <path class="cls-1" d="m18.16,56.17c-3.17,0-6.68-.22-10.43-.66-.61-.07-1.16-.42-1.48-.95-.32-.53-.38-1.18-.15-1.75l4.83-12.55c.3-.78,1.04-1.28,1.87-1.28.04,0,.08,0,.12,0,3.12.19,5.35.29,6.65.29,3.27,0,4.44-.5,4.8-.71.03-.02.07-.04.1-.06.25-.13.92-.49,1.06-2.22.32-3.64-7.65-5.07-12.43-5.61-1.07-.12-1.86-1.07-1.77-2.15l1.71-21.35c.08-1.05.96-1.84,1.99-1.84.05,0,.1,0,.15,0,8.75.65,17.72,1.43,26.68,2.3,1.1.11,1.9,1.08,1.8,2.18l-1,10.66c-.1,1.03-.97,1.81-1.99,1.81-.05,0-.11,0-.16,0l-4.08-.33c1.98,1.09,3.63,2.4,4.93,3.93,2.31,2.62,3.48,5.8,3.48,9.43,0,.73-.07,1.47-.2,2.2-.78,5.81-2.98,10.25-6.53,13.19-4.31,3.62-11.02,5.47-19.95,5.47Z"/>
  <path d="m15.04,7.33c8.76.65,17.64,1.42,26.63,2.3l-1,10.66-12.49-1-.47,1.71c5.54,1.14,9.58,3.2,12.14,6.19,2,2.28,3,4.99,3,8.13,0,.63-.06,1.26-.18,1.89-.71,5.34-2.65,9.33-5.83,11.96-3.97,3.34-10.19,5.01-18.68,5.01-3.1,0-6.5-.22-10.19-.65l4.83-12.55c3.18.2,5.44.29,6.78.29,2.79,0,4.73-.33,5.83-1,1.26-.67,1.96-1.94,2.12-3.82.35-4.08-4.38-6.67-14.2-7.76l1.71-21.35m0-4c-2.07,0-3.82,1.59-3.98,3.68l-1.71,21.35c-.17,2.15,1.4,4.05,3.54,4.29,8.92,1,10.7,3,10.66,3.44-.03.38-.09.6-.13.7-.03.02-.05.03-.08.05-.02,0-.84.42-3.76.42-1.26,0-3.45-.1-6.53-.29-.08,0-.17,0-.25,0-1.65,0-3.13,1.01-3.73,2.56l-4.83,12.55c-.44,1.15-.33,2.45.31,3.51.64,1.06,1.73,1.76,2.96,1.9,3.82.45,7.41.68,10.66.68,9.54,0,16.5-1.95,21.25-5.95,3.92-3.24,6.36-8.09,7.21-14.39.15-.83.23-1.68.23-2.51,0-4.12-1.34-7.74-3.98-10.75-.18-.21-.37-.42-.56-.62,1.27-.57,2.21-1.79,2.35-3.28l1-10.66c.21-2.19-1.4-4.14-3.59-4.35-8.97-.88-17.96-1.65-26.72-2.31-.1,0-.2-.01-.3-.01h0Z"/>
</svg>