<?xml version="1.0" encoding="UTF-8"?>
<svg xmlns="http://www.w3.org/2000/svg" viewBox="0 0 67.29 182.72">
  <defs>
    <style>
      .cls-1 {
        stroke-linejoin: round;
        stroke-width: 6px;
      }

      .cls-1, .cls-2 {
        stroke: #000;
      }

      .cls-2 {
        stroke-miterlimit: 10;
        stroke-width: 3px;
      }

      .cls-3 {
        fill: #2f5bea;
      }
    </style>
  </defs>
  <g id="outline">
    <g>
      <path d="m33.72,49.02c-7.93,0-14.08-2.92-18.27-8.67-3.22-4.5-4.62-9.25-4.16-14.14.55-5.37,3.07-9.95,7.48-13.64,5.55-4.69,13.55-7.07,23.78-7.07,1.73,0,3.52.08,5.34.25,1.19.11,2.2.91,2.58,2.04.4,1.19.64,1.91-3.82,13.35-.45,1.15-1.56,1.91-2.79,1.91h-2c-3.31,0-5.91.6-7.72,1.79-1.77,1.16-1.77,2.13-1.77,2.54,0,.32.07.63.21.94.17.37.76,1.63,4.27,1.63,1.22-.03,2.94-.41,5.03-1.13,1.39-.53,2.87-1.07,4.34-1.58.33-.12.66-.17.99-.17,1.11,0,2.17.62,2.69,1.66l5.77,11.61c.37.74.41,1.6.13,2.38-.29.78-.88,1.4-1.64,1.72-4.56,1.93-9.61,3.35-15.02,4.21-1.87.26-3.68.39-5.42.39Z"/>
      <path d="m42.55,8.49c1.65,0,3.34.08,5.07.24.2.59-1.06,4.36-3.77,11.31h-2c-3.93,0-7.05.76-9.37,2.29-2.08,1.37-3.12,3.05-3.12,5.04,0,.74.16,1.47.47,2.17,1.06,2.27,3.4,3.4,7.01,3.4,1.61-.04,3.61-.47,6.01-1.3,1.45-.55,2.91-1.08,4.36-1.59l5.77,11.61c-4.36,1.85-9.13,3.18-14.32,4.01-1.69.24-3.34.35-4.95.35-6.95,0-12.23-2.48-15.85-7.44-2.79-3.89-3.99-7.93-3.59-12.1.47-4.56,2.61-8.44,6.42-11.62,5.03-4.25,12.31-6.37,21.86-6.37m0-6c-10.96,0-19.61,2.62-25.73,7.79-5.01,4.19-7.88,9.44-8.52,15.59,0,.02,0,.04,0,.05-.53,5.63,1.05,11.07,4.69,16.15,4.75,6.52,11.91,9.94,20.73,9.94,1.88,0,3.82-.14,5.78-.41.04,0,.08-.01.11-.02,5.64-.9,10.93-2.38,15.71-4.41,1.52-.65,2.71-1.89,3.29-3.44.57-1.55.48-3.27-.26-4.75l-5.77-11.61c-.88-1.76-2.52-2.92-4.35-3.24.51-.55.93-1.2,1.21-1.92,4.4-11.3,4.67-13,3.87-15.38-.75-2.26-2.78-3.87-5.15-4.08-1.91-.17-3.79-.26-5.61-.26h0Zm-6.04,24.45c1.04-.47,2.43-.77,4.08-.86-2.09.7-3.28.85-3.84.87-.09,0-.17,0-.25,0h0Z"/>
    </g>
    <g>
      <g>
        <path d="m32.21,94.79c-6.37,0-11.62-1.99-15.6-5.93-3.84-3.84-5.78-8.75-5.78-14.6s2.1-11.37,6.25-15.72c4.52-4.75,10.46-7.16,17.66-7.16,6.34,0,11.54,1.83,15.46,5.43,4.1,3.86,6.16,9.1,6.16,15.62,0,5.3-1.81,10.13-5.37,14.35-4.46,5.31-10.78,8.01-18.78,8.01Zm2.12-25.51c-.83,0-1.55.26-2.27.82-.78.64-1.15,1.47-1.15,2.68,0,.95.32,1.59,1.12,2.19.65.5,1.23.74,1.77.74.79,0,1.51-.24,2.22-.74.5-.38,1.17-1.1,1.2-2.88,0-1.34-.48-1.87-.94-2.21-.57-.4-1.2-.6-1.95-.6Z"/>
        <path d="m34.74,54.38c5.58,0,10.06,1.54,13.43,4.64,3.46,3.26,5.19,7.73,5.19,13.41,0,4.59-1.55,8.73-4.66,12.42-3.88,4.62-9.38,6.94-16.49,6.94-5.58,0-10.08-1.69-13.49-5.06-3.26-3.26-4.89-7.41-4.89-12.47s1.8-9.85,5.42-13.65c3.96-4.16,9.13-6.23,15.49-6.23m-.94,24.33c1.41,0,2.73-.43,3.95-1.29,1.61-1.21,2.43-2.97,2.47-5.28,0-2.07-.73-3.64-2.18-4.69-1.1-.78-2.34-1.17-3.71-1.17-1.49,0-2.87.48-4.12,1.46-1.54,1.25-2.3,2.93-2.3,5.04,0,1.88.76,3.41,2.3,4.58,1.17.9,2.37,1.35,3.59,1.35m.94-30.33c-8.05,0-14.72,2.72-19.84,8.09-4.69,4.93-7.07,10.91-7.07,17.79s2.24,12.3,6.65,16.71c4.59,4.53,10.54,6.82,17.73,6.82,8.93,0,16.02-3.06,21.08-9.08,4.02-4.77,6.07-10.25,6.07-16.28,0-7.37-2.38-13.35-7.08-17.78-.02-.02-.03-.03-.05-.05-4.49-4.13-10.37-6.22-17.49-6.22h0Zm-.78,24.05c.11-.08.19-.12.25-.13-.01.15-.04.26-.05.31-.07.04-.13.06-.17.08-.02-.01-.04-.03-.07-.05,0-.1.02-.16.02-.19,0,0,.01-.01.02-.02h0Z"/>
      </g>
      <g>
        <path d="m33.8,81.71c-1.89,0-3.72-.66-5.42-1.97-2.27-1.72-3.47-4.13-3.47-6.96,0-3.01,1.18-5.56,3.41-7.37,1.82-1.42,3.83-2.13,6.01-2.13,2,0,3.83.58,5.44,1.72,1.58,1.15,3.44,3.3,3.44,7.14-.06,3.28-1.32,5.92-3.67,7.68-1.8,1.27-3.72,1.89-5.75,1.89Z"/>
        <path d="m34.33,66.28c1.37,0,2.61.39,3.71,1.17,1.45,1.05,2.18,2.62,2.18,4.69-.04,2.31-.86,4.07-2.47,5.28-1.22.86-2.54,1.29-3.95,1.29-1.22,0-2.42-.45-3.59-1.35-1.54-1.17-2.3-2.7-2.3-4.58,0-2.11.76-3.79,2.3-5.04,1.25-.98,2.63-1.46,4.12-1.46m0-6c-2.83,0-5.54.95-7.82,2.74-.03.02-.05.04-.08.06-2.96,2.4-4.52,5.75-4.52,9.7s1.66,7.07,4.67,9.36c2.18,1.68,4.68,2.57,7.22,2.57,2.67,0,5.16-.8,7.41-2.39.05-.04.1-.07.15-.11,2.17-1.63,4.77-4.68,4.86-9.97,0-.03,0-.07,0-.1,0-3.98-1.66-7.37-4.66-9.55-.02-.01-.03-.02-.05-.03-2.1-1.49-4.58-2.28-7.18-2.28h0Z"/>
      </g>
    </g>
    <g>
      <path d="m20.12,137.18c-.17,0-.34-.01-.51-.04l-13.67-2.35c-.87-.15-1.63-.68-2.08-1.44-.45-.76-.53-1.68-.24-2.52.1-.29.38-1.07,13.72-33.95.33-.82,1.01-1.45,1.86-1.73.3-.1.61-.15.92-.15.56,0,1.11.16,1.6.46.33.21.7.44,7.07,6.21,1.67,1.51,2.95,2.68,3.92,3.6.88-1.05,2.03-2.37,3.54-4.07,1.94-2.14,3.86-4.27,5.78-6.43.57-.64,1.39-1,2.24-1,.13,0,.25,0,.38.02.98.13,1.84.73,2.29,1.61l16.5,32.23c.4.79.44,1.71.1,2.53-.34.82-1.03,1.44-1.87,1.7l-12.31,3.83c-.29.09-.59.14-.89.14-.78,0-1.54-.3-2.11-.87-.39-.38-.41-.41-4.27-7.16-.54-.95-1.01-1.77-1.42-2.49-1.05,1.35-2.42,3.11-4.22,5.41-.58.75-1.46,1.15-2.37,1.15-.44,0-.89-.1-1.31-.3-.51-.25-.58-.28-5.69-5.58-1.37,3-2.78,6.15-4.21,9.4-.48,1.1-1.57,1.79-2.74,1.79Z"/>
      <path d="m44.27,96.77l16.5,32.23-12.31,3.83c-.08-.08-1.34-2.25-3.77-6.51-2.44-4.26-3.65-6.41-3.65-6.45,0,.08-2.32,3.08-6.95,9.01-.08-.04-2.71-2.75-7.89-8.13-1.96,4.22-3.99,8.7-6.07,13.43l-13.67-2.35c.24-.67,4.79-11.94,13.67-33.82.31.2,2.53,2.16,6.66,5.89,4.12,3.73,6.21,5.74,6.25,6.01-.04-.31,1.79-2.55,5.48-6.72,1.92-2.12,3.85-4.26,5.77-6.42m0-6c-1.7,0-3.33.72-4.48,2.01-1.9,2.14-3.83,4.28-5.74,6.38-.02.02-.03.03-.05.05-.55.62-1.07,1.21-1.55,1.75-.51-.47-1.06-.97-1.66-1.51-6.57-5.95-6.94-6.18-7.49-6.52-.97-.61-2.08-.92-3.19-.92-.62,0-1.24.1-1.84.29-1.69.55-3.05,1.81-3.72,3.45C1.19,128.7.92,129.46.79,129.83c-.59,1.67-.41,3.51.48,5.04.89,1.53,2.42,2.58,4.16,2.88l13.67,2.35c.34.06.68.09,1.02.09,2.35,0,4.52-1.38,5.49-3.58.8-1.82,1.59-3.61,2.38-5.35,2.52,2.57,2.76,2.68,3.46,3.03.84.41,1.74.61,2.63.61,1.8,0,3.56-.81,4.73-2.31.52-.66,1.01-1.29,1.47-1.88,3.26,5.71,3.31,5.75,3.96,6.4,1.14,1.13,2.66,1.73,4.22,1.73.6,0,1.2-.09,1.78-.27l12.31-3.83c1.69-.53,3.06-1.77,3.75-3.4.69-1.63.62-3.48-.19-5.06l-16.5-32.23c-.9-1.76-2.62-2.97-4.58-3.22-.25-.03-.51-.05-.76-.05h0Z"/>
    </g>
    <g>
      <g>
        <path d="m24.78,179.4c-.7,0-1.39-.25-1.93-.7-.56-.47-.92-1.12-1.03-1.83-.14-.81-3.16-17.4-6.41-35.22-.14-.78.03-1.59.48-2.25.45-.65,1.15-1.1,1.93-1.24,8.05-1.46,13.84-2.17,17.69-2.17h.32c11.54.12,14.97,5.63,15.82,10.23,0,.05.02.1.02.15.1.72.14,1.45.14,2.16,0,4-1.68,7.8-5,11.31-2.78,2.97-6.48,5.43-11.03,7.33,1,5.48,1.27,6.53,1.33,6.72.24.82.12,1.71-.33,2.43-.45.73-1.19,1.23-2.03,1.38l-9.46,1.66c-.17.03-.35.04-.52.04Z"/>
        <path d="m35.51,138.99c.1,0,.19,0,.29,0,7.66.08,11.96,2.67,12.9,7.78.08.59.12,1.18.12,1.77,0,3.22-1.39,6.3-4.18,9.25-2.94,3.14-7.02,5.64-12.24,7.48l.36,2c.79,4.32,1.28,6.81,1.48,7.48l-9.46,1.66s-2.14-11.8-6.42-35.29c7.8-1.41,13.52-2.12,17.15-2.12m-4.07,14.79c3.69-.43,5.53-1.67,5.53-3.71.04-1.73-1.25-2.59-3.88-2.59-.84,0-1.79.1-2.86.3l1.21,6m4.07-20.79h0c-4.03,0-9.99.73-18.22,2.22-1.57.28-2.96,1.18-3.86,2.49s-1.26,2.92-.97,4.49c3.22,17.68,6.22,34.15,6.4,35.18.23,1.41.95,2.7,2.06,3.63,1.09.92,2.46,1.41,3.86,1.41.34,0,.69-.03,1.03-.09l9.46-1.66c1.69-.29,3.16-1.3,4.07-2.75.9-1.45,1.14-3.22.65-4.86-.04-.15-.23-.93-.82-4.11,3.94-1.91,7.24-4.27,9.85-7.05,3.84-4.06,5.8-8.56,5.8-13.35,0-.84-.06-1.7-.17-2.56-.01-.1-.03-.2-.05-.3-.86-4.67-4.44-12.54-18.74-12.69h-.35Z"/>
      </g>
      <polygon class="cls-1" points="41.15 25.18 36.1 25.54 34.67 28.06 41.95 28.69 41.15 25.18"/>
    </g>
    <polygon class="cls-2" points="31.44 95.31 39.66 96.77 36.29 101.33 32.76 102.48 28.62 100.39 27.52 97.68 28.73 94.98 31.44 95.31"/>
    <polygon class="cls-2" points="26.36 130.15 31.44 131.09 34.06 131.09 40.6 128.21 42.98 132.19 42.98 135.39 38.83 135.01 32.98 134.79 28.45 135.83 24.09 136.39 23.48 134.18 24.81 130.92 26.36 130.15"/>
  </g>
  <g id="comp">
    <path class="cls-3" d="m52.98,41.66c-4.36,1.85-9.13,3.18-14.32,4.01-1.69.24-3.34.35-4.95.35-6.95,0-12.23-2.48-15.85-7.44-2.79-3.89-3.99-7.93-3.59-12.1.47-4.56,2.61-8.44,6.42-11.62,5.03-4.25,12.31-6.37,21.86-6.37,1.65,0,3.34.08,5.07.24.2.59-1.06,4.36-3.77,11.31h-2c-3.93,0-7.05.76-9.37,2.29-2.08,1.37-3.12,3.05-3.12,5.04,0,.74.16,1.47.47,2.17,1.06,2.27,3.4,3.4,7.01,3.4,1.61-.04,3.61-.47,6.01-1.3,1.45-.55,2.91-1.08,4.36-1.59l5.77,11.61Z"/>
    <path class="cls-3" d="m34.74,54.38c5.58,0,10.05,1.55,13.43,4.65,3.46,3.25,5.18,7.73,5.18,13.41,0,4.59-1.55,8.73-4.65,12.41-3.89,4.63-9.39,6.94-16.5,6.94-5.58,0-10.07-1.69-13.49-5.06-3.26-3.25-4.89-7.41-4.89-12.47s1.81-9.84,5.42-13.65c3.97-4.16,9.13-6.23,15.49-6.23Zm-.94,24.33c1.41,0,2.73-.43,3.95-1.29,1.61-1.21,2.43-2.97,2.47-5.28,0-2.07-.73-3.64-2.18-4.69-1.1-.78-2.34-1.17-3.71-1.17-1.49,0-2.87.49-4.12,1.47-1.53,1.25-2.3,2.93-2.3,5.04,0,1.88.77,3.4,2.3,4.57,1.18.9,2.38,1.35,3.59,1.35Z"/>
    <path class="cls-3" d="m6.45,131.83c.24-.67,4.79-11.94,13.67-33.82.31.2,2.53,2.16,6.66,5.89,4.12,3.73,6.21,5.74,6.25,6.01-.04-.31,1.79-2.55,5.48-6.72,1.92-2.12,3.85-4.26,5.77-6.42l16.5,32.23-12.31,3.83c-.08-.08-1.34-2.25-3.77-6.51-2.44-4.26-3.65-6.41-3.65-6.45,0,.08-2.32,3.08-6.95,9.01-.08-.04-2.71-2.75-7.89-8.13-1.96,4.22-3.99,8.7-6.07,13.43l-13.67-2.35Z"/>
    <path class="cls-3" d="m24.78,176.4s-2.14-11.8-6.42-35.29c8.01-1.45,13.82-2.16,17.44-2.12,7.66.08,11.96,2.67,12.9,7.78.08.59.12,1.18.12,1.77,0,3.22-1.39,6.3-4.18,9.25-2.94,3.14-7.02,5.64-12.24,7.48l.36,2c.79,4.32,1.28,6.81,1.48,7.48l-9.46,1.66Zm6.66-22.62c3.69-.43,5.53-1.67,5.53-3.71.04-1.73-1.25-2.59-3.88-2.59-.84,0-1.79.1-2.86.3l1.21,6Z"/>
  </g>
</svg>