<?xml version="1.0" encoding="UTF-8"?>
<svg xmlns="http://www.w3.org/2000/svg" viewBox="0 0 191.59 67.66">
  <defs>
    <style>
      .cls-1 {
        fill: #fff;
      }
    </style>
  </defs>
  <g id="outline">
    <g>
      <g>
        <path d="m12.86,57.67c-.7,0-1.39-.25-1.93-.7-.56-.47-.92-1.12-1.03-1.83-.14-.81-3.16-17.4-6.41-35.22-.14-.78.03-1.59.48-2.25.45-.65,1.15-1.1,1.93-1.24,8.05-1.46,13.84-2.17,17.69-2.17h.32c11.54.12,14.97,5.63,15.82,10.23,0,.05.02.1.02.15.1.72.14,1.45.14,2.16,0,4-1.68,7.8-5,11.31-2.78,2.97-6.48,5.43-11.03,7.33,1,5.48,1.27,6.53,1.33,6.72.24.82.12,1.71-.33,2.43-.45.73-1.19,1.23-2.03,1.38l-9.46,1.66c-.17.03-.35.04-.52.04Z"/>
        <path d="m23.59,17.26c.1,0,.19,0,.29,0,7.66.08,11.96,2.67,12.9,7.78.08.59.12,1.18.12,1.77,0,3.22-1.39,6.3-4.18,9.25-2.94,3.14-7.02,5.64-12.24,7.48l.36,2c.79,4.32,1.28,6.81,1.48,7.48l-9.46,1.66s-2.14-11.8-6.42-35.29c7.8-1.41,13.52-2.12,17.15-2.12m-4.07,14.79c3.69-.43,5.53-1.67,5.53-3.71.04-1.73-1.25-2.59-3.88-2.59-.84,0-1.79.1-2.86.3l1.21,6m4.07-20.79h0c-4.03,0-9.99.73-18.22,2.22-1.57.28-2.96,1.18-3.86,2.49-.91,1.31-1.26,2.92-.97,4.49,3.22,17.68,6.22,34.15,6.4,35.18.23,1.41.95,2.7,2.06,3.63,1.09.92,2.46,1.41,3.86,1.41.34,0,.69-.03,1.03-.09l9.46-1.66c1.69-.29,3.16-1.3,4.07-2.75.9-1.45,1.14-3.22.65-4.86-.04-.15-.23-.93-.82-4.11,3.94-1.91,7.24-4.27,9.85-7.05,3.84-4.06,5.8-8.56,5.8-13.35,0-.84-.06-1.7-.17-2.56-.01-.1-.03-.2-.05-.3-.86-4.67-4.44-12.54-18.74-12.69h-.35Z"/>
      </g>
      <g>
        <path d="m74.41,57.67c-.95,0-1.86-.45-2.43-1.25-.79-1.1-1.56-2.17-2.31-3.23-.85-1.19-1.44-2.02-1.84-2.59h-10.75c-.32.56-.74,1.29-1.32,2.28-1.88,3.22-2,3.39-2.15,3.59-.58.77-1.47,1.2-2.4,1.2-.27,0-.54-.04-.81-.11l-10.36-2.89c-1.53-.43-2.46-1.97-2.13-3.52.16-.74.28-1.32,10.74-18.57l10.37-17c.54-.89,1.52-1.44,2.56-1.44,0,0,.42,0,.42,0,.99,0,1.91.49,2.47,1.3.3.43,1.76,2.72,10.97,17.55,10.32,16.61,10.64,17.25,10.8,17.56.4.79.42,1.72.07,2.53s-1.04,1.43-1.89,1.69l-9.15,2.77c-.29.09-.58.13-.87.13Z"/>
        <path d="m61.58,17.14h.41c.43.63,4.07,6.44,10.9,17.44,6.83,11,10.39,16.77,10.66,17.32l-9.15,2.77c-.79-1.09-1.55-2.16-2.3-3.21-1.61-2.26-2.52-3.54-2.71-3.86h-14.1c-.23.47-.95,1.73-2.13,3.77-1.19,2.04-1.84,3.14-1.96,3.3l-10.36-2.89c.12-.55,3.57-6.43,10.37-17.64,3.46-5.66,6.91-11.33,10.37-16.99m-3.47,22.8h8.53c-1.5-2.44-3.01-4.94-4.51-7.49,0,.04-.67,1.29-2.01,3.75-1.34,2.46-2.01,3.71-2.01,3.75m3.47-28.8c-2.09,0-4.03,1.09-5.12,2.88l-6.22,10.2-4.15,6.8c-10.73,17.7-10.84,18.23-11.11,19.51-.66,3.1,1.2,6.18,4.25,7.03l10.36,2.89c.53.15,1.08.22,1.61.22,1.86,0,3.65-.86,4.8-2.4.25-.33.38-.51,2.34-3.88.16-.28.32-.55.46-.79h7.47c.28.39.59.83.96,1.34.75,1.05,1.52,2.14,2.32,3.24,1.15,1.59,2.97,2.49,4.87,2.49.58,0,1.16-.08,1.74-.26l9.15-2.77c1.69-.51,3.07-1.75,3.77-3.37.7-1.62.65-3.48-.15-5.06-.23-.46-.54-1.08-10.93-17.8-10.32-16.61-10.83-17.35-11.05-17.67-1.12-1.63-2.96-2.6-4.93-2.61h-.41s0,0-.01,0h0Z"/>
      </g>
      <g>
        <path d="m92.04,57.67c-.7,0-1.39-.25-1.93-.7-.56-.47-.92-1.12-1.03-1.83-.14-.81-3.16-17.4-6.41-35.22-.14-.78.03-1.59.48-2.25.45-.65,1.15-1.1,1.93-1.24,8.06-1.46,13.84-2.17,17.69-2.17h.32c11.54.12,14.97,5.63,15.82,10.23,0,.05.02.1.02.15.09.72.14,1.44.14,2.16,0,4-1.68,7.8-5,11.31-2.78,2.97-6.48,5.43-11.03,7.33.98,5.33,1.25,6.48,1.33,6.73.24.82.12,1.7-.33,2.43s-1.19,1.23-2.03,1.37l-9.46,1.66c-.17.03-.35.04-.52.04Z"/>
        <path d="m102.77,17.26c.1,0,.19,0,.29,0,7.66.08,11.96,2.67,12.9,7.78.08.59.12,1.18.12,1.77,0,3.22-1.39,6.3-4.18,9.25-2.94,3.14-7.03,5.64-12.25,7.48l.37,2c.79,4.32,1.28,6.81,1.48,7.48l-9.46,1.66s-2.14-11.8-6.42-35.29c7.8-1.41,13.52-2.12,17.15-2.12m-4.07,14.79c3.69-.43,5.53-1.67,5.53-3.71.04-1.73-1.25-2.59-3.88-2.59-.84,0-1.79.1-2.87.3l1.21,6m4.07-20.79h0c-4.03,0-9.99.73-18.22,2.22-1.57.28-2.96,1.18-3.86,2.49-.91,1.31-1.26,2.92-.97,4.49,3.22,17.68,6.22,34.15,6.4,35.18.23,1.41.95,2.7,2.06,3.63,1.09.92,2.46,1.41,3.86,1.41.34,0,.69-.03,1.03-.09l9.46-1.66c1.68-.29,3.16-1.29,4.06-2.75s1.14-3.22.65-4.86c-.04-.15-.23-.93-.82-4.11,3.94-1.91,7.24-4.27,9.85-7.05,3.84-4.06,5.8-8.56,5.8-13.35,0-.85-.06-1.71-.17-2.56-.01-.1-.03-.2-.05-.3-.86-4.67-4.45-12.54-18.74-12.69h-.35Z"/>
      </g>
      <g>
        <path d="m144.42,57.79c-1.15-.04-5.41-.29-13.04-.77-3.83-.23-6.7-.41-8.62-.54-3.75-.25-5.16-.34-5.62-2.62-.05-.27-.07-.54-.05-.81.83-11.98,1.67-23.96,2.53-35.95.11-1.58,1.43-2.78,2.99-2.78.06,0,.11,0,.17,0,7.84.43,15.83.85,23.73,1.24.8.04,1.56.4,2.09,1,.53.6.81,1.39.75,2.19l-.53,8.19c-.05.81-.43,1.56-1.04,2.09-.55.47-1.24.72-1.95.72-.02,0-.04,0-.06,0,0,.1,0,.2,0,.29l-1,12.96c-.05.71-.35,1.34-.8,1.82.8.05,1.07.07,1.16.08.79.03,1.54.37,2.09.95.57.61.86,1.42.8,2.25l-.47,6.89c-.11,1.58-1.42,2.8-2.99,2.8-.04,0-.07,0-.11,0Z"/>
        <path d="m122.62,17.32c7.86.43,15.77.85,23.74,1.24l-.53,8.19c-3.42-.31-6.89-.61-10.43-.88l-.18,3.48c2.12.24,4.63.39,7.54.47l-1,12.96c-.51-.04-1.78-.13-3.8-.27-2.02-.14-3.25-.21-3.68-.21l-.41,4.83c7.31.51,11.02.77,11.14.77l-.47,6.89c-1.1-.04-5.42-.29-12.96-.77-7.74-.47-11.57-.73-11.49-.77.83-11.98,1.67-23.96,2.53-35.94m0-6c-3.12,0-5.75,2.41-5.98,5.57-.84,11.69-1.69,23.74-2.53,35.83-.05.57-.02,1.16.1,1.75.34,1.66,1.59,4.5,6.14,4.85.49.04,1.24.09,2.22.16,1.92.13,4.8.31,8.64.54,7.64.48,11.93.73,13.11.77.07,0,.15,0,.22,0,3.14,0,5.77-2.43,5.98-5.59l.47-6.89c.11-1.66-.47-3.29-1.6-4.5-.46-.5-1-.91-1.59-1.22l.81-10.52c.4-.21.77-.46,1.12-.76,1.23-1.05,1.98-2.56,2.09-4.17l.53-8.19c.1-1.6-.44-3.18-1.51-4.38-1.07-1.2-2.58-1.92-4.18-2-7.89-.39-15.87-.8-23.71-1.24-.11,0-.22,0-.33,0h0Z"/>
      </g>
      <g>
        <path d="m170.4,57.38c-.78,0-1.54-.31-2.1-.86-.5-.49-.81-1.14-.88-1.83-.03-.23-.2-1.27-.89-5.48-.27-1.66-.47-2.77-.61-3.52-.04,0-.08-.02-.13-.03-.15.63-.33,1.37-.55,2.26-.93,3.83-1.14,4.76-1.18,4.98-.1.75-.49,1.43-1.08,1.91-.54.44-1.21.67-1.89.67-.21,0-.42-.02-.62-.07l-10.84-2.3c-.91-.19-1.68-.8-2.08-1.63-.37-.77-.39-1.66-.07-2.45.19-.6.96-3.55,3.85-16.25,2.98-12.92,3.57-15.74,3.66-16.24.1-.82.52-1.56,1.18-2.05.52-.39,1.15-.6,1.8-.6.2,0,.41.02.61.06l9.07,1.89c4.07.86,6.91,1.59,8.71,2.23,3.37,1.09,6.16,2.67,8.23,4.67,2.35,2.27,3.54,4.86,3.54,7.7,0,.95-.14,1.91-.41,2.85-.57,2.01-1.64,3.77-3.18,5.24-.73.76-1.63,1.45-2.73,2.1.47,1.86,1.42,5.55,3.29,12.75.23.89.04,1.83-.51,2.57-.55.73-1.41,1.17-2.33,1.19,0,0-11.82.24-11.84.24Zm10.92-18.69h0Z"/>
        <path d="m157.96,16.91c3.02.63,6.05,1.26,9.07,1.89,3.89.82,6.66,1.53,8.31,2.12,3.02.98,5.41,2.32,7.16,4.01,1.75,1.69,2.62,3.54,2.62,5.54,0,.67-.1,1.34-.29,2-.43,1.53-1.24,2.85-2.42,3.95-.67.71-1.59,1.38-2.77,2-.86.51-1.28.85-1.24,1,.08.43,1.33,5.34,3.77,14.73l-11.78.24c0-.08-.3-1.96-.91-5.66-.61-3.69-.97-5.54-1.09-5.54-.79-.2-1.57-.37-2.36-.53-.79-.16-1.55-.31-2.3-.47l-.18-.12s-.41,1.76-1.24,5.16c-.83,3.4-1.24,5.15-1.24,5.27l-10.84-2.3c.24-.47,1.57-6.05,4.01-16.73,2.43-10.57,3.67-16.08,3.71-16.56m11.43,15.49c1.89,0,2.95-.47,3.18-1.41.08-.31.12-.61.12-.88,0-1.77-1.89-3.08-5.66-3.95-.71,3.18-1.12,4.87-1.24,5.07v.71c1.22.31,2.42.47,3.59.47m-11.43-21.49c-1.28,0-2.55.41-3.59,1.19-1.29.97-2.14,2.41-2.35,4-.12.65-.76,3.64-3.61,16.02-2.82,12.38-3.57,15.28-3.77,15.95-.58,1.53-.51,3.24.2,4.73.81,1.68,2.34,2.88,4.16,3.27l10.84,2.3c.41.09.83.13,1.24.13,1.36,0,2.7-.46,3.78-1.34.05-.04.1-.08.15-.13.3.6.69,1.16,1.18,1.64,1.12,1.1,2.63,1.72,4.2,1.72.04,0,.08,0,.12,0l11.78-.24c1.84-.04,3.55-.91,4.66-2.38,1.11-1.46,1.49-3.35,1.03-5.13-1.35-5.19-2.21-8.54-2.76-10.7.51-.4.99-.82,1.42-1.27,1.91-1.82,3.24-4.02,3.96-6.55.35-1.21.53-2.44.53-3.66,0-2.53-.77-6.29-4.45-9.85-2.39-2.31-5.55-4.11-9.4-5.37-1.92-.68-4.87-1.43-9-2.31l-6.11-1.27-2.98-.62c-.4-.08-.81-.13-1.22-.13h0Z"/>
      </g>
    </g>
  </g>
  <g id="paper">
    <g>
      <path class="cls-1" d="m12.86,54.67s-2.14-11.8-6.42-35.29c8.01-1.45,13.82-2.16,17.44-2.12,7.66.08,11.96,2.67,12.9,7.78.08.59.12,1.18.12,1.77,0,3.22-1.39,6.3-4.18,9.25-2.94,3.14-7.02,5.64-12.24,7.48l.36,2c.79,4.32,1.28,6.81,1.48,7.48l-9.46,1.66Zm6.66-22.62c3.69-.43,5.53-1.67,5.53-3.71.04-1.73-1.25-2.59-3.88-2.59-.84,0-1.79.1-2.86.3l1.21,6Z"/>
      <path class="cls-1" d="m40.84,51.78c.12-.55,3.57-6.43,10.37-17.64,3.46-5.66,6.91-11.33,10.37-16.99h.41c.43.63,4.07,6.44,10.9,17.44,6.83,11,10.39,16.77,10.66,17.32l-9.15,2.77c-.79-1.09-1.55-2.16-2.3-3.21-1.61-2.26-2.52-3.54-2.71-3.86h-14.1c-.23.47-.95,1.73-2.13,3.77-1.19,2.04-1.84,3.14-1.96,3.3l-10.36-2.89Zm25.8-11.83c-1.5-2.44-3.01-4.94-4.51-7.49,0,.04-.67,1.29-2.01,3.75-1.34,2.46-2.01,3.71-2.01,3.75h8.53Z"/>
      <path class="cls-1" d="m92.04,54.67s-2.14-11.8-6.42-35.29c8.01-1.45,13.83-2.16,17.44-2.12,7.66.08,11.96,2.67,12.9,7.78.08.59.12,1.18.12,1.77,0,3.22-1.39,6.3-4.18,9.25-2.94,3.14-7.03,5.64-12.25,7.48l.37,2c.79,4.32,1.28,6.81,1.48,7.48l-9.46,1.66Zm6.66-22.62c3.69-.43,5.53-1.67,5.53-3.71.04-1.73-1.25-2.59-3.88-2.59-.84,0-1.79.1-2.87.3l1.21,6Z"/>
      <path class="cls-1" d="m144.53,54.79c-1.1-.04-5.42-.29-12.96-.77-7.74-.47-11.57-.73-11.49-.77.83-11.98,1.67-23.96,2.53-35.94,7.86.43,15.77.85,23.74,1.24l-.53,8.19c-3.42-.31-6.89-.61-10.43-.88l-.18,3.48c2.12.24,4.63.39,7.54.47l-1,12.96c-.51-.04-1.78-.13-3.8-.27-2.02-.14-3.25-.21-3.68-.21l-.41,4.83c7.31.51,11.02.77,11.14.77l-.47,6.89Z"/>
      <path class="cls-1" d="m163.56,42.06s-.41,1.76-1.24,5.16c-.83,3.4-1.24,5.15-1.24,5.27l-10.84-2.3c.24-.47,1.57-6.05,4.01-16.73,2.43-10.57,3.67-16.08,3.71-16.56,3.02.63,6.05,1.26,9.07,1.89,3.89.82,6.66,1.53,8.31,2.12,3.02.98,5.41,2.32,7.16,4.01,1.75,1.69,2.62,3.54,2.62,5.54,0,.67-.1,1.34-.29,2-.43,1.53-1.24,2.85-2.42,3.95-.67.71-1.59,1.38-2.77,2-.86.51-1.28.85-1.24,1,.08.43,1.33,5.34,3.77,14.73l-11.78.24c0-.08-.3-1.96-.91-5.66-.61-3.69-.97-5.54-1.09-5.54-.79-.2-1.57-.37-2.36-.53-.79-.16-1.55-.31-2.3-.47l-.18-.12Zm2.24-10.13c1.22.31,2.42.47,3.59.47,1.89,0,2.95-.47,3.18-1.41.08-.31.12-.61.12-.88,0-1.77-1.89-3.08-5.66-3.95-.71,3.18-1.12,4.87-1.24,5.07v.71Z"/>
    </g>
  </g>
</svg>