<?xml version="1.0" encoding="UTF-8"?>
<svg xmlns="http://www.w3.org/2000/svg" viewBox="0 0 382.93 50.17">
  <defs>
    <style>
      .cls-1 {
        fill: #fff;
      }
    </style>
  </defs>
  <g id="outline">
    <g>
      <g>
        <path d="m12.56,46.83c-.7,0-1.39-.25-1.93-.7-.56-.47-.92-1.12-1.03-1.83-.14-.81-3.16-17.4-6.41-35.22-.14-.78.03-1.59.48-2.25.45-.65,1.15-1.1,1.93-1.24,8.05-1.46,13.84-2.17,17.69-2.17h.32c11.54.12,14.97,5.63,15.82,10.23,0,.05.02.1.02.15.1.72.14,1.45.14,2.16,0,4-1.68,7.8-5,11.31-2.78,2.97-6.48,5.43-11.03,7.33,1,5.48,1.27,6.53,1.33,6.72.24.82.12,1.71-.33,2.43-.45.73-1.19,1.23-2.03,1.38l-9.46,1.66c-.17.03-.35.04-.52.04Z"/>
        <path d="m23.28,6.41c.1,0,.19,0,.29,0,7.66.08,11.96,2.67,12.9,7.78.08.59.12,1.18.12,1.77,0,3.22-1.39,6.3-4.18,9.25-2.94,3.14-7.02,5.64-12.24,7.48l.36,2c.79,4.32,1.28,6.81,1.48,7.48l-9.46,1.66s-2.14-11.8-6.42-35.29c7.8-1.41,13.52-2.12,17.15-2.12m-4.07,14.79c3.69-.43,5.53-1.67,5.53-3.71.04-1.73-1.25-2.59-3.88-2.59-.84,0-1.79.1-2.86.3l1.21,6M23.28.41h0c-4.03,0-9.99.73-18.22,2.22-1.57.28-2.96,1.18-3.86,2.49C.29,6.43-.05,8.05.23,9.61c3.22,17.68,6.22,34.15,6.4,35.18.23,1.41.95,2.7,2.06,3.63,1.09.92,2.46,1.41,3.86,1.41.34,0,.69-.03,1.03-.09l9.46-1.66c1.69-.29,3.16-1.3,4.07-2.75.9-1.45,1.14-3.22.65-4.86-.04-.15-.23-.93-.82-4.11,3.94-1.91,7.24-4.27,9.85-7.05,3.84-4.06,5.8-8.56,5.8-13.35,0-.84-.06-1.7-.17-2.56-.01-.1-.03-.2-.05-.3-.86-4.67-4.44-12.54-18.74-12.69h-.35Z"/>
      </g>
      <g>
        <path d="m44.96,46.71c-2.66,0-2.98-2.51-3.13-3.72-.09-.74-.23-1.85-.4-3.32-.35-2.94-.86-7.34-1.54-13.22-1.35-11.99-2.05-18.17-2.09-18.52-.18-1.64.99-3.11,2.63-3.31l10.88-1.3c.12-.01.24-.02.36-.02.73,0,1.44.27,1.99.76.58.51.93,1.23,1,1.99.04.37.43,3.77,2.47,21.35,4.69-.59,6.08-.79,6.47-.85.12-.03.25-.05.38-.07.11-.01.22-.02.33-.02,1.39,0,2.62.97,2.93,2.36l2.52,11.49c.18.82,0,1.68-.48,2.37s-1.24,1.14-2.07,1.25l-21.86,2.77c-.12.02-.25.02-.38.02Z"/>
        <path d="m51.66,6.29c0,.08.94,8.23,2.83,24.45,6.53-.82,9.8-1.25,9.8-1.29l2.52,11.49-21.86,2.77s0,0,0,0c-.04,0-.74-5.87-2.1-17.61-1.35-11.98-2.04-18.15-2.08-18.5l10.88-1.3m0-6c-.24,0-.47.01-.71.04l-10.88,1.3c-3.27.39-5.61,3.34-5.25,6.62.04.35.73,6.53,2.08,18.52.68,5.9,1.2,10.31,1.55,13.25.18,1.49.31,2.6.41,3.35.05.41.09.71.12.91.53,3.73,3.48,5.43,5.99,5.43.25,0,.5-.02.75-.05l21.86-2.77c1.67-.21,3.18-1.12,4.15-2.49.97-1.38,1.32-3.1.96-4.75l-2.52-11.49c-.61-2.78-3.07-4.71-5.85-4.71-.22,0-.43.01-.65.04-.21.02-.42.06-.62.1-.31.05-1.12.16-3.27.44-1.77-15.2-2.07-17.9-2.12-18.28-.14-1.51-.85-2.92-1.99-3.94-1.1-.98-2.52-1.51-3.98-1.51h0Z"/>
      </g>
      <g>
        <path d="m103.62,46.83c-.95,0-1.86-.45-2.43-1.25-.79-1.09-1.56-2.17-2.31-3.23-.85-1.19-1.44-2.02-1.84-2.59h-10.75c-.32.56-.74,1.29-1.32,2.28-1.88,3.22-2,3.39-2.15,3.59-.58.77-1.47,1.2-2.4,1.2-.27,0-.54-.04-.81-.11l-10.36-2.89c-1.53-.43-2.46-1.97-2.13-3.52.16-.74.28-1.32,10.74-18.57l10.37-17c.54-.89,1.52-1.44,2.56-1.44,0,0,.42,0,.42,0,.99,0,1.91.49,2.47,1.3.17.25.71,1.03,10.97,17.55,10.32,16.61,10.63,17.23,10.8,17.56.4.79.42,1.72.07,2.53s-1.04,1.43-1.89,1.69l-9.15,2.77c-.29.09-.58.13-.87.13Z"/>
        <path d="m90.79,6.3h.41c.43.63,4.07,6.44,10.9,17.44,6.83,11,10.39,16.77,10.66,17.32l-9.15,2.77c-.79-1.09-1.55-2.16-2.3-3.21-1.61-2.26-2.52-3.54-2.71-3.86h-14.1c-.23.47-.95,1.73-2.13,3.77-1.19,2.04-1.84,3.14-1.96,3.3l-10.36-2.89c.12-.55,3.57-6.43,10.37-17.64,3.46-5.66,6.91-11.33,10.37-16.99m-3.47,22.8h8.53c-1.5-2.44-3.01-4.94-4.51-7.49,0,.04-.67,1.29-2.01,3.75-1.34,2.46-2.01,3.71-2.01,3.75M90.79.3c-2.09,0-4.03,1.09-5.12,2.88l-6.87,11.27-3.49,5.73c-10.73,17.7-10.84,18.23-11.11,19.51-.66,3.1,1.2,6.18,4.25,7.03l10.36,2.89c.53.15,1.08.22,1.61.22,1.86,0,3.65-.86,4.8-2.4.25-.33.38-.51,2.34-3.88.16-.28.32-.55.46-.79h7.47c.28.39.59.83.96,1.34.75,1.05,1.52,2.13,2.32,3.23,1.15,1.59,2.97,2.49,4.87,2.49.58,0,1.16-.08,1.74-.26l9.15-2.77c1.69-.51,3.07-1.75,3.77-3.37.7-1.62.65-3.48-.15-5.06-.23-.45-.54-1.07-10.93-17.8-10.3-16.58-10.84-17.37-11.05-17.66-1.12-1.63-2.96-2.6-4.94-2.61h-.41s0,0-.01,0h0Z"/>
      </g>
      <g>
        <path d="m135.44,46.83c-.14,0-.27,0-.41-.03l-11.55-1.65c-.79-.11-1.5-.54-1.98-1.17-.48-.64-.68-1.44-.57-2.23.19-1.27.6-4.28,1.25-9.04-.37-.83-1.46-3.08-4.65-9.09-3.86-7.15-4.86-8.85-5.12-9.26-.45-.56-.69-1.28-.65-2.01.05-.96.54-1.83,1.34-2.36l9.37-6.19c.5-.33,1.07-.5,1.65-.5.3,0,.61.05.9.14.8.25,1.46.83,1.81,1.58.18.35,1.32,2.46,6.51,11.87.92-.91,2.09-2.05,3.6-3.5,6.5-6.25,7.01-6.48,7.61-6.75.4-.18.82-.27,1.24-.27.76,0,1.5.29,2.07.83l8.25,7.88c.66.63,1,1.52.92,2.43-.07.84-.5,1.61-1.16,2.12-.28.24-1.69,1.52-8.48,7.97-4.86,4.61-6.82,6.52-7.61,7.31-1.16,7.41-1.34,8.85-1.36,9.12-.06.83-.47,1.61-1.11,2.13-.54.43-1.21.68-1.9.68Z"/>
        <path d="m124.14,6.3c.08.2,2.95,5.42,8.6,15.67.12-.35,2.22-2.49,6.3-6.42,4.08-3.93,6.34-5.99,6.78-6.19l8.25,7.88c-.24.16-3.14,2.88-8.72,8.18-5.58,5.29-8.37,8-8.37,8.12-.98,6.23-1.49,9.67-1.53,10.29l-11.55-1.65c.2-1.33.65-4.6,1.35-9.78.04-.35-1.65-3.75-5.07-10.19-3.42-6.32-5.22-9.56-5.42-9.72l9.37-6.19m0-6c-1.16,0-2.31.34-3.31.99l-9.37,6.19c-1.6,1.05-2.6,2.81-2.69,4.72-.07,1.4.36,2.76,1.17,3.86.29.48,1.33,2.28,4.96,9,2.48,4.67,3.64,6.98,4.18,8.11-.57,4.14-.95,6.94-1.13,8.14-.23,1.58.18,3.18,1.13,4.46.95,1.28,2.38,2.12,3.96,2.35l11.55,1.65c.28.04.57.06.85.06,1.37,0,2.71-.47,3.79-1.35,1.28-1.04,2.08-2.57,2.2-4.22.03-.34.22-1.78,1.18-7.92,1.04-1.02,3.04-2.94,6.86-6.57,6.44-6.12,7.97-7.52,8.34-7.84,1.28-1.02,2.09-2.52,2.23-4.17.16-1.81-.52-3.6-1.83-4.86l-8.25-7.88c-1.14-1.09-2.63-1.66-4.15-1.66-.84,0-1.69.18-2.48.54-1.05.48-1.58.72-8.45,7.32-.28.27-.54.52-.8.77-3.43-6.23-4.35-7.93-4.55-8.31-.72-1.48-2.02-2.61-3.6-3.1-.59-.19-1.2-.28-1.8-.28h0Z"/>
      </g>
      <g>
        <path d="m218.33,46.83c-.95,0-1.86-.45-2.43-1.25-.79-1.1-1.56-2.17-2.31-3.23-.85-1.19-1.44-2.02-1.84-2.59h-10.75c-.32.56-.74,1.29-1.31,2.28-1.87,3.21-2.01,3.4-2.14,3.58-.58.77-1.47,1.21-2.41,1.21-.27,0-.54-.04-.81-.11l-10.36-2.89c-1.53-.43-2.46-1.97-2.13-3.52.16-.74.28-1.32,10.74-18.57l10.37-17c.54-.89,1.52-1.44,2.56-1.44,0,0,.42,0,.42,0,.99,0,1.91.49,2.47,1.3.17.25.7,1.02,10.97,17.55,10.32,16.61,10.63,17.23,10.8,17.56.4.79.42,1.72.07,2.53-.35.81-1.04,1.43-1.89,1.69l-9.14,2.77c-.29.09-.58.13-.87.13Z"/>
        <path d="m205.5,6.3h.41c.43.63,4.07,6.44,10.9,17.44,6.83,11,10.39,16.77,10.66,17.32l-9.15,2.77c-.79-1.09-1.55-2.16-2.3-3.21-1.61-2.26-2.52-3.54-2.71-3.86h-14.1c-.23.47-.95,1.73-2.13,3.77-1.19,2.04-1.84,3.14-1.96,3.3l-10.36-2.89c.12-.55,3.57-6.43,10.37-17.64,3.46-5.66,6.91-11.33,10.37-16.99m-3.47,22.8h8.54c-1.5-2.44-3.01-4.94-4.51-7.49,0,.04-.67,1.29-2.01,3.75-1.34,2.46-2.01,3.71-2.01,3.75m3.47-28.8c-2.09,0-4.03,1.09-5.12,2.88l-10.37,16.99c-10.72,17.69-10.84,18.22-11.11,19.51-.67,3.1,1.2,6.18,4.25,7.04l10.36,2.89c.53.15,1.08.22,1.61.22,1.87,0,3.66-.87,4.81-2.42.24-.32.38-.51,2.33-3.86.16-.28.32-.55.46-.79h7.47c.28.39.59.83.96,1.34.75,1.05,1.52,2.13,2.32,3.24,1.15,1.59,2.97,2.49,4.87,2.49.58,0,1.16-.08,1.74-.26l9.15-2.77c1.69-.51,3.07-1.75,3.77-3.37s.65-3.48-.15-5.06c-.23-.45-.54-1.07-10.93-17.8-10.31-16.59-10.83-17.34-11.05-17.66-1.12-1.63-2.96-2.6-4.94-2.61h-.41s0,0-.01,0h0Z"/>
      </g>
      <g>
        <path d="m247.88,47.06c-5.49,0-10.13-1.49-13.8-4.43-4.03-3.24-6.46-7.94-7.23-13.98-.1-.9-.14-1.78-.14-2.67,0-5.91,2.13-11.17,6.32-15.63,4.25-4.52,9.31-6.81,15.06-6.81,4.71,0,9.12,1.68,13.11,4.99h0c.61.51,1.01,1.27,1.09,2.06.14,1.54-.54,2.43-4.07,6.26-3.77,4.09-4.5,4.65-5.98,4.65-.38,0-.79-.08-1.14-.22-.7-.3-1.3-.43-1.88-.43-.85,0-1.99.2-3.23,1.79-.93,1.2-1.36,2.3-1.31,3.39.03,1.56.39,2.65,1.1,3.41.24.26.97,1.03,3.03,1.03.28,0,.57-.01.86-.03-1.6-1.03-2.11-1.33-2.27-1.42-1.07-.48-1.77-1.56-1.76-2.75,0-1.25.79-2.37,1.97-2.81l15.61-5.71c.33-.12.68-.18,1.03-.18.52,0,1.05.14,1.51.41.77.45,1.3,1.22,1.45,2.1l.47,2.82c.3,2,.45,3.83.45,5.5,0,4.9-1.28,8.83-3.81,11.7-4.03,4.54-9.47,6.88-16.17,6.97h-.26Z"/>
        <path d="m248.1,6.53c4.01,0,7.74,1.43,11.19,4.3.16.12-.93,1.44-3.27,3.98-2.27,2.46-3.53,3.69-3.78,3.69,0,0-.01,0-.02,0-1.02-.43-2.02-.65-3-.65-2.2,0-4.07.98-5.6,2.95-1.38,1.77-2.02,3.56-1.94,5.36.04,2.24.68,4.02,1.92,5.33,1.24,1.32,2.97,1.97,5.21,1.97.59,0,1.2-.04,1.83-.12,2.16-.31,3.48-1.41,3.95-3.3-3.65-2.4-5.64-3.65-5.95-3.77l15.61-5.71c.16.94.31,1.89.47,2.83.27,1.81.41,3.48.41,5.01,0,4.16-1.02,7.4-3.06,9.72-3.46,3.89-8.11,5.87-13.96,5.95-.07,0-.15,0-.22,0-4.81,0-8.78-1.26-11.92-3.77-3.42-2.75-5.46-6.75-6.13-12.02-.08-.75-.12-1.51-.12-2.3,0-5.15,1.84-9.67,5.51-13.58,3.67-3.91,7.96-5.86,12.87-5.86m0-6c-6.61,0-12.41,2.61-17.25,7.75-4.74,5.04-7.14,10.99-7.14,17.69,0,1,.05,1.98.15,2.93,0,.04,0,.08.01.12.87,6.83,3.66,12.2,8.32,15.94,4.22,3.38,9.49,5.1,15.68,5.1h.27c7.61-.1,13.79-2.78,18.4-7.97,3.04-3.45,4.58-8.06,4.58-13.71,0-1.82-.16-3.81-.48-5.91,0-.03,0-.06-.01-.09-.16-.94-.31-1.88-.47-2.82-.29-1.76-1.35-3.3-2.9-4.2-.93-.54-1.97-.82-3.02-.82-.04,0-.09,0-.13,0,.93-1.39,1.32-2.64,1.17-4.24-.15-1.59-.93-3.08-2.16-4.1h0c-4.55-3.77-9.6-5.68-15.02-5.68h0Z"/>
      </g>
      <g>
        <path d="m302.87,46.83c-.95,0-1.86-.45-2.43-1.25-.79-1.1-1.56-2.17-2.31-3.23-.85-1.19-1.44-2.02-1.84-2.59h-10.75c-.32.56-.74,1.29-1.31,2.28-1.87,3.21-2.01,3.4-2.14,3.58-.58.77-1.47,1.21-2.41,1.21-.27,0-.54-.04-.81-.11l-10.36-2.89c-1.53-.43-2.46-1.97-2.13-3.52.16-.74.28-1.32,10.74-18.57l10.37-17c.54-.89,1.51-1.44,2.56-1.44,0,0,.42,0,.42,0,.99,0,1.91.49,2.47,1.3.17.25.7,1.02,10.97,17.55,10.32,16.61,10.63,17.23,10.8,17.56.4.79.42,1.72.07,2.53-.35.81-1.04,1.43-1.89,1.69l-9.15,2.77c-.29.09-.58.13-.87.13Z"/>
        <path d="m290.04,6.3h.41c.43.63,4.07,6.44,10.9,17.44,6.83,11,10.39,16.77,10.66,17.32l-9.15,2.77c-.79-1.09-1.55-2.16-2.3-3.21-1.61-2.26-2.52-3.54-2.71-3.86h-14.1c-.23.47-.95,1.73-2.13,3.77-1.19,2.04-1.84,3.14-1.96,3.3l-10.36-2.89c.12-.55,3.57-6.43,10.37-17.64,3.46-5.66,6.91-11.33,10.37-16.99m-3.47,22.8h8.54c-1.5-2.44-3.01-4.94-4.51-7.49,0,.04-.67,1.29-2.01,3.75-1.34,2.46-2.01,3.71-2.01,3.75m3.47-28.8c-2.09,0-4.03,1.09-5.12,2.88l-10.37,16.99c-10.72,17.69-10.84,18.22-11.11,19.51-.67,3.1,1.2,6.19,4.25,7.04l10.36,2.89c.53.15,1.08.22,1.61.22,1.87,0,3.66-.87,4.81-2.42.24-.32.38-.51,2.33-3.86.16-.28.32-.55.46-.79h7.47c.28.39.59.83.96,1.34.75,1.05,1.52,2.13,2.32,3.24,1.15,1.59,2.97,2.49,4.87,2.49.58,0,1.16-.08,1.74-.26l9.15-2.77c1.69-.51,3.07-1.75,3.77-3.37.7-1.62.65-3.48-.15-5.06-.23-.45-.54-1.07-10.93-17.8-10.31-16.59-10.83-17.34-11.05-17.66-1.12-1.63-2.96-2.6-4.94-2.61h-.41s0,0-.01,0h0Z"/>
      </g>
      <g>
        <path d="m329.75,47l-15.79-.94c-.88-.05-1.69-.49-2.22-1.19-.53-.7-.72-1.6-.53-2.46.12-.54.59-3.64,2.42-18.39,1.77-14.36,2.08-17.22,2.1-17.65.1-1.59,1.42-2.84,3-2.84.06,0,.12,0,.18,0l15.85.94c.89.05,1.71.5,2.24,1.22.53.72.71,1.64.49,2.5-.06.34-.48,3.24-2.32,17.79-1.79,14.17-2.21,17.72-2.25,18.2-.12,1.58-1.44,2.81-3,2.81-.06,0-.12,0-.18,0Z"/>
        <path d="m318.74,6.53l15.85.94c-.12.47-.91,6.52-2.39,18.15-1.47,11.63-2.23,17.75-2.27,18.38l-15.79-.94c.24-1.06,1.06-7.29,2.47-18.68,1.37-11.15,2.08-17.1,2.12-17.85m0-6c-1.47,0-2.89.54-4,1.52-1.18,1.06-1.9,2.54-1.99,4.12-.04.55-.37,3.56-2.09,17.48-1.84,14.85-2.28,17.63-2.38,18.13-.38,1.72.01,3.5,1.07,4.9,1.06,1.4,2.68,2.26,4.44,2.36l15.79.94c.12,0,.24.01.36.01,3.13,0,5.76-2.42,5.98-5.58.06-.63.49-4.29,2.23-18.05,1.81-14.29,2.22-17.13,2.31-17.68.35-1.66-.03-3.4-1.04-4.77-1.06-1.44-2.7-2.33-4.48-2.44l-15.85-.94c-.12,0-.24-.01-.36-.01h0Z"/>
      </g>
      <g>
        <path d="m371.42,46.83c-.73,0-1.45-.27-2.01-.77-.75-.67-1.89-1.57-3.41-2.68-3.02-2.26-7.06-5.11-12.05-8.5-.35,1.77-.71,3.67-1.09,5.67-.27,1.44-1.52,2.45-2.95,2.45-.14,0-.28,0-.42-.03l-11.44-1.59c-1.53-.21-2.65-1.56-2.58-3.11.01-.29.07-.57.16-.83.22-1.01,1.25-6.65,5.42-31.63.19-1.12,1-2.05,2.09-2.38.29-.09.58-.13.87-.13.82,0,1.61.33,2.19.95.85.91,3.33,3.2,10.28,8.97,1.9,1.58,3.4,2.83,4.57,3.82.35-2.4.72-4.82,1.09-7.25.12-.82.58-1.55,1.26-2.02.5-.35,1.1-.53,1.7-.53.21,0,.42.02.63.07l11.72,2.53c1.6.34,2.63,1.91,2.31,3.51-.5,2.55-2.32,12.98-5.39,30.98-.18,1.08-.94,1.97-1.97,2.33-.32.11-.65.17-.98.17Z"/>
        <path d="m344.01,6.3c1.33,1.42,4.85,4.49,10.55,9.22,5.42,4.49,8.31,6.98,8.66,7.45.59-4.12,1.22-8.37,1.89-12.73l11.72,2.53c-.51,2.59-2.31,12.94-5.41,31.05-.82-.74-2.04-1.7-3.65-2.87-3.76-2.81-9.05-6.51-15.87-11.08-.6,2.91-1.26,6.28-1.99,10.13l-11.44-1.59c.12,0,1.97-10.71,5.54-32.11m-5.54,32.11h0s0,0,0,0c0,0,0,0,0,0M344.01.3c-.58,0-1.17.08-1.74.26-2.18.66-3.8,2.5-4.18,4.75-4.03,24.14-5.1,30.09-5.36,31.35-.14.46-.22.94-.25,1.44-.16,3.11,2.08,5.82,5.16,6.25l11.44,1.59c.28.04.56.06.83.06,2.84,0,5.35-2.02,5.89-4.89.07-.39.15-.78.22-1.17,3.25,2.25,5.98,4.2,8.15,5.82.02.01.04.03.06.04,1.78,1.3,2.7,2.07,3.16,2.48,1.12,1.01,2.56,1.54,4.02,1.54.66,0,1.32-.11,1.97-.33,2.07-.72,3.58-2.5,3.95-4.66,3.07-17.98,4.88-28.37,5.38-30.9.63-3.21-1.42-6.33-4.62-7.02l-11.72-2.53c-.42-.09-.84-.13-1.27-.13-1.21,0-2.39.36-3.4,1.06-1.36.94-2.28,2.4-2.53,4.03-.1.66-.2,1.31-.3,1.97-.16-.13-.32-.27-.48-.4-7.19-5.97-9.35-8.02-10-8.71-1.15-1.23-2.74-1.89-4.37-1.89h0Z"/>
      </g>
    </g>
  </g>
  <g id="play_again" data-name="play again">
    <g>
      <path class="cls-1" d="m12.56,43.83s-2.14-11.8-6.42-35.29c8.01-1.45,13.82-2.16,17.44-2.12,7.66.08,11.96,2.67,12.9,7.78.08.59.12,1.18.12,1.77,0,3.22-1.39,6.3-4.18,9.25-2.94,3.14-7.02,5.64-12.24,7.48l.36,2c.79,4.32,1.28,6.81,1.48,7.48l-9.46,1.66Zm6.66-22.62c3.69-.43,5.53-1.67,5.53-3.71.04-1.73-1.25-2.59-3.88-2.59-.84,0-1.79.1-2.86.3l1.21,6Z"/>
      <path class="cls-1" d="m66.82,40.94l-21.86,2.77s-.74-5.83-2.1-17.61c-1.35-11.98-2.04-18.15-2.08-18.5l10.88-1.3c0,.08.94,8.23,2.83,24.45,6.53-.82,9.8-1.25,9.8-1.29l2.52,11.49Z"/>
      <path class="cls-1" d="m70.06,40.93c.12-.55,3.57-6.43,10.37-17.64,3.46-5.66,6.91-11.33,10.37-16.99h.41c.43.63,4.07,6.44,10.9,17.44,6.83,11,10.39,16.77,10.66,17.32l-9.15,2.77c-.79-1.09-1.55-2.16-2.3-3.21-1.61-2.26-2.52-3.54-2.71-3.86h-14.1c-.23.47-.95,1.73-2.13,3.77-1.19,2.04-1.84,3.14-1.96,3.3l-10.36-2.89Zm25.8-11.83c-1.5-2.44-3.01-4.94-4.51-7.49,0,.04-.67,1.29-2.01,3.75-1.34,2.46-2.01,3.71-2.01,3.75h8.53Z"/>
      <path class="cls-1" d="m123.91,42.18c.2-1.33.65-4.6,1.35-9.78.04-.35-1.65-3.75-5.07-10.19-3.42-6.32-5.22-9.56-5.42-9.72l9.37-6.19c.08.2,2.95,5.42,8.6,15.67.12-.35,2.22-2.49,6.3-6.42,4.08-3.93,6.34-5.99,6.78-6.19l8.25,7.88c-.24.16-3.14,2.88-8.72,8.18-5.58,5.29-8.37,8-8.37,8.12-.98,6.23-1.49,9.67-1.53,10.29l-11.55-1.65Z"/>
      <path class="cls-1" d="m184.76,40.93c.12-.55,3.57-6.43,10.37-17.64,3.46-5.66,6.91-11.33,10.37-16.99h.41c.43.63,4.07,6.44,10.9,17.44,6.83,11,10.39,16.77,10.66,17.32l-9.15,2.77c-.79-1.09-1.55-2.16-2.3-3.21-1.61-2.26-2.52-3.54-2.71-3.86h-14.1c-.23.47-.95,1.73-2.13,3.77-1.19,2.04-1.84,3.14-1.96,3.3l-10.36-2.89Zm25.8-11.83c-1.5-2.44-3.01-4.94-4.51-7.49,0,.04-.67,1.29-2.01,3.75-1.34,2.46-2.01,3.71-2.01,3.75h8.54Z"/>
      <path class="cls-1" d="m262.06,38.11c-3.46,3.89-8.11,5.87-13.96,5.95-4.91.04-8.96-1.22-12.14-3.77-3.42-2.75-5.46-6.75-6.13-12.02-.08-.75-.12-1.51-.12-2.3,0-5.15,1.84-9.67,5.51-13.58,3.67-3.91,7.96-5.86,12.87-5.86,4.01,0,7.74,1.43,11.19,4.3.16.12-.93,1.44-3.27,3.98-2.34,2.53-3.6,3.76-3.8,3.68-1.02-.43-2.02-.65-3-.65-2.2,0-4.07.98-5.6,2.95-1.38,1.77-2.02,3.56-1.94,5.36.04,2.24.68,4.02,1.92,5.33,1.24,1.32,2.97,1.97,5.21,1.97.59,0,1.2-.04,1.83-.12,2.16-.31,3.48-1.41,3.95-3.3-3.65-2.4-5.64-3.65-5.95-3.77l15.61-5.71c.16.94.31,1.89.47,2.83.27,1.81.41,3.48.41,5.01,0,4.16-1.02,7.4-3.06,9.72Z"/>
      <path class="cls-1" d="m269.31,40.93c.12-.55,3.57-6.43,10.37-17.64,3.46-5.66,6.91-11.33,10.37-16.99h.41c.43.63,4.07,6.44,10.9,17.44,6.83,11,10.39,16.77,10.66,17.32l-9.15,2.77c-.79-1.09-1.55-2.16-2.3-3.21-1.61-2.26-2.52-3.54-2.71-3.86h-14.1c-.23.47-.95,1.73-2.13,3.77-1.19,2.04-1.84,3.14-1.96,3.3l-10.36-2.89Zm25.8-11.83c-1.5-2.44-3.01-4.94-4.51-7.49,0,.04-.67,1.29-2.01,3.75-1.34,2.46-2.01,3.71-2.01,3.75h8.54Z"/>
      <path class="cls-1" d="m314.14,43.06c.24-1.06,1.06-7.29,2.47-18.68,1.37-11.15,2.08-17.1,2.12-17.85l15.85.94c-.12.47-.91,6.52-2.39,18.15-1.47,11.63-2.23,17.75-2.27,18.38l-15.79-.94Z"/>
      <path class="cls-1" d="m338.47,38.41c.12.04,1.96-10.66,5.54-32.11,1.33,1.42,4.85,4.49,10.55,9.22,5.42,4.49,8.31,6.98,8.66,7.45.59-4.12,1.22-8.37,1.89-12.73l11.72,2.53c-.51,2.59-2.31,12.94-5.41,31.05-.82-.74-2.04-1.7-3.65-2.87-3.76-2.81-9.05-6.51-15.87-11.08-.6,2.91-1.26,6.28-1.99,10.13l-11.44-1.59Z"/>
    </g>
  </g>
</svg>