<?xml version="1.0" encoding="UTF-8"?>
<svg xmlns="http://www.w3.org/2000/svg" viewBox="0 0 173.23 67.66">
  <defs>
    <style>
      .cls-1 {
        fill: #fff;
      }

      .cls-2 {
        stroke: #000;
        stroke-linejoin: round;
        stroke-width: 6px;
      }
    </style>
  </defs>
  <g id="outline">
    <g>
      <g>
        <path d="m26.59,57.08c-.78,0-1.54-.31-2.1-.86-.5-.49-.81-1.14-.88-1.83-.03-.23-.2-1.27-.89-5.48-.27-1.66-.47-2.77-.61-3.52-.04,0-.08-.02-.13-.03-.15.63-.33,1.37-.55,2.26-.93,3.83-1.14,4.76-1.18,4.98-.1.75-.49,1.43-1.08,1.91-.54.44-1.21.67-1.89.67-.21,0-.42-.02-.62-.07l-10.84-2.3c-.91-.19-1.68-.79-2.08-1.63-.37-.77-.4-1.66-.07-2.45.19-.6.96-3.56,3.85-16.25,2.98-12.92,3.57-15.74,3.66-16.24.1-.81.52-1.56,1.19-2.05.52-.39,1.15-.6,1.79-.6.2,0,.41.02.61.06l9.07,1.88c4.07.86,6.91,1.59,8.71,2.23,3.36,1.09,6.16,2.67,8.23,4.67,2.35,2.27,3.54,4.86,3.54,7.7,0,.95-.14,1.91-.42,2.85-.56,2-1.64,3.77-3.18,5.23-.73.76-1.63,1.46-2.73,2.1.47,1.86,1.42,5.55,3.29,12.75.23.89.04,1.83-.51,2.57-.55.73-1.41,1.17-2.33,1.19,0,0-11.82.24-11.84.24Zm10.92-18.69h0Z"/>
        <path d="m14.16,16.61c3.02.63,6.05,1.26,9.07,1.89,3.89.82,6.66,1.53,8.31,2.12,3.02.98,5.41,2.32,7.16,4.01,1.75,1.69,2.62,3.54,2.62,5.54,0,.67-.1,1.34-.29,2-.43,1.53-1.24,2.85-2.42,3.95-.67.71-1.59,1.38-2.77,2-.86.51-1.28.85-1.24,1,.08.43,1.33,5.34,3.77,14.73l-11.78.24c0-.08-.3-1.96-.91-5.66-.61-3.69-.97-5.54-1.09-5.54-.79-.2-1.57-.37-2.36-.53-.79-.16-1.55-.31-2.3-.47l-.18-.12s-.41,1.76-1.24,5.16c-.83,3.4-1.24,5.15-1.24,5.27l-10.84-2.3c.24-.47,1.57-6.05,4.01-16.73,2.44-10.57,3.67-16.08,3.71-16.56m11.43,15.49c1.89,0,2.95-.47,3.18-1.41.08-.31.12-.61.12-.88,0-1.77-1.89-3.08-5.66-3.95-.71,3.18-1.12,4.87-1.24,5.07v.71c1.22.31,2.42.47,3.59.47M14.16,10.61c-1.28,0-2.54.41-3.59,1.19-1.29.96-2.14,2.41-2.36,3.99-.1.56-.67,3.25-3.61,16.02-2.82,12.38-3.57,15.28-3.77,15.95-.58,1.53-.51,3.24.21,4.73.81,1.67,2.34,2.88,4.16,3.26l10.84,2.3c.41.09.83.13,1.24.13,1.36,0,2.7-.46,3.78-1.34.05-.04.1-.08.15-.13.3.6.69,1.16,1.18,1.64,1.12,1.1,2.63,1.72,4.2,1.72.04,0,.08,0,.12,0l11.78-.24c1.84-.04,3.55-.91,4.66-2.38,1.11-1.46,1.49-3.35,1.03-5.13-1.35-5.21-2.21-8.56-2.76-10.7.51-.4.99-.82,1.42-1.27,1.91-1.82,3.24-4.02,3.95-6.55.35-1.21.53-2.44.53-3.66,0-2.53-.77-6.29-4.45-9.85-2.39-2.31-5.55-4.11-9.39-5.37-1.92-.68-4.87-1.43-9-2.31l-6.46-1.34-2.63-.55c-.4-.08-.81-.13-1.22-.13h0Z"/>
      </g>
      <g>
        <path d="m63.76,57.38c-6.36,0-11.61-1.99-15.6-5.92-3.84-3.83-5.78-8.74-5.78-14.61s2.1-11.34,6.24-15.71c4.55-4.76,10.5-7.17,17.68-7.17,6.32,0,11.52,1.83,15.46,5.44,4.09,3.85,6.15,9.1,6.15,15.62,0,5.29-1.8,10.11-5.35,14.34-4.47,5.32-10.79,8.01-18.8,8.01Zm2.12-25.51c-.82,0-1.55.27-2.29.84-.76.63-1.13,1.47-1.13,2.67,0,.93.34,1.59,1.12,2.19.65.49,1.22.73,1.77.73.8,0,1.5-.24,2.22-.74.51-.38,1.18-1.11,1.21-2.88,0-1.33-.48-1.87-.95-2.22-.56-.4-1.19-.59-1.95-.59Z"/>
        <path d="m66.3,16.97c5.57,0,10.05,1.55,13.43,4.65,3.45,3.25,5.18,7.72,5.18,13.41,0,4.59-1.55,8.72-4.65,12.41-3.89,4.63-9.39,6.94-16.5,6.94-5.57,0-10.07-1.69-13.49-5.06-3.26-3.25-4.89-7.41-4.89-12.47s1.81-9.84,5.42-13.65c3.97-4.15,9.13-6.23,15.5-6.23m-.95,24.33c1.42,0,2.73-.43,3.95-1.29,1.61-1.21,2.44-2.97,2.48-5.28,0-2.07-.73-3.63-2.18-4.69-1.1-.78-2.34-1.17-3.72-1.17-1.49,0-2.86.49-4.12,1.46-1.53,1.26-2.3,2.94-2.3,5.05,0,1.87.77,3.4,2.3,4.57,1.18.9,2.38,1.35,3.59,1.35m.95-30.33c-8.03,0-14.71,2.72-19.84,8.08-4.71,4.97-7.08,10.95-7.08,17.8s2.24,12.32,6.65,16.72c4.59,4.53,10.55,6.81,17.73,6.81,8.93,0,16.03-3.06,21.09-9.08,4.02-4.78,6.06-10.26,6.06-16.27,0-7.38-2.38-13.36-7.07-17.78-.02-.02-.04-.04-.06-.05-4.51-4.13-10.39-6.23-17.49-6.23h0Zm-.79,24.05c.12-.08.2-.12.26-.14-.01.15-.04.25-.05.31-.07.04-.13.07-.18.08-.02-.01-.04-.03-.07-.05,0-.11.02-.17.03-.2,0,0,0,0,.02-.01h0Z"/>
      </g>
      <g>
        <path d="m65.35,44.3c-1.88,0-3.7-.66-5.41-1.96-2.28-1.74-3.48-4.15-3.48-6.96,0-2.99,1.17-5.54,3.39-7.37,1.87-1.44,3.87-2.14,6.03-2.14,2.01,0,3.84.58,5.45,1.72,1.59,1.16,3.45,3.32,3.45,7.14-.06,3.27-1.33,5.91-3.68,7.68-1.8,1.27-3.72,1.89-5.75,1.89Z"/>
        <path d="m65.88,28.87c1.38,0,2.62.39,3.72,1.17,1.45,1.06,2.18,2.62,2.18,4.69-.04,2.31-.87,4.07-2.48,5.28-1.22.86-2.53,1.29-3.95,1.29-1.21,0-2.41-.45-3.59-1.35-1.53-1.17-2.3-2.7-2.3-4.57,0-2.11.77-3.79,2.3-5.05,1.26-.97,2.63-1.46,4.12-1.46m0-6c-2.79,0-5.48.94-7.78,2.71-.05.04-.1.08-.15.12-2.93,2.42-4.49,5.76-4.49,9.68s1.65,7.04,4.66,9.34c2.25,1.72,4.68,2.58,7.23,2.58s5.16-.8,7.41-2.39c.05-.04.1-.07.15-.11,2.17-1.63,4.78-4.69,4.87-9.97,0-.03,0-.07,0-.1,0-3.96-1.65-7.35-4.64-9.53-.02-.02-.05-.03-.07-.05-2.13-1.51-4.55-2.28-7.19-2.28h0Z"/>
      </g>
      <g>
        <path d="m109.13,57.38c-7.93,0-14.08-2.92-18.27-8.67-3.22-4.5-4.62-9.25-4.16-14.14.56-5.37,3.07-9.95,7.48-13.64,5.55-4.69,13.55-7.07,23.78-7.07,1.73,0,3.52.08,5.34.25,1.19.11,2.2.91,2.58,2.04.4,1.19.64,1.91-3.82,13.35-.45,1.15-1.56,1.91-2.79,1.91h-2c-3.31,0-5.91.6-7.72,1.79-1.77,1.16-1.77,2.13-1.77,2.54,0,.32.07.63.21.95.17.37.76,1.63,4.27,1.63,1.22-.03,2.94-.41,5.03-1.13,1.39-.53,2.86-1.06,4.34-1.58.33-.12.66-.17,1-.17,1.11,0,2.17.62,2.69,1.66l5.77,11.61c.37.74.41,1.6.13,2.38-.29.78-.88,1.4-1.64,1.72-4.56,1.93-9.61,3.35-15.02,4.21-1.87.26-3.68.39-5.42.39Z"/>
        <path d="m117.97,16.85c1.65,0,3.34.08,5.07.24.2.59-1.06,4.36-3.77,11.31h-2c-3.93,0-7.05.76-9.37,2.29-2.08,1.37-3.12,3.05-3.12,5.04,0,.74.16,1.47.47,2.17,1.06,2.27,3.4,3.4,7.01,3.4,1.61-.04,3.61-.47,6.01-1.3,1.45-.55,2.91-1.08,4.36-1.59l5.77,11.61c-4.36,1.85-9.13,3.18-14.32,4.01-1.69.24-3.34.35-4.95.35-6.95,0-12.24-2.48-15.85-7.44-2.79-3.89-3.99-7.93-3.59-12.1.47-4.56,2.61-8.44,6.42-11.62,5.03-4.25,12.31-6.37,21.86-6.37m0-6c-10.96,0-19.61,2.62-25.73,7.79-5.01,4.19-7.88,9.44-8.52,15.59,0,.02,0,.04,0,.05-.53,5.63,1.05,11.07,4.69,16.15,4.75,6.52,11.91,9.94,20.73,9.94,1.88,0,3.82-.14,5.78-.41.04,0,.08-.01.11-.02,5.64-.9,10.93-2.38,15.71-4.41,1.52-.65,2.71-1.89,3.29-3.44.57-1.55.48-3.27-.26-4.75l-5.77-11.61c-.88-1.77-2.52-2.92-4.35-3.24.51-.55.93-1.2,1.21-1.92,4.41-11.3,4.67-13,3.87-15.39-.75-2.26-2.78-3.86-5.15-4.08-1.91-.17-3.79-.26-5.61-.26h0Zm-6.04,24.45c1.04-.47,2.43-.77,4.08-.86-2.09.7-3.28.85-3.84.87-.09,0-.17,0-.25,0h0Z"/>
      </g>
      <g>
        <path d="m134.05,57.38c-.75,0-1.47-.28-2.03-.79-.62-.57-.97-1.37-.97-2.21h0c0-.44-.16-3.33-1.2-17.69-1-13.82-1.29-16.53-1.37-17.04-.19-.83-.02-1.71.48-2.41.53-.74,1.36-1.21,2.27-1.26l12.08-.71c.06,0,.12,0,.18,0,.95,0,1.85.45,2.41,1.22.49.67.68,1.51.54,2.31,0,.31,0,1.31.21,4.45,2.84-3.8,4.92-6.54,6.2-8.18.54-.69,1.34-1.11,2.21-1.15.05,0,.1,0,.16,0,.81,0,1.6.33,2.17.92l8.31,8.66c1.09,1.14,1.12,2.94.05,4.1-1.98,2.16-3.68,4.01-5.11,5.56,3.2,3.36,6.05,6.29,8.49,8.74,1.16,1.16,1.17,3.03.04,4.2l-8.13,8.42c-.57.59-1.35.92-2.16.92-.07,0-.15,0-.23,0-.89-.07-1.7-.53-2.22-1.26-.32-.45-1.27-1.63-4.04-4.39-.93-.96-1.76-1.81-2.5-2.53l-1.75,1.88c.02.39.06.9.11,1.58.09,1.24.14,1.76.16,1.96.04.18.07.37.08.57.07,1.6-1.14,2.98-2.74,3.12l-11.43,1c-.09,0-.17.01-.26.01Z"/>
        <path d="m155.2,16.91l8.31,8.66c-2.95,3.22-5.28,5.75-7.01,7.6,4.04,4.28,7.54,7.89,10.49,10.84l-8.13,8.42c-.67-.94-2.12-2.53-4.36-4.77-2-2.08-3.59-3.63-4.77-4.65l-4.65,5.01c0,.31.06,1.29.18,2.92.12,1.63.2,2.45.24,2.45l-11.43,1c0-.82-.4-6.79-1.21-17.91-.8-11.11-1.29-16.95-1.44-17.5l12.08-.71c-.12.31-.02,2.65.29,7.01.12,2.12.24,4.22.35,6.3v.06c5.46-7.34,9.15-12.25,11.08-14.73m0-6c-.1,0-.21,0-.31,0-1.74.09-3.36.93-4.43,2.31-.46.6-1.03,1.33-1.7,2.21-.13-.25-.29-.5-.46-.73-1.13-1.54-2.93-2.44-4.83-2.44-.12,0-.23,0-.35.01l-12.08.71c-1.82.11-3.49,1.03-4.54,2.52-.96,1.36-1.32,3.05-.99,4.67.09.67.39,3.65,1.34,16.73,1.01,14,1.18,16.98,1.19,17.52,0,1.68.71,3.27,1.95,4.4,1.11,1.01,2.55,1.56,4.04,1.56.18,0,.36,0,.54-.02l11.43-1c3.19-.28,5.6-3.01,5.47-6.21,1.79,1.84,2.35,2.56,2.49,2.76,1.03,1.46,2.66,2.38,4.44,2.51.15.01.3.02.45.02,1.62,0,3.18-.66,4.32-1.83l8.13-8.42c2.27-2.35,2.24-6.09-.07-8.41-1.92-1.92-4.1-4.15-6.5-6.65.98-1.06,2.05-2.23,3.21-3.5,2.13-2.33,2.09-5.92-.1-8.2l-8.31-8.66c-1.13-1.18-2.7-1.85-4.33-1.85h0Z"/>
      </g>
    </g>
    <polygon class="cls-2" points="117.51 33.74 116.34 36.94 111.64 36.94 110.36 34.49 113.13 32.11 116.34 32.11 117.51 33.74"/>
  </g>
  <g id="rock">
    <g>
      <path class="cls-1" d="m19.76,41.77s-.41,1.76-1.24,5.16c-.83,3.4-1.24,5.15-1.24,5.27l-10.84-2.3c.24-.47,1.57-6.05,4.01-16.73,2.44-10.57,3.67-16.08,3.71-16.56,3.02.63,6.05,1.26,9.07,1.89,3.89.82,6.66,1.53,8.31,2.12,3.02.98,5.41,2.32,7.16,4.01,1.75,1.69,2.62,3.54,2.62,5.54,0,.67-.1,1.34-.29,2-.43,1.53-1.24,2.85-2.42,3.95-.67.71-1.59,1.38-2.77,2-.86.51-1.28.85-1.24,1,.08.43,1.33,5.34,3.77,14.73l-11.78.24c0-.08-.3-1.96-.91-5.66-.61-3.69-.97-5.54-1.09-5.54-.79-.2-1.57-.37-2.36-.53-.79-.16-1.55-.31-2.3-.47l-.18-.12Zm2.24-10.13c1.22.31,2.42.47,3.59.47,1.89,0,2.95-.47,3.18-1.41.08-.31.12-.61.12-.88,0-1.77-1.89-3.08-5.66-3.95-.71,3.18-1.12,4.87-1.24,5.07v.71Z"/>
      <path class="cls-1" d="m66.3,16.96c5.58,0,10.05,1.55,13.43,4.65,3.46,3.25,5.18,7.73,5.18,13.41,0,4.59-1.55,8.73-4.65,12.41-3.89,4.63-9.39,6.94-16.5,6.94-5.58,0-10.07-1.69-13.49-5.06-3.26-3.25-4.89-7.41-4.89-12.47s1.81-9.84,5.42-13.65c3.97-4.16,9.13-6.23,15.49-6.23Zm-.94,24.33c1.41,0,2.73-.43,3.95-1.29,1.61-1.21,2.43-2.97,2.47-5.28,0-2.07-.73-3.64-2.18-4.69-1.1-.78-2.34-1.17-3.71-1.17-1.49,0-2.87.49-4.12,1.47-1.53,1.25-2.3,2.93-2.3,5.04,0,1.88.77,3.4,2.3,4.57,1.18.9,2.38,1.35,3.59,1.35Z"/>
      <path class="cls-1" d="m128.4,50.02c-4.36,1.85-9.13,3.18-14.32,4.01-1.69.24-3.34.35-4.95.35-6.95,0-12.24-2.48-15.85-7.44-2.79-3.89-3.99-7.93-3.59-12.1.47-4.56,2.61-8.44,6.42-11.62,5.03-4.25,12.31-6.37,21.86-6.37,1.65,0,3.34.08,5.07.24.2.59-1.06,4.36-3.77,11.31h-2c-3.93,0-7.05.76-9.37,2.29-2.08,1.37-3.12,3.05-3.12,5.04,0,.74.16,1.47.47,2.17,1.06,2.27,3.4,3.4,7.01,3.4,1.61-.04,3.61-.47,6.01-1.3,1.45-.55,2.91-1.08,4.36-1.59l5.77,11.61Z"/>
      <path class="cls-1" d="m166.99,44.01l-8.13,8.42c-.67-.94-2.12-2.53-4.36-4.77-2-2.08-3.59-3.63-4.77-4.65l-4.65,5.01c0,.31.06,1.29.18,2.92.12,1.63.2,2.45.24,2.45l-11.43,1c0-.82-.4-6.79-1.21-17.91-.8-11.11-1.29-16.95-1.44-17.5l12.08-.71c-.12.31-.02,2.65.29,7.01.12,2.12.24,4.22.35,6.3v.06c5.46-7.34,9.15-12.25,11.08-14.73l8.31,8.66c-2.95,3.22-5.28,5.75-7.01,7.6,4.04,4.28,7.54,7.89,10.49,10.84Z"/>
    </g>
  </g>
</svg>