<?xml version="1.0" encoding="UTF-8"?>
<svg xmlns="http://www.w3.org/2000/svg" viewBox="0 0 1000 562.93">
  <defs>
    <style>
      .cls-1 {
        fill: #ea2f2f;
      }

      .cls-2 {
        fill: #231010;
      }
    </style>
  </defs>
  <g id="OUTLINE">
    <path class="cls-2" d="m981.03,431.8c-1.9-6.68-3.1-11.88-3.85-15.89l.62-.52,22.2,18.1-5.68-40.4c-.04-1.23-.21-2.44-.51-3.61l-7.12-50.64-9.6-3.4c-9.84-3.48-19.14-5.24-27.67-5.24-7.53,0-14.62,1.36-21.07,4.05-5.64,2.35-11.15,5.65-16.36,9.8l-.12.1-.12.1c-6.66,5.52-11.85,11.85-15.53,18.94-9.2-7.91-21-14.24-35.14-18.86-3.81-1.35-8.6-2.78-14.47-4.31-7.42-28.6-11.52-44.58-13.77-53.41,4.21-2.67,7.76-5.52,10.76-8.63,7.31-6.93,12.39-15.33,15.13-24.97,1.31-4.49,1.98-9.08,1.98-13.63,0-13.66-5.68-26.07-16.88-36.9-9.61-9.28-22.51-16.61-38.34-21.78-8.19-2.9-21.01-6.19-39.18-10.04l-.07-.02c-13.54-2.81-27.07-5.62-40.61-8.44l-10.64-2.21,12.62-13.07-11.66-11.66c-10.39-10.39-22.42-22.75-35.87-36.86,5.99-6.48,12.95-14.05,20.8-22.64l10.6-11.6L649.93,0l-11.92,15.32c-4.89,6.29-12.38,16.15-22.38,29.48-.29-5.22-.37-8.02-.38-9.48l8.19-21.88-74.23,4.34-2.36-7.09-10.94-.99c-8.25-.74-16.4-1.12-24.23-1.12-22.89,0-43.51,2.63-61.29,7.82-18.51,5.4-34.49,13.7-47.51,24.69-4.73,3.96-9,8.15-12.78,12.54-4.14-7.03-9.25-13.41-15.31-19.13l-.16-.15c-18.27-16.75-42.35-25.24-71.57-25.24-33.16,0-60.62,11.15-81.61,33.15l-.03.03c-2.01,2.12-3.92,4.28-5.72,6.49,0,0,0,0,0,0-.21-.21-.42-.41-.63-.62-9.61-9.28-22.51-16.61-38.34-21.78-8.19-2.9-21.01-6.19-39.17-10.04l-.07-.02c-13.54-2.81-27.07-5.62-40.61-8.44l-18.61-3.87-1.54,18.36c-.5,2.81-3.38,16.26-16.32,72.39v.04c-12.7,55.66-16.15,69.03-17.09,72.18l-9.24,18.48,90.08,19.1v-19.09c.4-1.79,1.43-6.23,4.09-17.22.08.46.16.94.24,1.42,2.65,16.1,3.57,21.83,3.87,23.79v15.96l49.3-.99s0,0,0,0c8.08,44.35,17.66,96.91,23.16,127.2-7.21,1.2-14.06,2.76-20.54,4.64-2.91.85-5.77,1.77-8.55,2.77h0l11.04-42.33-7.56-6.83c-14.58-13.17-29.56-19.84-44.53-19.84-6.11,0-12.46.93-18.87,2.76l-.15.04-.15.05c-14.94,4.58-26.47,13.46-34.28,26.39l-.02.04c-5.45,9.09-9.03,20.23-10.95,34.07l-.04.31-.03.31c-.88,8.74-1.75,17.47-2.62,26.2-2,15.71-4.23,22.15-5.38,24.6l-.08.18-.08.18c-2.18,4.93-4.56,5.68-7.03,6.06-1.42.22-3.04.33-4.83.33-4.23,0-9.16-.8-14.66-2.38h-.05c-3.54-1.02-7.04-2.12-10.41-3.29L0,381.17l8.36,78.37c.29,2.77,1.25,5.47,2.86,7.81,4.57,6.68,11.75,7.51,14.81,7.86,2.14.25,5.01.46,8.76.64h.18c3.24.13,6.81.19,10.62.19,7.44,0,16.12-.24,25.81-.72,12.72-.38,24.52-3.51,35.19-9.3,3.27,9.52,8.16,18.85,14.66,27.92l.08.11c9.74,13.37,21.97,23.57,36.35,30.31,14.04,6.58,30.28,9.92,48.27,9.92,7.96,0,16.2-.59,24.51-1.75l.16-.02.16-.03c24.49-3.9,47.4-10.32,68.1-19.08l12.72-5.39,39.76,2.37.32,1.13c.63,2.55,1.85,4.96,3.61,7,3.46,4.02,8.24,6.06,14.21,6.06,2.44,0,5.88-.29,11.17-.94l.18-.02c9.48-1.27,21.52-3.54,35.81-6.74,8.98-1.84,17.25-4.99,24.73-9.43.43,2.77,1.56,5.41,3.34,7.71,5.46,7.07,13.3,7.07,20.21,7.07,1.18,0,2.52-.01,3.97-.04h.18c9.56-.27,21.77-1.26,36.32-2.95,15.62-1.51,29.56-7.09,41.46-16.58l.13-.1c9.83-8,16.55-16.91,19.99-26.49,4.38,13.53,11.75,25.51,22.06,35.8l.07.07c18.5,18.26,42.82,27.52,72.28,27.52,33.7,0,60.98-10.41,81.2-30.94l65.94,13.98v-19.09c.4-1.79,1.43-6.23,4.09-17.22.07.46.15.94.24,1.42,2.65,16.1,3.57,21.83,3.87,23.79v15.96l51.21-1.03,14.7,26.84c2.72,5.83,8.64,9.74,15.57,9.74,3.5,0,6.99-.89,15.58-3.98l.17-.06c8.96-3.33,20.2-8.21,33.43-14.5,14.29-6.47,25.7-16.24,33.9-29.06l.09-.14c6.8-10.86,10.29-21.57,10.39-31.85.06-6.12-1.11-17.5-10.67-51.48v-.05Z"/>
  </g>
  <g id="ROCK">
    <path class="cls-1" d="m118.49,137.1c0,.18-1.85,7.88-5.56,23.11-3.71,15.23-5.56,23.11-5.56,23.64l-48.59-10.3c1.06-2.11,7.04-27.12,17.96-75.02,10.92-47.37,16.46-72.11,16.64-74.23,13.56,2.82,27.12,5.64,40.68,8.45,17.43,3.7,29.85,6.87,37.25,9.51,13.56,4.4,24.26,10.39,32.1,17.96,7.83,7.57,11.75,15.85,11.75,24.83,0,3-.44,5.99-1.32,8.98-1.94,6.87-5.55,12.77-10.83,17.7-3,3.17-7.13,6.17-12.42,8.98-3.88,2.29-5.72,3.79-5.55,4.49.35,1.94,5.98,23.95,16.91,66.04l-52.83,1.06c0-.35-1.37-8.8-4.09-25.36-2.73-16.55-4.36-24.83-4.89-24.83-3.52-.88-7.05-1.67-10.57-2.38-3.52-.7-6.96-1.41-10.3-2.11l-.79-.53Zm10.03-45.43c5.46,1.41,10.83,2.11,16.11,2.11,8.45,0,13.21-2.11,14.26-6.34.35-1.41.53-2.73.53-3.96,0-7.92-8.45-13.82-25.36-17.7-3.17,14.26-5.02,21.84-5.55,22.72v3.17Z"/>
    <path class="cls-1" d="m303.05,25.89c25,0,45.08,6.95,60.23,20.84,15.49,14.59,23.25,34.64,23.25,60.13,0,20.57-6.96,39.12-20.87,55.65-17.43,20.75-42.09,31.12-73.96,31.12-25.01,0-45.17-7.56-60.49-22.68-14.62-14.59-21.92-33.23-21.92-55.91s8.1-44.13,24.3-61.19c17.79-18.64,40.94-27.96,69.47-27.96Zm-4.23,109.1c6.34,0,12.24-1.93,17.7-5.78,7.22-5.43,10.92-13.32,11.09-23.66,0-9.29-3.26-16.3-9.77-21.03-4.93-3.5-10.48-5.26-16.64-5.26-6.69,0-12.86,2.19-18.49,6.57-6.87,5.61-10.3,13.15-10.3,22.61,0,8.42,3.43,15.25,10.3,20.51,5.28,4.03,10.65,6.05,16.11,6.05Z"/>
    <path class="cls-1" d="m558.44,174.08c-19.55,8.28-40.94,14.26-64.19,17.96-7.57,1.06-14.97,1.58-22.19,1.58-31.17,0-54.86-11.11-71.06-33.34-12.51-17.46-17.88-35.54-16.11-54.23,2.11-20.46,11.71-37.83,28.79-52.12,22.54-19.05,55.21-28.57,98-28.57,7.4,0,14.97.35,22.72,1.06.88,2.64-4.75,19.55-16.91,50.72h-8.98c-17.61,0-31.61,3.42-42,10.26-9.34,6.13-14,13.67-14,22.61,0,3.33.7,6.58,2.11,9.73,4.75,10.17,15.23,15.25,31.43,15.25,7.22-.17,16.2-2.11,26.94-5.81,6.51-2.46,13.03-4.84,19.55-7.13l25.89,52.04Z"/>
    <path class="cls-1" d="m704.08,147.14l-36.45,37.77c-3-4.23-9.51-11.36-19.55-21.4-8.98-9.33-16.11-16.29-21.4-20.87l-20.87,22.45c.19,4.25.45,8.61.79,13.08.29,3.81.63,7.54,1.01,11.17-17.07,1.43-34.13,2.85-51.2,4.28,0-3.7-1.81-30.46-5.41-80.3-3.61-49.83-5.77-75.99-6.47-78.45l54.15-3.17c-.53,1.41-.09,11.89,1.32,31.43.53,9.51,1.06,18.93,1.58,28.26v.26c24.48-32.93,41.03-54.94,49.66-66.04l37.25,38.83c-13.21,14.44-23.69,25.8-31.43,34.08,18.14,19.2,33.81,35.4,47.02,48.6Z"/>
  </g>
  <g id="PAPER">
    <path class="cls-1" d="m225.87,357.73c0-.17-9.6-52.92-28.79-158.23,35.93-6.51,61.99-9.68,78.19-9.51,34.34.35,53.62,11.97,57.85,34.86.35,2.64.53,5.28.53,7.92,0,14.44-6.25,28.26-18.74,41.47-13.2,14.09-31.5,25.27-54.9,33.54l1.63,8.97c3.54,19.37,5.75,30.55,6.64,33.54l-42.41,7.42Zm29.87-101.44c16.54-1.94,24.81-7.48,24.81-16.64.17-7.75-5.63-11.62-17.4-11.62-3.75,0-8.03.45-12.84,1.35l5.43,26.91Z"/>
    <path class="cls-1" d="m291.18,317.27c.53-2.47,16.02-28.83,46.49-79.1,15.49-25.4,30.99-50.79,46.49-76.19h1.86c1.94,2.83,18.23,28.89,48.87,78.19,30.64,49.31,46.58,75.19,47.81,77.66l-41.01,12.42c-3.52-4.89-6.96-9.69-10.31-14.41-7.23-10.13-11.29-15.89-12.17-17.29h-63.22c-1.05,2.11-4.24,7.75-9.57,16.9-5.33,9.15-8.26,14.08-8.78,14.78l-46.44-12.96Zm115.66-53.06c-6.74-10.93-13.48-22.13-20.22-33.6,0,.18-3.01,5.78-9.02,16.8-6.02,11.02-9.02,16.63-9.02,16.8h38.27Z"/>
    <path class="cls-1" d="m485.63,355.06c0-.17-9.6-52.92-28.79-158.23,35.93-6.51,61.99-9.68,78.19-9.51,34.34.35,53.62,11.97,57.85,34.86.35,2.64.53,5.28.53,7.92,0,14.44-6.25,28.26-18.74,41.47-13.2,14.09-31.5,25.27-54.9,33.54l1.63,8.97c3.54,19.37,5.75,30.55,6.64,33.54l-42.41,7.42Zm29.87-101.44c16.54-1.94,24.81-7.48,24.81-16.64.17-7.75-5.63-11.62-17.4-11.62-3.75,0-8.03.45-12.84,1.35l5.43,26.92Z"/>
    <path class="cls-1" d="m693.08,356.82c-24.38-1.55-44.25-2.79-58.1-3.65-23.77-1.48-51.53-3.18-51.52-3.43,0,0,0,0,0,0,3.7-53.71,7.48-107.42,11.36-161.14,35.22,1.94,70.7,3.79,106.46,5.55l-2.38,36.72c-15.32-1.41-30.91-2.73-46.76-3.96l-.79,15.59c9.51,1.06,20.78,1.76,33.81,2.11l-4.49,58.11c-2.29-.17-7.97-.57-17.04-1.19-9.07-.62-14.57-.92-16.51-.92l-1.85,21.66c32.76,2.29,49.4,3.43,49.93,3.43-.71,10.37-1.42,20.75-2.13,31.12Z"/>
    <path class="cls-1" d="m747.25,291.42c0,.18-1.85,7.88-5.56,23.11-3.71,15.23-5.56,23.11-5.56,23.64l-48.59-10.3c1.06-2.11,7.04-27.12,17.96-75.02,10.92-47.37,16.46-72.11,16.64-74.23,13.56,2.82,27.12,5.64,40.68,8.45,17.43,3.7,29.85,6.87,37.25,9.51,13.56,4.4,24.26,10.39,32.1,17.96,7.83,7.57,11.75,15.85,11.75,24.83,0,3-.44,5.99-1.32,8.98-1.94,6.87-5.55,12.77-10.83,17.7-3,3.17-7.13,6.17-12.42,8.98-3.88,2.29-5.72,3.79-5.55,4.49.35,1.94,5.98,23.95,16.91,66.04l-52.83,1.06c0-.35-1.37-8.8-4.09-25.36-2.73-16.55-4.36-24.83-4.89-24.83-3.52-.88-7.05-1.67-10.57-2.38-3.52-.7-6.96-1.41-10.3-2.11l-.79-.53Zm10.03-45.43c5.46,1.41,10.83,2.11,16.11,2.11,8.45,0,13.21-2.11,14.26-6.34.35-1.41.53-2.73.53-3.96,0-7.92-8.45-13.82-25.36-17.7-3.17,14.26-5.02,21.84-5.55,22.72v3.17Z"/>
  </g>
  <g id="SCISSORS">
    <path class="cls-1" d="m19.49,405.73c3.7,1.29,7.48,2.48,11.36,3.58,7.04,2.02,13.47,3.03,19.28,3.03,2.64,0,5.11-.17,7.4-.53,9.15-1.41,15.76-6.69,19.81-15.85,2.81-5.98,5.11-15.94,6.87-29.85.88-8.8,1.76-17.61,2.64-26.42,1.58-11.45,4.49-20.69,8.72-27.74,5.63-9.33,13.91-15.67,24.83-19.02,4.93-1.41,9.68-2.11,14.26-2.11,10.74,0,21.83,5.17,33.28,15.52l-10.83,41.54c.53-.17-.49-1.13-3.04-2.9-2.55-1.77-5.15-2.65-7.79-2.65-2.11,0-4.05.71-5.81,2.11-5.11,4.39-8.89,17.04-11.36,37.95-3,24.77-5.9,40.46-8.72,47.04-2.82,6.59-8.19,12.7-16.11,18.32-9.86,6.85-21.05,10.46-33.55,10.81-14.26.7-25.98.88-35.13.53-7.22-.36-10.74-.8-10.57-1.33l-5.55-52.03Z"/>
    <path class="cls-1" d="m292.32,497.97c-19.55,8.28-40.94,14.26-64.19,17.96-7.57,1.06-14.97,1.58-22.19,1.58-31.17,0-54.86-11.11-71.06-33.34-12.51-17.46-17.88-35.54-16.11-54.23,2.11-20.46,11.71-37.83,28.79-52.12,22.54-19.05,55.21-28.57,98-28.57,7.4,0,14.97.35,22.72,1.06.88,2.64-4.75,19.55-16.91,50.72h-8.98c-17.61,0-31.61,3.42-42,10.26-9.34,6.13-14,13.67-14,22.61,0,3.33.7,6.58,2.11,9.73,4.75,10.17,15.23,15.25,31.43,15.25,7.22-.17,16.2-2.11,26.94-5.81,6.51-2.46,13.03-4.84,19.55-7.13l25.89,52.04Z"/>
    <path class="cls-1" d="m282.98,489.51c1.06-4.75,4.75-32.66,11.09-83.74,6.16-50.01,9.33-76.69,9.51-80.04l71.06,4.23c-.53,2.11-4.09,29.23-10.7,81.36-6.6,52.13-10,79.6-10.17,82.42l-70.79-4.23Z"/>
    <path class="cls-1" d="m353.62,457.17c3.86.64,7.8,1.17,11.8,1.59,7.28.79,13.79.68,19.52-.31,2.6-.45,5-1.04,7.2-1.78,8.78-2.95,14.38-9.28,16.81-19,1.75-6.38,2.31-16.57,1.67-30.58-.64-8.82-1.27-17.65-1.91-26.48-.39-11.55.89-21.15,3.85-28.82,3.96-10.16,11.03-17.82,21.22-22.98,4.62-2.23,9.18-3.74,13.69-4.52,10.58-1.83,22.4,1.37,35.44,9.6l-3.58,42.78c.49-.25-.67-1.03-3.49-2.34-2.82-1.3-5.53-1.73-8.13-1.28-2.08.36-3.87,1.39-5.37,3.07-4.28,5.2-5.85,18.31-4.71,39.33,1.28,24.92,1.09,40.87-.55,47.84-1.65,6.98-5.9,13.91-12.75,20.8-8.55,8.44-18.95,13.9-31.21,16.38-13.93,3.13-25.45,5.3-34.53,6.52-7.18.88-10.72,1.05-10.64.49l-14.35-50.32Z"/>
    <path class="cls-1" d="m448.98,453.24c3.78,1.04,7.63,1.98,11.57,2.82,7.16,1.55,13.64,2.13,19.44,1.74,2.64-.18,5.08-.51,7.35-1.02,9.04-2.01,15.28-7.72,18.72-17.13,2.41-6.16,4.04-16.24,4.87-30.24.29-8.84.59-17.69.88-26.53.82-11.53,3.11-20.94,6.86-28.25,5-9.69,12.84-16.56,23.52-20.62,4.82-1.73,9.52-2.75,14.09-3.05,10.72-.71,22.13,3.71,34.24,13.27l-8.05,42.17c.52-.2-.56-1.1-3.22-2.69-2.67-1.59-5.32-2.3-7.95-2.13-2.11.14-4,.97-5.66,2.49-4.81,4.72-7.75,17.59-8.82,38.62-1.35,24.92-3.21,40.76-5.58,47.52-2.38,6.76-7.33,13.21-14.86,19.35-9.39,7.49-20.31,11.83-32.76,13.01-14.19,1.65-25.86,2.6-35.02,2.86-7.23.12-10.77-.08-10.63-.63l-8.98-51.55Z"/>
    <path class="cls-1" d="m672.72,354.95c25,0,45.08,6.95,60.23,20.84,15.49,14.59,23.25,34.64,23.25,60.13,0,20.57-6.96,39.12-20.87,55.65-17.43,20.75-42.09,31.12-73.96,31.12-25.01,0-45.17-7.56-60.49-22.68-14.62-14.59-21.93-33.23-21.93-55.91s8.1-44.13,24.3-61.19c17.78-18.64,40.94-27.96,69.47-27.96Zm-4.23,109.1c6.34,0,12.24-1.93,17.7-5.78,7.22-5.43,10.92-13.32,11.09-23.66,0-9.29-3.26-16.3-9.77-21.03-4.93-3.5-10.48-5.26-16.64-5.26-6.69,0-12.86,2.19-18.49,6.57-6.87,5.61-10.3,13.15-10.3,22.61,0,8.42,3.43,15.25,10.3,20.51,5.28,4.03,10.65,6.05,16.11,6.05Z"/>
    <path class="cls-1" d="m802.84,455.04c0,.18-1.85,7.88-5.56,23.11-3.71,15.23-5.56,23.11-5.56,23.64l-48.59-10.3c1.06-2.11,7.04-27.12,17.96-75.02,10.92-47.37,16.46-72.11,16.64-74.23,13.56,2.82,27.12,5.64,40.68,8.45,17.43,3.7,29.85,6.87,37.25,9.51,13.56,4.4,24.26,10.39,32.1,17.96,7.83,7.57,11.75,15.85,11.75,24.83,0,3-.44,5.99-1.32,8.98-1.94,6.87-5.55,12.77-10.83,17.7-3,3.17-7.13,6.17-12.42,8.98-3.88,2.29-5.72,3.79-5.55,4.49.35,1.94,5.98,23.95,16.91,66.04l-52.83,1.06c0-.35-1.37-8.8-4.09-25.36-2.73-16.55-4.36-24.83-4.89-24.83-3.52-.88-7.05-1.67-10.57-2.38-3.52-.7-6.96-1.41-10.3-2.11l-.79-.53Zm10.03-45.44c5.46,1.41,10.83,2.11,16.11,2.11,8.45,0,13.21-2.11,14.26-6.34.35-1.41.53-2.73.53-3.96,0-7.92-8.45-13.82-25.36-17.7-3.17,14.26-5.02,21.84-5.55,22.72v3.17Z"/>
    <path class="cls-1" d="m872.67,500.09c3.91-.23,7.86-.59,11.86-1.06,7.28-.84,13.6-2.39,18.96-4.62,2.44-1.02,4.65-2.12,6.62-3.33,7.91-4.82,11.97-12.24,12.19-22.25.3-6.61-1.42-16.67-5.14-30.2-2.57-8.46-5.15-16.93-7.72-25.4-2.94-11.17-3.81-20.83-2.62-28.96,1.61-10.78,6.81-19.82,15.61-27.1,4.01-3.19,8.13-5.67,12.35-7.44,9.91-4.13,22.14-3.62,36.69,1.52l5.98,42.51c.42-.36-.88-.86-3.92-1.51-3.04-.65-5.77-.47-8.21.55-1.95.81-3.47,2.21-4.55,4.18-3.03,6.02-1.66,19.15,4.11,39.4,6.76,24.02,10.11,39.62,10.04,46.78-.07,7.17-2.68,14.87-7.83,23.11-6.47,10.12-15.41,17.74-26.81,22.87-12.9,6.13-23.64,10.8-32.23,14-6.8,2.45-10.22,3.4-10.26,2.84l-25.13-45.9Z"/>
  </g>
</svg>