<?xml version="1.0" encoding="UTF-8"?>
<svg xmlns="http://www.w3.org/2000/svg" viewBox="0 0 307.73 67.66">
  <defs>
    <style>
      .cls-1 {
        fill: #fff;
      }

      .cls-2 {
        stroke: #000;
        stroke-linejoin: round;
        stroke-width: 6px;
      }
    </style>
  </defs>
  <g id="outline">
    <g>
      <g>
        <path d="m12.25,57.42c-.85,0-1.63-.01-2.34-.04-2.36-.12-3.76-.18-4.71-1.58-.29-.42-.46-.9-.51-1.4l-1.24-11.6c-.11-1.02.31-2.03,1.12-2.67.54-.43,1.2-.65,1.87-.65.33,0,.66.05.99.17.77.27,1.56.52,2.36.74,1.3.37,2.47.56,3.48.56.44,0,.84-.03,1.19-.08.75-.12,1.53-.41,2.13-1.78.31-.65.84-2.18,1.3-5.82,0,0,.59-5.89.59-5.93.41-2.94,1.2-5.41,2.34-7.32,1.65-2.73,4.08-4.6,7.23-5.57,1.42-.41,2.77-.6,4.06-.6,3.15,0,6.32,1.42,9.43,4.23.83.75,1.17,1.9.89,2.98l-2.32,8.92c-.03.24-.1.48-.19.7-.34.83-1.05,1.48-1.9,1.75-.3.09-.6.14-.9.14-.76,0-1.5-.29-2.07-.83,0,0,0,0,0,0-.31.81-.8,2.52-1.2,5.88-.95,7.82-1.69,10.2-2.16,11.32-.85,1.98-2.4,3.78-4.62,5.35-2.7,1.88-5.77,2.87-9.13,2.96-2.1.1-4.04.16-5.69.16Z"/>
        <path d="m32.12,16.85c2.4,0,4.87,1.15,7.42,3.46l-2.4,9.19c-.05-.1-.28-.29-.7-.57-.57-.39-1.15-.59-1.74-.59-.47,0-.9.16-1.3.47-1.14.98-1.98,3.8-2.53,8.46-.67,5.53-1.32,9.02-1.94,10.49-.63,1.47-1.83,2.83-3.59,4.09-2.2,1.53-4.69,2.33-7.48,2.41-2.12.1-3.99.16-5.61.16-.8,0-1.55-.01-2.23-.04-1.61-.08-2.4-.18-2.36-.3l-1.24-11.6c.82.29,1.67.55,2.53.8,1.57.45,3,.67,4.3.67.59,0,1.14-.04,1.65-.12,2.04-.31,3.51-1.49,4.42-3.53.63-1.33,1.14-3.55,1.53-6.66.2-1.96.39-3.93.59-5.89.35-2.55,1-4.61,1.94-6.19,1.26-2.08,3.1-3.5,5.54-4.24,1.1-.31,2.16-.47,3.18-.47m5.03,12.65s.01.06-.02.07l.02-.07m-5.03-18.65c-1.57,0-3.2.24-4.83.7-.04.01-.07.02-.11.03-3.83,1.17-6.91,3.55-8.92,6.88-1.38,2.31-2.28,5.07-2.75,8.46-.01.07-.02.15-.03.22l-.42,4.25-.16,1.57c-.44,3.47-.91,4.59-1,4.78-.02.04-.04.08-.06.13,0,.02-.02.04-.02.05-.18.02-.36.03-.56.03-.73,0-1.62-.15-2.65-.44-.76-.22-1.5-.45-2.21-.7-.64-.22-1.31-.33-1.97-.33-1.34,0-2.65.45-3.73,1.3-1.61,1.28-2.45,3.29-2.24,5.34l1.24,11.6h0c.1.99.45,1.94,1.02,2.78,1.79,2.62,4.44,2.75,7.01,2.88.02,0,.04,0,.06,0,.75.03,1.58.04,2.45.04,1.69,0,3.66-.05,5.85-.16,3.93-.12,7.52-1.29,10.67-3.48.02-.01.03-.02.05-.03,2.67-1.9,4.57-4.12,5.64-6.62.63-1.48,1.41-4.08,2.38-12.13.11-.96.23-1.76.35-2.42.58,0,1.17-.1,1.75-.28,1.7-.54,3.1-1.83,3.78-3.48.17-.41.29-.83.36-1.26l2.28-8.73c.56-2.17-.12-4.47-1.78-5.97-3.68-3.32-7.53-5.01-11.45-5.01h0Z"/>
      </g>
      <g>
        <path d="m63.46,57.38c-7.93,0-14.08-2.92-18.27-8.67-3.22-4.5-4.62-9.25-4.16-14.14.55-5.37,3.07-9.95,7.48-13.64,5.55-4.69,13.55-7.07,23.78-7.07,1.73,0,3.52.08,5.34.25,1.19.11,2.2.91,2.58,2.04.4,1.19.64,1.91-3.82,13.35-.45,1.15-1.56,1.91-2.79,1.91h-2c-3.31,0-5.91.6-7.72,1.79-1.77,1.16-1.77,2.13-1.77,2.54,0,.32.07.63.21.94.17.37.76,1.63,4.27,1.63,1.22-.03,2.94-.41,5.03-1.13,1.39-.53,2.87-1.07,4.34-1.58.33-.12.66-.17.99-.17,1.11,0,2.17.62,2.69,1.66l5.77,11.61c.37.74.41,1.6.13,2.38-.29.78-.88,1.4-1.64,1.72-4.56,1.93-9.61,3.35-15.02,4.21-1.87.26-3.68.39-5.42.39Z"/>
        <path d="m72.3,16.85c1.65,0,3.34.08,5.07.24.2.59-1.06,4.36-3.77,11.31h-2c-3.93,0-7.05.76-9.37,2.29-2.08,1.37-3.12,3.05-3.12,5.04,0,.74.16,1.47.47,2.17,1.06,2.27,3.4,3.4,7.01,3.4,1.61-.04,3.61-.47,6.01-1.3,1.45-.55,2.91-1.08,4.36-1.59l5.77,11.61c-4.36,1.85-9.13,3.18-14.32,4.01-1.69.24-3.34.35-4.95.35-6.95,0-12.23-2.48-15.85-7.44-2.79-3.89-3.99-7.93-3.59-12.1.47-4.56,2.61-8.44,6.42-11.62,5.03-4.25,12.31-6.37,21.86-6.37m0-6c-10.96,0-19.61,2.62-25.73,7.79-5.01,4.19-7.88,9.44-8.52,15.59,0,.02,0,.04,0,.05-.53,5.63,1.05,11.07,4.69,16.15,4.75,6.52,11.91,9.94,20.73,9.94,1.88,0,3.82-.14,5.78-.41.04,0,.08-.01.11-.02,5.64-.9,10.93-2.38,15.71-4.41,1.52-.65,2.71-1.89,3.29-3.44.57-1.55.48-3.27-.26-4.75l-5.77-11.61c-.88-1.76-2.52-2.92-4.35-3.24.51-.55.93-1.2,1.21-1.92,4.4-11.3,4.67-13,3.87-15.38-.75-2.26-2.78-3.87-5.15-4.08-1.91-.17-3.79-.26-5.61-.26h0Zm-6.04,24.45c1.04-.47,2.43-.77,4.08-.86-2.09.7-3.28.85-3.84.87-.09,0-.17,0-.25,0h0Z"/>
      </g>
      <g>
        <path d="m101.35,57.55l-15.79-.94c-.88-.05-1.69-.49-2.22-1.19-.53-.7-.72-1.6-.53-2.46.12-.54.6-3.65,2.43-18.4,1.77-14.36,2.08-17.22,2.1-17.65.1-1.59,1.42-2.84,3-2.84.06,0,.12,0,.18,0l15.85.94c.89.05,1.71.5,2.24,1.22.53.72.71,1.64.49,2.5-.06.34-.48,3.24-2.32,17.79-1.79,14.17-2.21,17.72-2.25,18.2-.12,1.58-1.43,2.81-2.99,2.81-.06,0-.12,0-.18,0Z"/>
        <path d="m90.33,17.08l15.85.94c-.12.47-.91,6.52-2.39,18.15-1.47,11.63-2.23,17.75-2.27,18.38l-15.79-.94c.24-1.06,1.06-7.29,2.47-18.68,1.37-11.15,2.08-17.1,2.12-17.85m0-6c-1.47,0-2.89.54-4,1.52-1.18,1.06-1.9,2.54-1.99,4.12-.04.55-.37,3.56-2.09,17.48-1.84,14.84-2.28,17.63-2.38,18.14-.38,1.72.01,3.5,1.07,4.9s2.68,2.26,4.44,2.36l15.79.94c.12,0,.24.01.36.01,3.13,0,5.76-2.42,5.98-5.58.06-.63.49-4.3,2.23-18.05,1.81-14.29,2.22-17.13,2.31-17.68.35-1.66-.03-3.4-1.04-4.77-1.06-1.44-2.7-2.33-4.48-2.44l-15.85-.94c-.12,0-.24-.01-.36-.01h0Z"/>
      </g>
      <g>
        <path d="m116.12,57.42c-.85,0-1.63-.01-2.34-.04-2.36-.12-3.77-.19-4.72-1.58-.28-.42-.46-.9-.51-1.4l-1.24-11.6c-.11-1.02.31-2.03,1.12-2.67.54-.43,1.2-.65,1.87-.65.33,0,.66.05.99.17.77.27,1.57.52,2.36.74,1.3.37,2.47.56,3.48.56.44,0,.84-.03,1.19-.08.75-.12,1.53-.41,2.13-1.78.3-.65.84-2.18,1.3-5.82,0,0,.59-5.89.59-5.93.41-2.94,1.2-5.4,2.34-7.32,1.65-2.73,4.08-4.6,7.23-5.57,1.42-.41,2.77-.6,4.06-.6,3.15,0,6.32,1.42,9.43,4.23.83.75,1.17,1.9.89,2.98l-2.32,8.92c-.03.24-.1.48-.19.7-.34.83-1.05,1.48-1.9,1.75-.3.09-.6.14-.91.14-.76,0-1.5-.29-2.07-.82,0,0,0,0,0,0-.31.81-.8,2.52-1.19,5.88-.95,7.82-1.69,10.21-2.17,11.32-.85,1.98-2.4,3.78-4.62,5.35-2.7,1.88-5.77,2.87-9.13,2.96-2.1.1-4.04.16-5.69.16Z"/>
        <path d="m135.99,16.85c2.39,0,4.87,1.15,7.42,3.46l-2.4,9.19c-.05-.1-.28-.29-.7-.58-.57-.39-1.15-.59-1.74-.59-.47,0-.9.16-1.3.47-1.14.98-1.98,3.8-2.53,8.46-.67,5.53-1.32,9.02-1.94,10.49-.63,1.47-1.83,2.83-3.59,4.09-2.2,1.53-4.69,2.33-7.48,2.41-2.12.1-3.99.16-5.61.16-.8,0-1.55-.01-2.23-.04-1.61-.08-2.4-.18-2.36-.3l-1.24-11.6c.83.29,1.67.55,2.53.8,1.57.45,3,.67,4.3.67.59,0,1.14-.04,1.65-.12,2.04-.31,3.51-1.49,4.42-3.53.63-1.33,1.14-3.55,1.53-6.66.2-1.96.39-3.93.59-5.89.35-2.55,1-4.61,1.94-6.19,1.26-2.08,3.1-3.5,5.54-4.24,1.1-.31,2.16-.47,3.18-.47m5.03,12.65s.01.06-.02.07l.02-.07m-5.03-18.65c-1.57,0-3.2.24-4.83.7-.04.01-.07.02-.11.03-3.82,1.17-6.91,3.55-8.92,6.88-1.38,2.31-2.28,5.07-2.75,8.46-.01.07-.02.15-.03.22-.19,1.94-.39,3.88-.58,5.81-.45,3.47-.91,4.59-1,4.78-.02.04-.04.08-.06.12,0,.02-.02.04-.03.06-.15.02-.33.03-.56.03-.73,0-1.62-.15-2.65-.44-.76-.22-1.5-.45-2.22-.7-.64-.22-1.31-.33-1.97-.33-1.34,0-2.66.45-3.73,1.3-1.61,1.28-2.45,3.29-2.24,5.33l1.24,11.6h0c.1.98.44,1.94,1.01,2.77,1.79,2.63,4.45,2.76,7.02,2.89.02,0,.04,0,.06,0,.75.03,1.58.04,2.45.04,1.69,0,3.66-.05,5.85-.16,3.93-.12,7.52-1.29,10.67-3.48.02-.01.03-.02.05-.03,2.67-1.9,4.57-4.12,5.64-6.62.63-1.48,1.41-4.08,2.38-12.13.11-.96.23-1.76.35-2.42.59,0,1.18-.1,1.75-.28,1.7-.54,3.1-1.83,3.77-3.48.17-.41.29-.83.36-1.26l2.28-8.73c.56-2.17-.12-4.47-1.78-5.97-3.68-3.32-7.53-5.01-11.44-5.01h0Z"/>
      </g>
      <g>
        <path d="m153.53,57.42c-.85,0-1.63-.01-2.34-.04-2.36-.12-3.77-.19-4.72-1.58-.28-.42-.46-.9-.51-1.4l-1.24-11.6c-.11-1.02.31-2.03,1.12-2.67.54-.43,1.2-.65,1.87-.65.33,0,.66.05.99.17.77.27,1.57.52,2.36.74,1.3.37,2.47.56,3.48.56.44,0,.84-.03,1.19-.08.75-.12,1.53-.41,2.13-1.78.3-.65.84-2.18,1.3-5.82,0,0,.59-5.89.59-5.93.41-2.94,1.2-5.4,2.34-7.32,1.65-2.73,4.08-4.6,7.23-5.57,1.42-.41,2.77-.6,4.06-.6,3.15,0,6.32,1.42,9.43,4.23.83.75,1.17,1.9.89,2.98l-2.32,8.92c-.03.24-.1.48-.19.7-.34.83-1.05,1.48-1.9,1.75-.3.09-.6.14-.91.14-.76,0-1.5-.29-2.07-.82,0,0,0,0,0,0-.31.81-.8,2.52-1.19,5.88-.95,7.82-1.69,10.21-2.17,11.32-.85,1.98-2.4,3.78-4.62,5.35-2.7,1.88-5.77,2.87-9.13,2.96-2.1.1-4.04.16-5.69.16Z"/>
        <path d="m173.4,16.85c2.39,0,4.87,1.15,7.42,3.46l-2.4,9.19c-.05-.1-.28-.29-.7-.58-.57-.39-1.15-.59-1.74-.59-.47,0-.9.16-1.3.47-1.14.98-1.98,3.8-2.53,8.46-.67,5.53-1.32,9.02-1.94,10.49-.63,1.47-1.83,2.83-3.59,4.09-2.2,1.53-4.69,2.33-7.48,2.41-2.12.1-3.99.16-5.61.16-.8,0-1.55-.01-2.23-.04-1.61-.08-2.4-.18-2.36-.3l-1.24-11.6c.83.29,1.67.55,2.53.8,1.57.45,3,.67,4.3.67.59,0,1.14-.04,1.65-.12,2.04-.31,3.51-1.49,4.42-3.53.63-1.33,1.14-3.55,1.53-6.66.2-1.96.39-3.93.59-5.89.35-2.55,1-4.61,1.94-6.19,1.26-2.08,3.1-3.5,5.54-4.24,1.1-.31,2.16-.47,3.18-.47m5.03,12.65s.01.06-.02.07l.02-.07m-5.03-18.65c-1.57,0-3.2.24-4.83.7-.04.01-.07.02-.11.03-3.82,1.17-6.91,3.55-8.92,6.88-1.38,2.31-2.28,5.07-2.75,8.46-.01.07-.02.15-.03.22-.19,1.94-.39,3.88-.58,5.81-.45,3.47-.91,4.59-1,4.78-.02.04-.04.08-.06.12,0,.02-.02.04-.03.06-.15.02-.33.03-.56.03-.73,0-1.62-.15-2.65-.44-.76-.22-1.5-.45-2.22-.7-.64-.22-1.31-.33-1.97-.33-1.34,0-2.66.45-3.73,1.3-1.61,1.28-2.45,3.29-2.24,5.33l1.24,11.6h0c.1.98.44,1.94,1.01,2.77,1.79,2.63,4.45,2.76,7.02,2.89.02,0,.04,0,.06,0,.75.03,1.58.04,2.45.04,1.69,0,3.66-.05,5.85-.16,3.93-.12,7.52-1.29,10.67-3.48.02-.01.03-.02.05-.03,2.67-1.9,4.57-4.12,5.64-6.62.63-1.48,1.41-4.08,2.38-12.13.11-.96.23-1.76.35-2.42.59,0,1.18-.1,1.75-.28,1.7-.54,3.1-1.83,3.77-3.48.17-.41.29-.83.36-1.26l2.28-8.73c.56-2.17-.12-4.47-1.78-5.97-3.68-3.32-7.53-5.01-11.44-5.01h0Z"/>
      </g>
      <g>
        <path d="m203.45,57.37c-6.38,0-11.63-1.99-15.6-5.92-3.84-3.84-5.78-8.75-5.78-14.6s2.1-11.37,6.25-15.72c4.53-4.76,10.47-7.17,17.66-7.17,6.33,0,11.54,1.83,15.46,5.44,4.09,3.86,6.16,9.1,6.16,15.62,0,5.3-1.81,10.13-5.37,14.35-4.45,5.31-10.77,8-18.78,8Zm2.12-25.51c-.83,0-1.55.27-2.29.84-.76.63-1.13,1.46-1.13,2.67,0,.95.33,1.59,1.12,2.2.64.48,1.22.73,1.77.73.77,0,1.48-.23,2.18-.71.57-.44,1.21-1.18,1.24-2.91,0-1.34-.48-1.87-.94-2.21-.58-.41-1.21-.61-1.95-.61Z"/>
        <path d="m205.98,16.96c5.58,0,10.06,1.55,13.43,4.65,3.46,3.26,5.19,7.73,5.19,13.41,0,4.59-1.55,8.73-4.66,12.41-3.88,4.63-9.38,6.94-16.49,6.94-5.58,0-10.08-1.68-13.49-5.05-3.26-3.26-4.89-7.42-4.89-12.47,0-5.3,1.8-9.85,5.42-13.65,3.96-4.16,9.13-6.24,15.49-6.24m-.94,24.34c1.41,0,2.73-.43,3.95-1.29,1.61-1.22,2.43-2.98,2.47-5.28,0-2.07-.73-3.64-2.18-4.69-1.1-.78-2.34-1.18-3.71-1.18-1.49,0-2.87.49-4.13,1.47-1.53,1.25-2.29,2.93-2.29,5.04,0,1.88.76,3.4,2.29,4.58,1.18.9,2.38,1.35,3.6,1.35m.94-30.34c-8.04,0-14.72,2.73-19.84,8.1-4.69,4.93-7.07,10.91-7.07,17.79s2.24,12.3,6.65,16.71c4.58,4.53,10.54,6.81,17.73,6.81,8.94,0,16.04-3.06,21.09-9.09,4.02-4.75,6.06-10.23,6.06-16.26,0-7.37-2.38-13.35-7.08-17.78-.02-.02-.03-.03-.05-.05-4.5-4.14-10.38-6.23-17.49-6.23h0Zm-.8,24.06c.12-.09.2-.13.27-.15-.01.16-.04.27-.06.32-.07.04-.13.06-.18.08-.02-.01-.04-.03-.06-.04,0-.11.02-.18.03-.21h0Z"/>
      </g>
      <g>
        <path d="m205.04,44.3c-1.89,0-3.71-.66-5.42-1.96-2.28-1.76-3.47-4.16-3.47-6.97,0-3,1.17-5.55,3.39-7.36,1.85-1.44,3.86-2.15,6.03-2.15,1.99,0,3.82.58,5.44,1.73,1.59,1.15,3.44,3.3,3.44,7.14-.06,3.27-1.32,5.9-3.66,7.67-.03.02-.06.04-.08.06-1.73,1.22-3.64,1.84-5.68,1.84Z"/>
        <path d="m205.57,28.86c1.37,0,2.61.4,3.71,1.18,1.45,1.05,2.18,2.62,2.18,4.69-.04,2.3-.86,4.06-2.47,5.28-1.22.86-2.54,1.29-3.95,1.29-1.22,0-2.42-.45-3.6-1.35-1.53-1.18-2.29-2.7-2.29-4.58,0-2.11.76-3.79,2.29-5.04,1.26-.98,2.64-1.47,4.13-1.47m0-6c-2.81,0-5.51.95-7.81,2.73-.04.03-.08.06-.11.09-2.94,2.4-4.49,5.75-4.49,9.69,0,3.72,1.64,7.03,4.63,9.33,2.27,1.73,4.7,2.6,7.26,2.6s5.16-.8,7.41-2.39c.06-.04.11-.08.17-.12,2.16-1.64,4.75-4.69,4.85-9.96,0-.03,0-.07,0-.1,0-3.98-1.66-7.37-4.66-9.55-.02-.01-.03-.02-.05-.03-2.11-1.5-4.59-2.29-7.18-2.29h0Z"/>
      </g>
      <g>
        <path d="m249.4,57.08c-.78,0-1.54-.31-2.1-.86-.5-.49-.81-1.14-.88-1.83-.03-.23-.2-1.27-.89-5.48-.27-1.66-.47-2.77-.61-3.52-.04,0-.08-.02-.13-.03-.15.63-.33,1.37-.55,2.26-.93,3.83-1.14,4.76-1.18,4.98-.1.75-.49,1.43-1.08,1.91-.54.44-1.21.67-1.89.67-.21,0-.42-.02-.62-.07l-10.84-2.3c-.91-.19-1.68-.8-2.08-1.63-.37-.77-.39-1.66-.07-2.45.19-.6.96-3.55,3.85-16.25,2.98-12.92,3.57-15.74,3.66-16.24.1-.82.52-1.56,1.18-2.05.52-.39,1.15-.6,1.8-.6.2,0,.41.02.61.06l9.07,1.89c4.07.86,6.91,1.59,8.71,2.23,3.37,1.09,6.16,2.67,8.23,4.67,2.35,2.27,3.54,4.86,3.54,7.7,0,.95-.14,1.91-.42,2.85-.57,2.01-1.64,3.77-3.18,5.24-.73.76-1.63,1.45-2.73,2.1.47,1.86,1.42,5.55,3.29,12.75.23.89.04,1.83-.51,2.57-.55.73-1.41,1.17-2.33,1.19,0,0-11.82.24-11.84.24Z"/>
        <path d="m236.97,16.61c3.02.63,6.05,1.26,9.07,1.89,3.89.82,6.66,1.53,8.31,2.12,3.02.98,5.41,2.32,7.16,4.01,1.75,1.69,2.62,3.54,2.62,5.54,0,.67-.1,1.34-.29,2-.43,1.53-1.24,2.85-2.42,3.95-.67.71-1.59,1.38-2.77,2-.86.51-1.28.85-1.24,1,.08.43,1.33,5.34,3.77,14.73l-11.78.24c0-.08-.3-1.96-.91-5.66-.61-3.69-.97-5.54-1.09-5.54-.79-.2-1.57-.37-2.36-.53-.79-.16-1.55-.31-2.3-.47l-.18-.12s-.41,1.76-1.24,5.16c-.83,3.4-1.24,5.15-1.24,5.27l-10.84-2.3c.24-.47,1.57-6.05,4.01-16.73,2.43-10.57,3.67-16.08,3.71-16.56m11.43,15.49c1.89,0,2.95-.47,3.18-1.41.08-.31.12-.61.12-.88,0-1.77-1.89-3.08-5.66-3.95-.71,3.18-1.12,4.87-1.24,5.07v.71c1.22.31,2.42.47,3.59.47m-11.43-21.49c-1.28,0-2.55.41-3.59,1.19-1.29.97-2.14,2.41-2.35,4-.12.65-.76,3.64-3.61,16.02-2.82,12.38-3.57,15.28-3.77,15.95-.58,1.53-.51,3.24.2,4.73.81,1.68,2.34,2.88,4.16,3.27l10.84,2.3c.41.09.83.13,1.24.13,1.36,0,2.7-.46,3.78-1.34.05-.04.1-.08.15-.13.3.6.69,1.16,1.18,1.64,1.12,1.1,2.63,1.72,4.2,1.72.04,0,.08,0,.12,0l11.78-.24c1.84-.04,3.55-.91,4.66-2.38s1.49-3.35,1.03-5.13c-1.35-5.19-2.21-8.54-2.76-10.7.51-.4.99-.82,1.42-1.27,1.91-1.82,3.24-4.02,3.96-6.55.35-1.21.53-2.44.53-3.66,0-2.53-.77-6.29-4.45-9.85-2.39-2.31-5.55-4.11-9.4-5.37-1.92-.68-4.87-1.43-9-2.31l-6.11-1.27-2.98-.62c-.4-.08-.81-.13-1.22-.13h0Z"/>
      </g>
      <g>
        <path d="m274.07,57.42c-.85,0-1.63-.01-2.34-.04-2.36-.12-3.77-.19-4.72-1.58-.29-.42-.46-.9-.51-1.4l-1.24-11.6c-.11-1.02.31-2.03,1.12-2.67.54-.43,1.2-.65,1.87-.65.33,0,.66.05.99.17.77.27,1.57.52,2.37.74,1.3.37,2.47.56,3.48.56.44,0,.84-.03,1.19-.08.75-.12,1.53-.41,2.13-1.78.3-.65.84-2.18,1.3-5.82,0,0,.59-5.89.59-5.93.41-2.94,1.2-5.4,2.34-7.32,1.65-2.73,4.08-4.6,7.23-5.57,1.42-.41,2.77-.6,4.06-.6,3.15,0,6.32,1.42,9.43,4.23.83.75,1.17,1.9.89,2.98l-2.33,8.92c-.03.24-.1.48-.19.7-.34.83-1.05,1.48-1.9,1.75-.3.09-.6.14-.91.14-.76,0-1.5-.29-2.07-.82,0,0,0,0,0,0-.31.81-.8,2.52-1.19,5.88-.95,7.82-1.69,10.21-2.17,11.32-.85,1.98-2.4,3.78-4.62,5.35-2.7,1.88-5.77,2.87-9.13,2.96-2.1.1-4.04.16-5.7.16Z"/>
        <path d="m293.94,16.85c2.39,0,4.87,1.15,7.42,3.46l-2.4,9.19c-.05-.1-.28-.29-.7-.58-.57-.39-1.15-.59-1.74-.59-.47,0-.9.16-1.3.47-1.14.98-1.98,3.8-2.53,8.46-.67,5.53-1.32,9.02-1.94,10.49-.63,1.47-1.83,2.83-3.59,4.09-2.2,1.53-4.69,2.33-7.48,2.41-2.12.1-3.99.16-5.61.16-.8,0-1.55-.01-2.23-.04-1.61-.08-2.4-.18-2.36-.3l-1.24-11.6c.83.29,1.67.55,2.53.8,1.57.45,3,.67,4.3.67.59,0,1.14-.04,1.65-.12,2.04-.31,3.51-1.49,4.42-3.53.63-1.33,1.14-3.55,1.53-6.66.2-1.96.39-3.93.59-5.89.35-2.55,1-4.61,1.94-6.19,1.26-2.08,3.1-3.5,5.54-4.24,1.1-.31,2.16-.47,3.18-.47m5.03,12.65s.01.06-.02.07l.02-.07m-5.03-18.65c-1.57,0-3.2.24-4.83.7-.04.01-.07.02-.11.03-3.82,1.17-6.91,3.55-8.92,6.88-1.38,2.31-2.28,5.07-2.75,8.46-.01.07-.02.15-.03.22-.19,1.94-.39,3.88-.58,5.81-.45,3.47-.91,4.59-1,4.78-.02.04-.04.08-.06.12,0,.02-.02.04-.03.06-.15.02-.33.03-.56.03-.73,0-1.62-.15-2.65-.44-.76-.22-1.5-.45-2.22-.7-.64-.22-1.31-.33-1.97-.33-1.34,0-2.66.45-3.73,1.3-1.61,1.28-2.45,3.29-2.24,5.33l1.24,11.6h0c.1.98.44,1.94,1.01,2.77,1.79,2.63,4.45,2.76,7.02,2.89.02,0,.04,0,.06,0,.75.03,1.58.04,2.45.04,1.69,0,3.66-.05,5.85-.16,3.93-.12,7.52-1.29,10.67-3.48.02-.01.03-.02.05-.03,2.67-1.9,4.57-4.12,5.64-6.62.63-1.48,1.41-4.08,2.38-12.13.11-.96.23-1.76.35-2.42.59,0,1.18-.1,1.75-.28,1.7-.54,3.1-1.83,3.77-3.48.17-.41.29-.83.36-1.26l2.28-8.73c.56-2.17-.12-4.47-1.78-5.97-3.68-3.32-7.53-5.01-11.44-5.01h0Z"/>
      </g>
    </g>
    <polygon class="cls-2" points="70.53 32.11 72.59 35.35 71.56 36.83 66.55 37.6 63.34 35.61 65.67 33.3 70.53 32.11"/>
  </g>
  <g id="scissors">
    <g>
      <path class="cls-1" d="m6.43,42.48c.82.29,1.67.55,2.53.8,1.57.45,3,.67,4.3.67.59,0,1.14-.04,1.65-.12,2.04-.31,3.51-1.49,4.42-3.53.63-1.33,1.14-3.55,1.53-6.66.2-1.96.39-3.93.59-5.89.35-2.55,1-4.61,1.94-6.19,1.26-2.08,3.1-3.5,5.54-4.24,1.1-.31,2.16-.47,3.18-.47,2.4,0,4.87,1.15,7.42,3.46l-2.42,9.27c.12-.04-.11-.25-.68-.65-.57-.39-1.15-.59-1.74-.59-.47,0-.9.16-1.3.47-1.14.98-1.98,3.8-2.53,8.46-.67,5.53-1.32,9.02-1.94,10.49-.63,1.47-1.83,2.83-3.59,4.09-2.2,1.53-4.69,2.33-7.48,2.41-3.18.16-5.79.2-7.84.12-1.61-.08-2.4-.18-2.36-.3l-1.24-11.6Z"/>
      <path class="cls-1" d="m82.73,50.02c-4.36,1.85-9.13,3.18-14.32,4.01-1.69.24-3.34.35-4.95.35-6.95,0-12.23-2.48-15.85-7.44-2.79-3.89-3.99-7.93-3.59-12.1.47-4.56,2.61-8.44,6.42-11.62,5.03-4.25,12.31-6.37,21.86-6.37,1.65,0,3.34.08,5.07.24.2.59-1.06,4.36-3.77,11.31h-2c-3.93,0-7.05.76-9.37,2.29-2.08,1.37-3.12,3.05-3.12,5.04,0,.74.16,1.47.47,2.17,1.06,2.27,3.4,3.4,7.01,3.4,1.61-.04,3.61-.47,6.01-1.3,1.45-.55,2.91-1.08,4.36-1.59l5.77,11.61Z"/>
      <path class="cls-1" d="m85.73,53.61c.24-1.06,1.06-7.29,2.47-18.68,1.37-11.15,2.08-17.1,2.12-17.85l15.85.94c-.12.47-.91,6.52-2.39,18.15-1.47,11.63-2.23,17.75-2.27,18.38l-15.79-.94Z"/>
      <path class="cls-1" d="m110.3,42.48c.83.29,1.67.55,2.53.8,1.57.45,3,.67,4.3.67.59,0,1.14-.04,1.65-.12,2.04-.31,3.51-1.49,4.42-3.53.63-1.33,1.14-3.55,1.53-6.66.2-1.96.39-3.93.59-5.89.35-2.55,1-4.61,1.94-6.19,1.26-2.08,3.1-3.5,5.54-4.24,1.1-.31,2.16-.47,3.18-.47,2.39,0,4.87,1.15,7.42,3.46l-2.42,9.27c.12-.04-.11-.25-.68-.65-.57-.39-1.15-.59-1.74-.59-.47,0-.9.16-1.3.47-1.14.98-1.98,3.8-2.53,8.46-.67,5.53-1.32,9.02-1.94,10.49-.63,1.47-1.83,2.83-3.59,4.09-2.2,1.53-4.69,2.33-7.48,2.41-3.18.16-5.79.2-7.84.12-1.61-.08-2.4-.18-2.36-.3l-1.24-11.6Z"/>
      <path class="cls-1" d="m147.71,42.48c.83.29,1.67.55,2.53.8,1.57.45,3,.67,4.3.67.59,0,1.14-.04,1.65-.12,2.04-.31,3.51-1.49,4.42-3.53.63-1.33,1.14-3.55,1.53-6.66.2-1.96.39-3.93.59-5.89.35-2.55,1-4.61,1.94-6.19,1.26-2.08,3.1-3.5,5.54-4.24,1.1-.31,2.16-.47,3.18-.47,2.39,0,4.87,1.15,7.42,3.46l-2.42,9.27c.12-.04-.11-.25-.68-.65-.57-.39-1.15-.59-1.74-.59-.47,0-.9.16-1.3.47-1.14.98-1.98,3.8-2.53,8.46-.67,5.53-1.32,9.02-1.94,10.49-.63,1.47-1.83,2.83-3.59,4.09-2.2,1.53-4.69,2.33-7.48,2.41-3.18.16-5.79.2-7.84.12-1.61-.08-2.4-.18-2.36-.3l-1.24-11.6Z"/>
      <path class="cls-1" d="m205.98,16.96c5.58,0,10.05,1.55,13.43,4.65,3.46,3.25,5.18,7.73,5.18,13.41,0,4.59-1.55,8.73-4.65,12.41-3.89,4.63-9.39,6.94-16.5,6.94-5.58,0-10.07-1.69-13.49-5.06-3.26-3.25-4.89-7.41-4.89-12.47s1.81-9.84,5.42-13.65c3.97-4.16,9.13-6.23,15.5-6.23Zm-.94,24.33c1.41,0,2.73-.43,3.95-1.29,1.61-1.21,2.44-2.97,2.47-5.28,0-2.07-.73-3.64-2.18-4.69-1.1-.78-2.34-1.17-3.71-1.17-1.49,0-2.87.49-4.12,1.47-1.53,1.25-2.3,2.93-2.3,5.04,0,1.88.77,3.4,2.3,4.57,1.18.9,2.38,1.35,3.59,1.35Z"/>
      <path class="cls-1" d="m242.57,41.77s-.41,1.76-1.24,5.16c-.83,3.4-1.24,5.15-1.24,5.27l-10.84-2.3c.24-.47,1.57-6.05,4.01-16.73,2.43-10.57,3.67-16.08,3.71-16.56,3.02.63,6.05,1.26,9.07,1.89,3.89.82,6.66,1.53,8.31,2.12,3.02.98,5.41,2.32,7.16,4.01,1.75,1.69,2.62,3.54,2.62,5.54,0,.67-.1,1.34-.29,2-.43,1.53-1.24,2.85-2.42,3.95-.67.71-1.59,1.38-2.77,2-.86.51-1.28.85-1.24,1,.08.43,1.33,5.34,3.77,14.73l-11.78.24c0-.08-.3-1.96-.91-5.66-.61-3.69-.97-5.54-1.09-5.54-.79-.2-1.57-.37-2.36-.53-.79-.16-1.55-.31-2.3-.47l-.18-.12Zm2.24-10.13c1.22.31,2.42.47,3.59.47,1.89,0,2.95-.47,3.18-1.41.08-.31.12-.61.12-.88,0-1.77-1.89-3.08-5.66-3.95-.71,3.18-1.12,4.87-1.24,5.07v.71Z"/>
      <path class="cls-1" d="m268.25,42.48c.83.29,1.67.55,2.53.8,1.57.45,3,.67,4.3.67.59,0,1.14-.04,1.65-.12,2.04-.31,3.51-1.49,4.42-3.53.63-1.33,1.14-3.55,1.53-6.66.2-1.96.39-3.93.59-5.89.35-2.55,1-4.61,1.94-6.19,1.26-2.08,3.1-3.5,5.54-4.24,1.1-.31,2.16-.47,3.18-.47,2.39,0,4.87,1.15,7.42,3.46l-2.42,9.27c.12-.04-.11-.25-.68-.65-.57-.39-1.15-.59-1.74-.59-.47,0-.9.16-1.3.47-1.14.98-1.98,3.8-2.53,8.46-.67,5.53-1.32,9.02-1.94,10.49-.63,1.47-1.83,2.83-3.59,4.09-2.2,1.53-4.69,2.33-7.48,2.41-3.18.16-5.79.2-7.84.12-1.61-.08-2.4-.18-2.36-.3l-1.24-11.6Z"/>
    </g>
  </g>
</svg>