<?xml version="1.0" encoding="UTF-8"?>
<svg xmlns="http://www.w3.org/2000/svg" viewBox="0 0 460.93 50.32">
  <defs>
    <style>
      .cls-1 {
        fill: #fff;
      }
    </style>
  </defs>
  <g id="outline">
    <g>
      <g>
        <path d="m20.67,47.16c-1.45,0-2.73-1.06-2.96-2.54l-3.51-22.42-6.2.94c-.15.02-.3.03-.45.03-1.45,0-2.73-1.05-2.96-2.53l-1.47-9.31c-.12-.79.07-1.6.55-2.25.48-.65,1.19-1.07,1.99-1.19,3.5-.5,12.53-1.87,27.61-4.18.15-.02.31-.04.46-.04,1.45,0,2.73,1.06,2.96,2.54l1.42,9.08c.25,1.64-.86,3.17-2.5,3.43l-6.48,1.02,3.44,22.6c.25,1.64-.88,3.17-2.51,3.42l-8.91,1.37c-.15.02-.31.04-.46.04Z"/>
        <path d="m33.71,6.68l1.42,9.08-9.42,1.49,3.88,25.55-8.91,1.37-3.98-25.37-9.15,1.38-1.47-9.31c3.54-.51,12.75-1.9,27.63-4.18m0-6c-.3,0-.61.02-.91.07C17.72,3.06,8.7,4.42,5.22,4.93c-1.59.23-3.02,1.09-3.97,2.38C.29,8.6-.1,10.22.15,11.8l1.47,9.31c.47,2.95,3.02,5.06,5.92,5.06.3,0,.6-.02.91-.07l3.25-.49,3.05,19.48c.46,2.96,3.02,5.07,5.92,5.07.3,0,.61-.02.92-.07l8.91-1.37c3.27-.5,5.52-3.56,5.02-6.83l-2.99-19.65,3.53-.56c3.27-.52,5.5-3.58,4.99-6.85l-1.42-9.08c-.46-2.96-3.01-5.08-5.92-5.08h0Z"/>
      </g>
      <g>
        <path d="m42.01,46.86c-.7,0-1.38-.25-1.93-.7-.61-.51-.99-1.25-1.06-2.04-1.3-14.88-2.32-26.42-3.06-34.63-.07-.79.17-1.58.68-2.19s1.24-.99,2.04-1.07l11.08-.99c.13-.02.26-.02.39-.02,2.73,0,3.01,2.65,3.15,3.92.09.83.21,2.08.37,3.75.05.69.1,1.37.16,2.04l6.4-.55c-.44-5.12-.57-6.35-.6-6.6-.12-.81.1-1.65.61-2.3.51-.65,1.26-1.06,2.08-1.14l10.9-1c.09,0,.19-.01.28-.01,1.53,0,2.84,1.17,2.98,2.72l3.18,34.41c.07.79-.17,1.58-.68,2.2-.51.61-1.24,1-2.04,1.07l-11.78,1.06c-.09,0-.18.01-.27.01-1.51,0-2.81-1.14-2.98-2.67-.2-1.78-.49-4.81-.86-9.03l-4.95.45c.59,7.3.72,8.64.75,8.87.1.81-.13,1.62-.64,2.26s-1.26,1.03-2.07,1.11l-11.84,1.06c-.09,0-.18.01-.27.01Z"/>
        <path d="m73.47,6.33c1.06,11.47,2.12,22.94,3.18,34.41l-11.78,1.06c-.24-2.12-.61-6.11-1.12-11.96l-10.9,1c.59,7.38.93,11.37,1,11.96l-11.84,1.06c-1.3-14.89-2.32-26.43-3.06-34.64l11.19-1s0,0,0,0c.04,0,.22,1.65.53,4.95.12,1.65.25,3.32.41,5.01l12.37-1.06c-.51-6.01-.81-9.27-.88-9.78l10.9-1m0-6c-.18,0-.37,0-.56.03l-10.9,1c-1.65.15-3.16.98-4.18,2.28-1.01,1.29-1.45,2.94-1.21,4.56.03.2.1.92.33,3.45l-.4.03c-.12-1.23-.21-2.19-.28-2.87-.05-.48-.09-.84-.13-1.08-.5-3.79-3.47-5.52-6.01-5.52-.24,0-.47.01-.7.04l-11.03.99c-1.59.14-3.05.91-4.07,2.13-1.02,1.22-1.51,2.8-1.37,4.39.75,8.25,1.78,19.9,3.06,34.62.14,1.59.9,3.06,2.12,4.08,1.08.91,2.45,1.4,3.85,1.4.18,0,.36,0,.54-.02l11.84-1.06c1.62-.15,3.12-.94,4.14-2.21.47-.58.82-1.25,1.05-1.95,1.02,1.92,3.04,3.18,5.29,3.18.18,0,.36,0,.54-.02l11.78-1.06c1.59-.14,3.05-.91,4.07-2.14,1.02-1.22,1.51-2.81,1.36-4.39l-1.72-18.65-1.46-15.75c-.29-3.11-2.9-5.45-5.97-5.45h0Z"/>
      </g>
      <g>
        <path d="m106.12,47.09c-1.15-.04-5.41-.29-13.04-.77-3.83-.23-6.7-.41-8.62-.54-3.75-.25-5.16-.34-5.62-2.62-.05-.26-.07-.54-.05-.8.82-11.98,1.67-23.96,2.53-35.95.11-1.58,1.43-2.78,2.99-2.78.06,0,.11,0,.17,0,7.84.43,15.82.85,23.72,1.24.8.04,1.56.4,2.09,1s.81,1.39.76,2.19l-.53,8.19c-.05.81-.43,1.56-1.04,2.09-.55.47-1.24.72-1.95.72-.02,0-.04,0-.06,0,0,.1,0,.2,0,.29l-1,12.96c-.05.71-.35,1.34-.8,1.82.77.05,1.06.07,1.16.08.79.03,1.54.37,2.09.95.57.61.86,1.42.8,2.25l-.47,6.89c-.11,1.58-1.42,2.79-2.99,2.79-.04,0-.07,0-.11,0Z"/>
        <path d="m84.31,6.62c7.86.43,15.77.85,23.74,1.24l-.53,8.19c-3.42-.31-6.89-.61-10.43-.88l-.18,3.48c2.12.24,4.63.39,7.54.47l-1,12.96c-.51-.04-1.78-.13-3.8-.27-2.02-.14-3.25-.21-3.68-.21l-.41,4.83c7.31.51,11.02.77,11.14.77l-.47,6.89c-1.1-.04-5.42-.29-12.96-.77-7.74-.47-11.57-.73-11.49-.77.82-11.98,1.67-23.96,2.53-35.94m0-6c-3.12,0-5.75,2.41-5.98,5.57-.85,11.84-1.7,23.89-2.53,35.83-.05.57-.02,1.16.1,1.74.34,1.66,1.58,4.51,6.14,4.86.49.04,1.24.09,2.22.16,1.92.13,4.8.31,8.64.54,7.64.48,11.93.73,13.11.77.07,0,.15,0,.22,0,3.14,0,5.77-2.43,5.98-5.59l.47-6.89c.11-1.66-.47-3.29-1.6-4.51-.46-.5-1-.91-1.59-1.22l.81-10.52c.4-.21.77-.46,1.12-.76,1.23-1.05,1.98-2.56,2.09-4.17l.53-8.19c.1-1.6-.44-3.18-1.51-4.38s-2.58-1.92-4.18-2c-7.9-.39-15.87-.8-23.71-1.24-.11,0-.22,0-.33,0h0Z"/>
      </g>
      <g>
        <path d="m125.38,46.97c-.17,0-.34-.01-.51-.04l-13.67-2.35c-.87-.15-1.63-.68-2.08-1.44-.45-.76-.54-1.68-.24-2.52.1-.29.38-1.06,13.72-33.95.33-.82,1.01-1.45,1.86-1.73.3-.1.61-.15.92-.15.56,0,1.11.16,1.59.46.33.21.7.44,7.08,6.21,1.67,1.52,2.95,2.68,3.92,3.6.88-1.05,2.03-2.37,3.54-4.07,1.94-2.14,3.86-4.27,5.78-6.43.57-.64,1.39-1,2.24-1,.13,0,.25,0,.38.02.98.13,1.84.73,2.29,1.61l16.5,32.23c.4.79.44,1.71.1,2.53-.34.82-1.03,1.44-1.87,1.7l-12.31,3.83c-.29.09-.59.14-.89.14-.78,0-1.54-.3-2.11-.87-.39-.38-.41-.41-4.27-7.16-.54-.95-1.01-1.77-1.42-2.49-1.05,1.35-2.42,3.11-4.22,5.41-.58.75-1.46,1.15-2.37,1.15-.44,0-.89-.1-1.31-.3-.51-.25-.58-.28-5.69-5.58-1.37,3-2.78,6.15-4.21,9.4-.49,1.1-1.57,1.79-2.74,1.79Z"/>
        <path d="m149.53,6.56l16.5,32.23-12.31,3.83c-.08-.08-1.34-2.25-3.77-6.51-2.44-4.26-3.65-6.41-3.65-6.45,0,.08-2.32,3.08-6.95,9.01-.08-.04-2.71-2.75-7.89-8.13-1.96,4.22-3.99,8.7-6.07,13.43l-13.67-2.35c.24-.67,4.79-11.94,13.67-33.82.31.2,2.53,2.16,6.66,5.89,4.12,3.73,6.21,5.74,6.25,6.01-.04-.31,1.79-2.55,5.48-6.72,1.92-2.12,3.85-4.26,5.77-6.42m0-6c-1.7,0-3.33.72-4.48,2.01-1.89,2.13-3.82,4.27-5.74,6.38-.02.02-.03.03-.05.05-.55.62-1.07,1.21-1.55,1.75-.51-.47-1.06-.97-1.66-1.51-6.57-5.95-6.94-6.18-7.5-6.53-.97-.61-2.07-.92-3.19-.92-.62,0-1.24.1-1.84.29-1.69.55-3.05,1.81-3.71,3.45-13.37,32.95-13.64,33.71-13.77,34.08-.59,1.67-.41,3.51.48,5.03.89,1.52,2.42,2.58,4.16,2.88l13.67,2.35c.34.06.68.09,1.02.09,2.35,0,4.52-1.38,5.49-3.58.8-1.82,1.59-3.61,2.38-5.35,2.52,2.57,2.76,2.68,3.46,3.03.84.41,1.74.61,2.63.61,1.8,0,3.56-.81,4.73-2.31.52-.66,1.01-1.29,1.47-1.88,3.26,5.71,3.31,5.75,3.96,6.4,1.14,1.13,2.66,1.73,4.22,1.73.6,0,1.2-.09,1.78-.27l12.31-3.83c1.69-.53,3.06-1.77,3.75-3.4.69-1.63.62-3.48-.19-5.06L154.87,3.83c-.9-1.76-2.62-2.97-4.58-3.22-.25-.03-.51-.05-.76-.05h0Z"/>
      </g>
      <g>
        <path d="m194.32,47.09c-1.15-.04-5.41-.29-13.04-.77-3.83-.23-6.7-.41-8.62-.54-3.75-.25-5.16-.34-5.62-2.62-.05-.27-.07-.54-.05-.81.83-11.98,1.67-23.96,2.53-35.95.11-1.58,1.43-2.78,2.99-2.78.06,0,.11,0,.17,0,7.84.43,15.83.85,23.73,1.24.8.04,1.56.4,2.09,1,.53.6.81,1.39.75,2.19l-.53,8.19c-.05.81-.43,1.56-1.04,2.09-.55.47-1.24.72-1.95.72-.02,0-.04,0-.06,0,0,.1,0,.2,0,.29l-1,12.96c-.05.71-.35,1.34-.8,1.82.8.05,1.07.07,1.16.08.79.03,1.54.37,2.09.95.57.61.86,1.42.8,2.25l-.47,6.89c-.11,1.58-1.42,2.8-2.99,2.8-.04,0-.07,0-.11,0Z"/>
        <path d="m172.51,6.62c7.86.43,15.77.85,23.74,1.24l-.53,8.19c-3.42-.31-6.89-.61-10.43-.88l-.18,3.48c2.12.24,4.63.39,7.54.47l-1,12.96c-.51-.04-1.78-.13-3.8-.27-2.02-.14-3.25-.21-3.68-.21l-.41,4.83c7.31.51,11.02.77,11.14.77l-.47,6.89c-1.1-.04-5.42-.29-12.96-.77-7.74-.47-11.57-.73-11.49-.77.83-11.98,1.67-23.96,2.53-35.94m0-6c-3.12,0-5.75,2.41-5.98,5.57-.84,11.69-1.69,23.74-2.53,35.83-.05.57-.02,1.16.1,1.75.34,1.66,1.59,4.5,6.14,4.85.49.04,1.24.09,2.22.16,1.92.13,4.8.31,8.64.54,7.64.48,11.93.73,13.11.77.07,0,.15,0,.22,0,3.14,0,5.77-2.43,5.98-5.59l.47-6.89c.11-1.66-.47-3.29-1.6-4.5-.46-.5-1-.91-1.59-1.22l.81-10.52c.4-.21.77-.46,1.12-.76,1.23-1.05,1.98-2.56,2.09-4.17l.53-8.19c.1-1.6-.44-3.18-1.51-4.38-1.07-1.2-2.58-1.92-4.18-2-7.89-.39-15.87-.8-23.71-1.24-.11,0-.22,0-.33,0h0Z"/>
      </g>
      <g>
        <path d="m231.78,40.02c-2.08,0-3.96-.77-5.42-2.23-1.46-1.46-2.23-3.31-2.23-5.36s.77-3.96,2.23-5.42c1.46-1.46,3.33-2.23,5.42-2.23s3.9.77,5.36,2.23c1.46,1.46,2.23,3.34,2.23,5.42s-.77,3.9-2.23,5.36c-1.46,1.46-3.31,2.23-5.36,2.23Zm.18-21.62c-2.05,0-3.9-.77-5.36-2.23-1.46-1.46-2.23-3.33-2.23-5.42s.77-3.9,2.23-5.36c1.46-1.46,3.32-2.23,5.36-2.23s3.96.77,5.42,2.23c1.46,1.47,2.24,3.32,2.24,5.36s-.77,3.96-2.23,5.42c-1.46,1.46-3.34,2.23-5.42,2.23Z"/>
        <path d="m231.95,6.15c1.3,0,2.4.45,3.3,1.35.9.9,1.35,1.98,1.35,3.24s-.45,2.4-1.35,3.3c-.9.9-2,1.35-3.3,1.35s-2.34-.45-3.24-1.35c-.9-.9-1.35-2-1.35-3.3s.45-2.34,1.35-3.24c.9-.9,1.98-1.35,3.24-1.35m-.18,21.62c1.26,0,2.34.45,3.24,1.35.9.9,1.36,2,1.36,3.3s-.45,2.34-1.36,3.24c-.9.9-1.98,1.35-3.24,1.35s-2.4-.45-3.3-1.35c-.9-.9-1.36-1.98-1.36-3.24s.45-2.4,1.36-3.3c.9-.9,2-1.35,3.3-1.35m.18-27.62c-2.86,0-5.45,1.08-7.48,3.11-2.04,2.04-3.11,4.62-3.11,7.48s1.08,5.51,3.12,7.55c2.03,2.03,4.62,3.11,7.48,3.11s5.51-1.08,7.54-3.11c2.04-2.04,3.11-4.64,3.11-7.54s-1.07-5.44-3.11-7.48c-2.04-2.04-4.65-3.12-7.55-3.12h0Zm-.18,21.62c-2.9,0-5.51,1.08-7.54,3.11-2.04,2.03-3.11,4.64-3.11,7.54s1.08,5.45,3.12,7.49c2.03,2.03,4.64,3.11,7.54,3.11s5.45-1.08,7.48-3.11c2.03-2.03,3.11-4.62,3.11-7.48s-1.08-5.5-3.11-7.54c-2.04-2.04-4.62-3.11-7.48-3.11h0Z"/>
      </g>
      <g>
        <path d="m297.35,46.97c-.14,0-.28,0-.42-.03-1.39-.19-2.12-.89-5.64-5.28-.54-.67-.99-1.25-1.38-1.74-1.39,1.27-3.39,3.07-5.96,5.35-.55.49-1.27.76-1.99.76-.22,0-.44-.02-.66-.07-.94-.21-1.73-.87-2.1-1.76-2.28-5.39-4.57-10.79-6.89-16.22-4.09-9.73-6.44-15.68-7.19-18.21-.23-.79-.13-1.64.28-2.35.41-.71,1.09-1.22,1.89-1.42l10.25-2.48c.24-.06.47-.08.71-.08,1.32,0,2.52.87,2.89,2.2.14.49.77,2.33,3.49,9.12.58,1.44,1.06,2.65,1.46,3.67.91-1.25,2.01-2.75,3.3-4.5.57-.77,1.47-1.23,2.42-1.23.04,0,.07,0,.11,0,1,.04,1.91.56,2.43,1.41.31.5.96,1.64,2.93,5.53.57-.94,1.26-2.11,2.11-3.55,3.74-6.36,4.93-8.66,5.27-9.46.33-.78.98-1.39,1.78-1.66.32-.11.65-.16.98-.16.5,0,1,.13,1.45.38l8.84,4.89c1.44.8,1.97,2.61,1.18,4.06-.12.21-.39.71-18.98,31.4-.55.91-1.53,1.45-2.56,1.45Z"/>
        <path d="m278.26,6.45c.27.99,1.47,4.13,3.59,9.43,2.12,5.3,3.24,8.25,3.36,8.84.31-.43,2.51-3.44,6.6-9.01.59.94,2.3,4.26,5.12,9.96.27-.12,1.95-2.8,5.04-8.04,3.08-5.24,4.9-8.51,5.45-9.81l8.84,4.89c-.24.43-6.54,10.86-18.91,31.28-.28-.04-1.51-1.43-3.71-4.18-2-2.51-3.12-3.98-3.36-4.42,0,0,0,0,0,0,0,0,0,0,0,0,.06.13-2.71,2.69-8.31,7.66-2.28-5.39-4.58-10.8-6.89-16.23-4.01-9.52-6.36-15.48-7.07-17.88l10.25-2.48m-.01-6c-.46,0-.93.05-1.39.17l-10.25,2.48c-1.6.39-2.97,1.41-3.79,2.83-.82,1.42-1.02,3.12-.56,4.69.5,1.68,1.79,5.43,7.29,18.51,2.33,5.45,4.62,10.85,6.9,16.24.75,1.78,2.32,3.09,4.2,3.52.44.1.88.15,1.32.15,1.45,0,2.87-.53,3.98-1.51,1.36-1.21,2.56-2.28,3.6-3.22,2.96,3.69,4.35,5.25,6.96,5.62.28.04.56.06.83.06,2.08,0,4.03-1.08,5.13-2.89,18.63-30.75,18.89-31.24,19.05-31.53,1.58-2.9.52-6.52-2.37-8.12l-8.84-4.89c-.9-.5-1.9-.75-2.91-.75-.66,0-1.32.11-1.95.33-1.61.55-2.9,1.76-3.57,3.33-.19.45-1,2.11-4.45,8.01-.25-.46-.42-.74-.55-.95-1.05-1.69-2.88-2.74-4.87-2.82-.07,0-.15,0-.22,0-1.91,0-3.71.91-4.84,2.45-.03.04-.06.08-.09.13-2.33-5.85-2.76-7.17-2.84-7.44-.75-2.63-3.17-4.39-5.79-4.39h0Z"/>
      </g>
      <g>
        <path d="m350.24,46.97c-.95,0-1.86-.45-2.43-1.25-.79-1.1-1.56-2.17-2.31-3.23-.85-1.19-1.44-2.02-1.84-2.59h-10.75c-.32.56-.74,1.29-1.31,2.28-1.87,3.21-2.01,3.4-2.14,3.58-.58.77-1.47,1.21-2.41,1.21-.27,0-.54-.04-.81-.11l-10.36-2.89c-1.53-.43-2.46-1.97-2.13-3.52.16-.74.28-1.32,10.74-18.57l10.37-17c.54-.89,1.51-1.44,2.56-1.44,0,0,.42,0,.42,0,.99,0,1.91.49,2.47,1.3.17.25.7,1.02,10.97,17.55,10.32,16.61,10.63,17.23,10.8,17.56.4.79.42,1.72.07,2.53-.35.81-1.04,1.43-1.89,1.69l-9.15,2.77c-.29.09-.58.13-.87.13Z"/>
        <path d="m337.41,6.44h.41c.43.63,4.07,6.44,10.9,17.44,6.83,11,10.39,16.77,10.66,17.32l-9.15,2.77c-.79-1.09-1.55-2.16-2.3-3.21-1.61-2.26-2.52-3.54-2.71-3.86h-14.1c-.23.47-.95,1.73-2.13,3.77-1.19,2.04-1.84,3.14-1.96,3.3l-10.36-2.89c.12-.55,3.57-6.43,10.37-17.64,3.46-5.66,6.91-11.33,10.37-16.99m-3.47,22.8h8.54c-1.5-2.44-3.01-4.94-4.51-7.49,0,.04-.67,1.29-2.01,3.75-1.34,2.46-2.01,3.71-2.01,3.75m3.47-28.8c-2.09,0-4.03,1.09-5.12,2.88l-10.37,16.99c-10.72,17.69-10.84,18.22-11.11,19.51-.67,3.1,1.2,6.19,4.25,7.04l10.36,2.89c.53.15,1.08.22,1.61.22,1.87,0,3.66-.87,4.81-2.42.24-.32.38-.51,2.33-3.86.16-.28.32-.55.46-.79h7.47c.28.39.59.83.96,1.34.75,1.05,1.52,2.13,2.32,3.24,1.15,1.59,2.97,2.49,4.87,2.49.58,0,1.16-.08,1.74-.26l9.15-2.77c1.69-.51,3.07-1.75,3.77-3.37.7-1.62.65-3.48-.15-5.06-.23-.45-.54-1.07-10.93-17.8-10.31-16.59-10.83-17.34-11.05-17.66-1.12-1.63-2.96-2.6-4.94-2.61h-.41s0,0-.01,0h0Z"/>
      </g>
      <g>
        <path d="m381.66,46.68c-.78,0-1.54-.31-2.1-.86-.5-.49-.81-1.14-.88-1.83-.03-.23-.2-1.27-.89-5.48-.27-1.66-.47-2.77-.61-3.52-.04,0-.08-.02-.13-.03-.15.63-.33,1.37-.55,2.26-.93,3.83-1.14,4.76-1.18,4.98-.1.75-.49,1.43-1.08,1.91-.54.44-1.21.67-1.89.67-.21,0-.42-.02-.62-.07l-10.84-2.3c-.91-.19-1.68-.8-2.08-1.63-.37-.77-.39-1.66-.07-2.45.19-.6.96-3.55,3.85-16.25,2.98-12.92,3.57-15.74,3.66-16.24.1-.82.52-1.56,1.18-2.05.52-.39,1.15-.6,1.8-.6.2,0,.41.02.61.06l9.07,1.89c4.07.86,6.91,1.59,8.71,2.23,3.37,1.09,6.16,2.67,8.23,4.67,2.35,2.27,3.54,4.86,3.54,7.7,0,.95-.14,1.91-.42,2.85-.57,2.01-1.64,3.77-3.18,5.24-.73.76-1.63,1.45-2.73,2.1.47,1.86,1.42,5.55,3.29,12.75.23.89.04,1.83-.51,2.57-.55.73-1.41,1.17-2.33,1.19,0,0-11.82.24-11.84.24Z"/>
        <path d="m369.22,6.21c3.02.63,6.05,1.26,9.07,1.89,3.89.82,6.66,1.53,8.31,2.12,3.02.98,5.41,2.32,7.16,4.01,1.75,1.69,2.62,3.54,2.62,5.54,0,.67-.1,1.34-.29,2-.43,1.53-1.24,2.85-2.42,3.95-.67.71-1.59,1.38-2.77,2-.86.51-1.28.85-1.24,1,.08.43,1.33,5.34,3.77,14.73l-11.78.24c0-.08-.3-1.96-.91-5.66-.61-3.69-.97-5.54-1.09-5.54-.79-.2-1.57-.37-2.36-.53-.79-.16-1.55-.31-2.3-.47l-.18-.12s-.41,1.76-1.24,5.16c-.83,3.4-1.24,5.15-1.24,5.27l-10.84-2.3c.24-.47,1.57-6.05,4.01-16.73,2.43-10.57,3.67-16.08,3.71-16.56m11.43,15.49c1.89,0,2.95-.47,3.18-1.41.08-.31.12-.61.12-.88,0-1.77-1.89-3.08-5.66-3.95-.71,3.18-1.12,4.87-1.24,5.07v.71c1.22.31,2.42.47,3.59.47M369.22.21c-1.28,0-2.55.41-3.59,1.19-1.29.97-2.14,2.41-2.35,4-.12.65-.76,3.64-3.61,16.02-2.82,12.38-3.57,15.28-3.77,15.95-.58,1.53-.51,3.24.2,4.73.81,1.68,2.34,2.88,4.16,3.27l10.84,2.3c.41.09.83.13,1.24.13,1.36,0,2.7-.46,3.78-1.34.05-.04.1-.08.15-.13.3.6.69,1.16,1.18,1.64,1.12,1.1,2.63,1.72,4.2,1.72.04,0,.08,0,.12,0l11.78-.24c1.84-.04,3.55-.91,4.66-2.38s1.49-3.35,1.03-5.13c-1.35-5.19-2.21-8.54-2.76-10.7.51-.4.99-.82,1.42-1.27,1.91-1.82,3.24-4.02,3.96-6.55.35-1.21.53-2.44.53-3.66,0-2.53-.77-6.29-4.45-9.85-2.39-2.31-5.55-4.11-9.4-5.37-1.92-.68-4.87-1.43-9-2.31l-6.11-1.27-2.98-.62c-.4-.08-.81-.13-1.22-.13h0Z"/>
      </g>
      <g>
        <path d="m414,46.97c-.17,0-.34-.01-.51-.04l-13.67-2.35c-.87-.15-1.63-.68-2.08-1.44-.45-.76-.54-1.68-.24-2.52.1-.29.38-1.06,13.72-33.95.33-.82,1.01-1.45,1.86-1.73.3-.1.61-.15.92-.15.56,0,1.11.16,1.59.46.33.21.7.44,7.08,6.21,1.67,1.52,2.95,2.68,3.92,3.6.88-1.05,2.03-2.37,3.54-4.07,1.94-2.14,3.86-4.27,5.78-6.43.57-.64,1.39-1,2.24-1,.13,0,.25,0,.38.02.98.13,1.84.73,2.29,1.61l16.5,32.23c.4.79.44,1.71.09,2.53-.34.82-1.03,1.44-1.88,1.7l-12.31,3.83c-.29.09-.59.14-.89.14-.78,0-1.54-.3-2.11-.87-.39-.38-.41-.41-4.27-7.16-.54-.95-1.01-1.77-1.42-2.49-1.05,1.35-2.42,3.11-4.22,5.41-.58.75-1.46,1.15-2.36,1.15-.44,0-.89-.1-1.31-.3-.51-.25-.58-.28-5.69-5.58-1.37,3-2.78,6.15-4.21,9.4-.49,1.1-1.57,1.79-2.75,1.79Z"/>
        <path d="m438.15,6.56l16.5,32.23-12.31,3.83c-.08-.08-1.34-2.25-3.77-6.51-2.44-4.26-3.65-6.41-3.65-6.45,0,.08-2.32,3.08-6.95,9.01-.08-.04-2.71-2.75-7.89-8.13-1.96,4.22-3.99,8.7-6.07,13.43l-13.67-2.35c.24-.67,4.79-11.94,13.67-33.82.31.2,2.53,2.16,6.66,5.89,4.12,3.73,6.21,5.74,6.25,6.01-.04-.31,1.79-2.55,5.48-6.72,1.92-2.12,3.85-4.26,5.77-6.42m0-6c-1.7,0-3.33.72-4.48,2.01-1.89,2.13-3.82,4.27-5.74,6.38-.02.02-.03.03-.05.05-.55.62-1.07,1.21-1.55,1.75-.51-.47-1.06-.97-1.66-1.51-6.57-5.95-6.94-6.18-7.5-6.53-.97-.61-2.07-.92-3.19-.92-.62,0-1.24.1-1.84.29-1.69.55-3.05,1.81-3.71,3.45-13.37,32.95-13.64,33.71-13.77,34.08-.59,1.67-.41,3.51.48,5.03.89,1.52,2.42,2.58,4.16,2.88l13.67,2.35c.34.06.68.09,1.02.09,2.35,0,4.52-1.38,5.49-3.58.8-1.82,1.59-3.61,2.38-5.35,2.52,2.57,2.76,2.68,3.46,3.03.84.41,1.74.61,2.63.61,1.8,0,3.56-.81,4.73-2.31.52-.66,1.01-1.29,1.47-1.88,3.26,5.71,3.31,5.75,3.96,6.4,1.14,1.13,2.66,1.73,4.22,1.73.6,0,1.2-.09,1.78-.27l12.31-3.83c1.69-.53,3.06-1.77,3.75-3.4s.62-3.48-.19-5.06l-16.5-32.23c-.9-1.76-2.62-2.97-4.58-3.22-.25-.03-.51-.05-.76-.05h0Z"/>
      </g>
    </g>
  </g>
  <g id="theme_:_warm" data-name="theme : warm">
    <g>
      <path class="cls-1" d="m20.67,44.16l-3.98-25.37-9.15,1.38-1.47-9.31c3.54-.51,12.75-1.9,27.63-4.18l1.42,9.08-9.42,1.49,3.88,25.55-8.91,1.37Z"/>
      <path class="cls-1" d="m42.01,43.86c-1.3-14.89-2.32-26.43-3.06-34.64l11.19-1c.04-.08.22,1.57.53,4.95.12,1.65.25,3.32.41,5.01l12.37-1.06c-.51-6.01-.81-9.27-.88-9.78l10.9-1c1.06,11.47,2.12,22.94,3.18,34.41l-11.78,1.06c-.24-2.12-.61-6.11-1.12-11.96l-10.9,1c.59,7.38.93,11.37,1,11.96l-11.84,1.06Z"/>
      <path class="cls-1" d="m106.23,44.09c-1.1-.04-5.42-.29-12.96-.77-7.74-.47-11.57-.73-11.49-.77.82-11.98,1.67-23.96,2.53-35.94,7.86.43,15.77.85,23.74,1.24l-.53,8.19c-3.42-.31-6.89-.61-10.43-.88l-.18,3.48c2.12.24,4.63.39,7.54.47l-1,12.96c-.51-.04-1.78-.13-3.8-.27-2.02-.14-3.25-.21-3.68-.21l-.41,4.83c7.31.51,11.02.77,11.14.77l-.47,6.89Z"/>
      <path class="cls-1" d="m111.71,41.62c.24-.67,4.79-11.94,13.67-33.82.31.2,2.53,2.16,6.66,5.89,4.12,3.73,6.21,5.74,6.25,6.01-.04-.31,1.79-2.55,5.48-6.72,1.92-2.12,3.85-4.26,5.77-6.42l16.5,32.23-12.31,3.83c-.08-.08-1.34-2.25-3.77-6.51-2.44-4.26-3.65-6.41-3.65-6.45,0,.08-2.32,3.08-6.95,9.01-.08-.04-2.71-2.75-7.89-8.13-1.96,4.22-3.99,8.7-6.07,13.43l-13.67-2.35Z"/>
      <path class="cls-1" d="m194.43,44.09c-1.1-.04-5.42-.29-12.96-.77-7.74-.47-11.57-.73-11.49-.77.83-11.98,1.67-23.96,2.53-35.94,7.86.43,15.77.85,23.74,1.24l-.53,8.19c-3.42-.31-6.89-.61-10.43-.88l-.18,3.48c2.12.24,4.63.39,7.54.47l-1,12.96c-.51-.04-1.78-.13-3.8-.27-2.02-.14-3.25-.21-3.68-.21l-.41,4.83c7.31.51,11.02.77,11.14.77l-.47,6.89Z"/>
      <path class="cls-1" d="m228.48,35.67c-.9-.9-1.36-1.98-1.36-3.24s.45-2.4,1.36-3.3c.9-.9,2-1.35,3.3-1.35s2.34.45,3.24,1.35c.9.9,1.36,2,1.36,3.3s-.45,2.34-1.36,3.24c-.9.9-1.98,1.35-3.24,1.35s-2.4-.45-3.3-1.35Zm.24-21.62c-.9-.9-1.35-2-1.35-3.3s.45-2.34,1.35-3.24c.9-.9,1.98-1.35,3.24-1.35s2.4.45,3.3,1.35c.9.9,1.35,1.98,1.35,3.24s-.45,2.4-1.35,3.3c-.9.9-2,1.35-3.3,1.35s-2.34-.45-3.24-1.35Z"/>
      <path class="cls-1" d="m278.26,6.45c.27.99,1.47,4.13,3.59,9.43,2.12,5.3,3.24,8.25,3.36,8.84.31-.43,2.51-3.44,6.6-9.01.59.94,2.3,4.26,5.12,9.96.27-.12,1.95-2.8,5.04-8.04,3.08-5.24,4.9-8.51,5.45-9.81l8.84,4.89c-.24.43-6.54,10.86-18.91,31.28-.28-.04-1.51-1.43-3.71-4.18-2-2.51-3.12-3.99-3.36-4.42.08.12-2.69,2.67-8.31,7.66-2.28-5.39-4.58-10.8-6.89-16.23-4.01-9.52-6.36-15.48-7.07-17.88l10.25-2.48Z"/>
      <path class="cls-1" d="m316.67,41.08c.12-.55,3.57-6.43,10.37-17.64,3.46-5.66,6.91-11.33,10.37-16.99h.41c.43.63,4.07,6.44,10.9,17.44,6.83,11,10.39,16.77,10.66,17.32l-9.15,2.77c-.79-1.09-1.55-2.16-2.3-3.21-1.61-2.26-2.52-3.54-2.71-3.86h-14.1c-.23.47-.95,1.73-2.13,3.77-1.19,2.04-1.84,3.14-1.96,3.3l-10.36-2.89Zm25.8-11.83c-1.5-2.44-3.01-4.94-4.51-7.49,0,.04-.67,1.29-2.01,3.75-1.34,2.46-2.01,3.71-2.01,3.75h8.54Z"/>
      <path class="cls-1" d="m374.82,31.37s-.41,1.76-1.24,5.16c-.83,3.4-1.24,5.15-1.24,5.27l-10.84-2.3c.24-.47,1.57-6.05,4.01-16.73,2.43-10.57,3.67-16.08,3.71-16.56,3.02.63,6.05,1.26,9.07,1.89,3.89.82,6.66,1.53,8.31,2.12,3.02.98,5.41,2.32,7.16,4.01,1.75,1.69,2.62,3.54,2.62,5.54,0,.67-.1,1.34-.29,2-.43,1.53-1.24,2.85-2.42,3.95-.67.71-1.59,1.38-2.77,2-.86.51-1.28.85-1.24,1,.08.43,1.33,5.34,3.77,14.73l-11.78.24c0-.08-.3-1.96-.91-5.66-.61-3.69-.97-5.54-1.09-5.54-.79-.2-1.57-.37-2.36-.53-.79-.16-1.55-.31-2.3-.47l-.18-.12Zm2.24-10.13c1.22.31,2.42.47,3.59.47,1.89,0,2.95-.47,3.18-1.41.08-.31.12-.61.12-.88,0-1.77-1.89-3.08-5.66-3.95-.71,3.18-1.12,4.87-1.24,5.07v.71Z"/>
      <path class="cls-1" d="m400.33,41.62c.24-.67,4.79-11.94,13.67-33.82.31.2,2.53,2.16,6.66,5.89,4.12,3.73,6.21,5.74,6.25,6.01-.04-.31,1.79-2.55,5.48-6.72,1.92-2.12,3.85-4.26,5.77-6.42l16.5,32.23-12.31,3.83c-.08-.08-1.34-2.25-3.77-6.51-2.44-4.26-3.65-6.41-3.65-6.45,0,.08-2.32,3.08-6.95,9.01-.08-.04-2.71-2.75-7.89-8.13-1.96,4.22-3.99,8.7-6.07,13.43l-13.67-2.35Z"/>
    </g>
  </g>
</svg>