<?xml version="1.0" encoding="UTF-8"?>
<svg xmlns="http://www.w3.org/2000/svg" viewBox="0 0 460.93 50.32">
  <defs>
    <style>
      .cls-1 {
        fill: #fff;
      }

      .cls-2 {
        stroke: #000;
        stroke-linejoin: round;
        stroke-width: 6px;
      }
    </style>
  </defs>
  <g id="outline">
    <g>
      <g>
        <path d="m20.67,47.16c-1.45,0-2.73-1.06-2.96-2.54l-3.51-22.42-6.2.94c-.15.02-.3.03-.45.03-1.45,0-2.73-1.05-2.96-2.53l-1.47-9.31c-.12-.79.07-1.6.55-2.25.48-.65,1.19-1.07,1.99-1.19,3.5-.5,12.53-1.87,27.61-4.18.15-.02.31-.04.46-.04,1.45,0,2.73,1.06,2.96,2.54l1.42,9.08c.25,1.64-.86,3.17-2.5,3.43l-6.48,1.02,3.44,22.6c.25,1.64-.88,3.17-2.51,3.42l-8.91,1.37c-.15.02-.31.04-.46.04Z"/>
        <path d="m33.71,6.68l1.42,9.08-9.42,1.49,3.88,25.55-8.91,1.37-3.98-25.37-9.15,1.38-1.47-9.31c3.54-.51,12.75-1.9,27.63-4.18m0-6c-.3,0-.61.02-.91.07C17.72,3.06,8.7,4.42,5.22,4.93c-1.59.23-3.02,1.09-3.97,2.38C.29,8.6-.1,10.22.15,11.8l1.47,9.31c.47,2.95,3.02,5.06,5.92,5.06.3,0,.6-.02.91-.07l3.25-.49,3.05,19.48c.46,2.96,3.02,5.07,5.92,5.07.3,0,.61-.02.92-.07l8.91-1.37c3.27-.5,5.52-3.56,5.02-6.83l-2.99-19.65,3.53-.56c3.27-.52,5.5-3.58,4.99-6.85l-1.42-9.08c-.46-2.96-3.01-5.08-5.92-5.08h0Z"/>
      </g>
      <g>
        <path d="m42.01,46.86c-.7,0-1.38-.25-1.93-.7-.61-.51-.99-1.25-1.06-2.04-1.3-14.88-2.32-26.42-3.06-34.63-.07-.79.17-1.58.68-2.19s1.24-.99,2.04-1.07l11.08-.99c.13-.02.26-.02.39-.02,2.73,0,3.01,2.65,3.15,3.92.09.83.21,2.08.37,3.75.05.69.1,1.37.16,2.04l6.4-.55c-.44-5.12-.57-6.35-.6-6.6-.12-.81.1-1.65.61-2.3.51-.65,1.26-1.06,2.08-1.14l10.9-1c.09,0,.19-.01.28-.01,1.53,0,2.84,1.17,2.98,2.72l3.18,34.41c.07.79-.17,1.58-.68,2.2-.51.61-1.24,1-2.04,1.07l-11.78,1.06c-.09,0-.18.01-.27.01-1.51,0-2.81-1.14-2.98-2.67-.2-1.78-.49-4.81-.86-9.03l-4.95.45c.59,7.3.72,8.64.75,8.87.1.81-.13,1.62-.64,2.26s-1.26,1.03-2.07,1.11l-11.84,1.06c-.09,0-.18.01-.27.01Z"/>
        <path d="m73.47,6.33c1.06,11.47,2.12,22.94,3.18,34.41l-11.78,1.06c-.24-2.12-.61-6.11-1.12-11.96l-10.9,1c.59,7.38.93,11.37,1,11.96l-11.84,1.06c-1.3-14.89-2.32-26.43-3.06-34.64l11.19-1s0,0,0,0c.04,0,.22,1.65.53,4.95.12,1.65.25,3.32.41,5.01l12.37-1.06c-.51-6.01-.81-9.27-.88-9.78l10.9-1m0-6c-.18,0-.37,0-.56.03l-10.9,1c-1.65.15-3.16.98-4.18,2.28-1.01,1.29-1.45,2.94-1.21,4.56.03.2.1.92.33,3.45l-.4.03c-.12-1.23-.21-2.19-.28-2.87-.05-.48-.09-.84-.13-1.08-.5-3.79-3.47-5.52-6.01-5.52-.24,0-.47.01-.7.04l-11.03.99c-1.59.14-3.05.91-4.07,2.13-1.02,1.22-1.51,2.8-1.37,4.39.75,8.25,1.78,19.9,3.06,34.62.14,1.59.9,3.06,2.12,4.08,1.08.91,2.45,1.4,3.85,1.4.18,0,.36,0,.54-.02l11.84-1.06c1.62-.15,3.12-.94,4.14-2.21.47-.58.82-1.25,1.05-1.95,1.02,1.92,3.04,3.18,5.29,3.18.18,0,.36,0,.54-.02l11.78-1.06c1.59-.14,3.05-.91,4.07-2.14,1.02-1.22,1.51-2.81,1.36-4.39l-1.72-18.65-1.46-15.75c-.29-3.11-2.9-5.45-5.97-5.45h0Z"/>
      </g>
      <g>
        <path d="m106.12,47.09c-1.15-.04-5.41-.29-13.04-.77-3.83-.23-6.7-.41-8.62-.54-3.75-.25-5.16-.34-5.62-2.62-.05-.26-.07-.54-.05-.8.82-11.98,1.67-23.96,2.53-35.95.11-1.58,1.43-2.78,2.99-2.78.06,0,.11,0,.17,0,7.84.43,15.82.85,23.72,1.24.8.04,1.56.4,2.09,1s.81,1.39.76,2.19l-.53,8.19c-.05.81-.43,1.56-1.04,2.09-.55.47-1.24.72-1.95.72-.02,0-.04,0-.06,0,0,.1,0,.2,0,.29l-1,12.96c-.05.71-.35,1.34-.8,1.82.77.05,1.06.07,1.16.08.79.03,1.54.37,2.09.95.57.61.86,1.42.8,2.25l-.47,6.89c-.11,1.58-1.42,2.79-2.99,2.79-.04,0-.07,0-.11,0Z"/>
        <path d="m84.31,6.62c7.86.43,15.77.85,23.74,1.24l-.53,8.19c-3.42-.31-6.89-.61-10.43-.88l-.18,3.48c2.12.24,4.63.39,7.54.47l-1,12.96c-.51-.04-1.78-.13-3.8-.27-2.02-.14-3.25-.21-3.68-.21l-.41,4.83c7.31.51,11.02.77,11.14.77l-.47,6.89c-1.1-.04-5.42-.29-12.96-.77-7.74-.47-11.57-.73-11.49-.77.82-11.98,1.67-23.96,2.53-35.94m0-6c-3.12,0-5.75,2.41-5.98,5.57-.85,11.84-1.7,23.89-2.53,35.83-.05.57-.02,1.16.1,1.74.34,1.66,1.58,4.51,6.14,4.86.49.04,1.24.09,2.22.16,1.92.13,4.8.31,8.64.54,7.64.48,11.93.73,13.11.77.07,0,.15,0,.22,0,3.14,0,5.77-2.43,5.98-5.59l.47-6.89c.11-1.66-.47-3.29-1.6-4.51-.46-.5-1-.91-1.59-1.22l.81-10.52c.4-.21.77-.46,1.12-.76,1.23-1.05,1.98-2.56,2.09-4.17l.53-8.19c.1-1.6-.44-3.18-1.51-4.38s-2.58-1.92-4.18-2c-7.9-.39-15.87-.8-23.71-1.24-.11,0-.22,0-.33,0h0Z"/>
      </g>
      <g>
        <path d="m125.38,46.97c-.17,0-.34-.01-.51-.04l-13.67-2.35c-.87-.15-1.63-.68-2.08-1.44-.45-.76-.54-1.68-.24-2.52.1-.29.38-1.06,13.72-33.95.33-.82,1.01-1.45,1.86-1.73.3-.1.61-.15.92-.15.56,0,1.11.16,1.59.46.33.21.7.44,7.08,6.21,1.67,1.52,2.95,2.68,3.92,3.6.88-1.05,2.03-2.37,3.54-4.07,1.94-2.14,3.86-4.27,5.78-6.43.57-.64,1.39-1,2.24-1,.13,0,.25,0,.38.02.98.13,1.84.73,2.29,1.61l16.5,32.23c.4.79.44,1.71.1,2.53-.34.82-1.03,1.44-1.87,1.7l-12.31,3.83c-.29.09-.59.14-.89.14-.78,0-1.54-.3-2.11-.87-.39-.38-.41-.41-4.27-7.16-.54-.95-1.01-1.77-1.42-2.49-1.05,1.35-2.42,3.11-4.22,5.41-.58.75-1.46,1.15-2.37,1.15-.44,0-.89-.1-1.31-.3-.51-.25-.58-.28-5.69-5.58-1.37,3-2.78,6.15-4.21,9.4-.49,1.1-1.57,1.79-2.74,1.79Z"/>
        <path d="m149.53,6.56l16.5,32.23-12.31,3.83c-.08-.08-1.34-2.25-3.77-6.51-2.44-4.26-3.65-6.41-3.65-6.45,0,.08-2.32,3.08-6.95,9.01-.08-.04-2.71-2.75-7.89-8.13-1.96,4.22-3.99,8.7-6.07,13.43l-13.67-2.35c.24-.67,4.79-11.94,13.67-33.82.31.2,2.53,2.16,6.66,5.89,4.12,3.73,6.21,5.74,6.25,6.01-.04-.31,1.79-2.55,5.48-6.72,1.92-2.12,3.85-4.26,5.77-6.42m0-6c-1.7,0-3.33.72-4.48,2.01-1.89,2.13-3.82,4.27-5.74,6.38-.02.02-.03.03-.05.05-.55.62-1.07,1.21-1.55,1.75-.51-.47-1.06-.97-1.66-1.51-6.57-5.95-6.94-6.18-7.5-6.53-.97-.61-2.07-.92-3.19-.92-.62,0-1.24.1-1.84.29-1.69.55-3.05,1.81-3.71,3.45-13.37,32.95-13.64,33.71-13.77,34.08-.59,1.67-.41,3.51.48,5.03.89,1.52,2.42,2.58,4.16,2.88l13.67,2.35c.34.06.68.09,1.02.09,2.35,0,4.52-1.38,5.49-3.58.8-1.82,1.59-3.61,2.38-5.35,2.52,2.57,2.76,2.68,3.46,3.03.84.41,1.74.61,2.63.61,1.8,0,3.56-.81,4.73-2.31.52-.66,1.01-1.29,1.47-1.88,3.26,5.71,3.31,5.75,3.96,6.4,1.14,1.13,2.66,1.73,4.22,1.73.6,0,1.2-.09,1.78-.27l12.31-3.83c1.69-.53,3.06-1.77,3.75-3.4.69-1.63.62-3.48-.19-5.06L154.87,3.83c-.9-1.76-2.62-2.97-4.58-3.22-.25-.03-.51-.05-.76-.05h0Z"/>
      </g>
      <g>
        <path d="m194.32,47.09c-1.15-.04-5.41-.29-13.04-.77-3.83-.23-6.7-.41-8.62-.54-3.75-.25-5.16-.34-5.62-2.62-.05-.27-.07-.54-.05-.81.83-11.98,1.67-23.96,2.53-35.95.11-1.58,1.43-2.78,2.99-2.78.06,0,.11,0,.17,0,7.84.43,15.83.85,23.73,1.24.8.04,1.56.4,2.09,1,.53.6.81,1.39.75,2.19l-.53,8.19c-.05.81-.43,1.56-1.04,2.09-.55.47-1.24.72-1.95.72-.02,0-.04,0-.06,0,0,.1,0,.2,0,.29l-1,12.96c-.05.71-.35,1.34-.8,1.82.8.05,1.07.07,1.16.08.79.03,1.54.37,2.09.95.57.61.86,1.42.8,2.25l-.47,6.89c-.11,1.58-1.42,2.8-2.99,2.8-.04,0-.07,0-.11,0Z"/>
        <path d="m172.51,6.62c7.86.43,15.77.85,23.74,1.24l-.53,8.19c-3.42-.31-6.89-.61-10.43-.88l-.18,3.48c2.12.24,4.63.39,7.54.47l-1,12.96c-.51-.04-1.78-.13-3.8-.27-2.02-.14-3.25-.21-3.68-.21l-.41,4.83c7.31.51,11.02.77,11.14.77l-.47,6.89c-1.1-.04-5.42-.29-12.96-.77-7.74-.47-11.57-.73-11.49-.77.83-11.98,1.67-23.96,2.53-35.94m0-6c-3.12,0-5.75,2.41-5.98,5.57-.84,11.69-1.69,23.74-2.53,35.83-.05.57-.02,1.16.1,1.75.34,1.66,1.59,4.5,6.14,4.85.49.04,1.24.09,2.22.16,1.92.13,4.8.31,8.64.54,7.64.48,11.93.73,13.11.77.07,0,.15,0,.22,0,3.14,0,5.77-2.43,5.98-5.59l.47-6.89c.11-1.66-.47-3.29-1.6-4.5-.46-.5-1-.91-1.59-1.22l.81-10.52c.4-.21.77-.46,1.12-.76,1.23-1.05,1.98-2.56,2.09-4.17l.53-8.19c.1-1.6-.44-3.18-1.51-4.38-1.07-1.2-2.58-1.92-4.18-2-7.89-.39-15.87-.8-23.71-1.24-.11,0-.22,0-.33,0h0Z"/>
      </g>
      <g>
        <path d="m231.78,40.02c-2.08,0-3.96-.77-5.42-2.23-1.46-1.46-2.23-3.31-2.23-5.36s.77-3.96,2.23-5.42c1.46-1.46,3.33-2.23,5.42-2.23s3.9.77,5.36,2.23c1.46,1.46,2.23,3.34,2.23,5.42s-.77,3.9-2.23,5.36c-1.46,1.46-3.31,2.23-5.36,2.23Zm.18-21.62c-2.05,0-3.9-.77-5.36-2.23-1.46-1.46-2.23-3.33-2.23-5.42s.77-3.9,2.23-5.36c1.46-1.46,3.32-2.23,5.36-2.23s3.96.77,5.42,2.23c1.46,1.47,2.24,3.32,2.24,5.36s-.77,3.96-2.23,5.42c-1.46,1.46-3.34,2.23-5.42,2.23Z"/>
        <path d="m231.95,6.15c1.3,0,2.4.45,3.3,1.35.9.9,1.35,1.98,1.35,3.24s-.45,2.4-1.35,3.3c-.9.9-2,1.35-3.3,1.35s-2.34-.45-3.24-1.35c-.9-.9-1.35-2-1.35-3.3s.45-2.34,1.35-3.24c.9-.9,1.98-1.35,3.24-1.35m-.18,21.62c1.26,0,2.34.45,3.24,1.35.9.9,1.36,2,1.36,3.3s-.45,2.34-1.36,3.24c-.9.9-1.98,1.35-3.24,1.35s-2.4-.45-3.3-1.35c-.9-.9-1.36-1.98-1.36-3.24s.45-2.4,1.36-3.3c.9-.9,2-1.35,3.3-1.35m.18-27.62c-2.86,0-5.45,1.08-7.48,3.11-2.04,2.04-3.11,4.62-3.11,7.48s1.08,5.51,3.12,7.55c2.03,2.03,4.62,3.11,7.48,3.11s5.51-1.08,7.54-3.11c2.04-2.04,3.11-4.64,3.11-7.54s-1.07-5.44-3.11-7.48c-2.04-2.04-4.65-3.12-7.55-3.12h0Zm-.18,21.62c-2.9,0-5.51,1.08-7.54,3.11-2.04,2.03-3.11,4.64-3.11,7.54s1.08,5.45,3.12,7.49c2.03,2.03,4.64,3.11,7.54,3.11s5.45-1.08,7.48-3.11c2.03-2.03,3.11-4.62,3.11-7.48s-1.08-5.5-3.11-7.54c-2.04-2.04-4.62-3.11-7.48-3.11h0Z"/>
      </g>
      <g>
        <path d="m287.86,46.97c-7.93,0-14.08-2.92-18.27-8.67-3.22-4.5-4.62-9.25-4.16-14.14.55-5.37,3.07-9.95,7.48-13.64,5.55-4.69,13.55-7.07,23.78-7.07,1.73,0,3.52.08,5.34.25,1.19.11,2.2.91,2.58,2.04.4,1.19.64,1.91-3.82,13.35-.45,1.15-1.56,1.91-2.79,1.91h-2c-3.31,0-5.91.6-7.72,1.79-1.77,1.16-1.77,2.13-1.77,2.54,0,.32.07.63.21.95.17.37.76,1.63,4.27,1.63,1.22-.03,2.94-.41,5.03-1.13,1.39-.53,2.87-1.06,4.34-1.58.33-.12.67-.17,1-.17,1.11,0,2.17.62,2.69,1.66l5.77,11.61c.37.74.41,1.6.13,2.38-.29.78-.88,1.4-1.64,1.72-4.56,1.93-9.61,3.35-15.01,4.21-1.87.26-3.68.39-5.42.39Z"/>
        <path d="m296.7,6.45c1.65,0,3.34.08,5.07.24.2.59-1.06,4.36-3.77,11.31h-2c-3.93,0-7.05.76-9.37,2.29-2.08,1.37-3.12,3.05-3.12,5.04,0,.74.16,1.47.47,2.17,1.06,2.27,3.4,3.4,7.01,3.4,1.61-.04,3.61-.47,6.01-1.3,1.45-.55,2.91-1.08,4.36-1.59l5.77,11.61c-4.36,1.85-9.13,3.18-14.32,4.01-1.69.24-3.34.35-4.95.35-6.95,0-12.24-2.48-15.85-7.44-2.79-3.89-3.99-7.93-3.59-12.1.47-4.56,2.61-8.44,6.42-11.62,5.03-4.25,12.31-6.37,21.86-6.37m0-6c-10.96,0-19.61,2.62-25.73,7.79-5.01,4.19-7.88,9.44-8.52,15.59,0,.02,0,.04,0,.05-.53,5.63,1.05,11.07,4.69,16.15,4.75,6.52,11.91,9.94,20.73,9.94,1.88,0,3.82-.14,5.78-.41.04,0,.08-.01.11-.02,5.64-.9,10.93-2.38,15.71-4.41,1.52-.65,2.71-1.89,3.29-3.44.57-1.55.48-3.27-.26-4.75l-5.77-11.61c-.88-1.77-2.52-2.92-4.35-3.24.51-.55.93-1.2,1.21-1.92,4.41-11.3,4.67-13,3.87-15.39-.75-2.26-2.78-3.86-5.15-4.08-1.91-.17-3.79-.26-5.61-.26h0Zm-6.04,24.45c1.04-.47,2.43-.77,4.08-.86-2.09.7-3.28.85-3.84.87-.09,0-.17,0-.25,0h0Z"/>
      </g>
      <g>
        <path d="m328.4,46.97c-6.38,0-11.63-1.99-15.6-5.92-3.84-3.84-5.78-8.75-5.78-14.6s2.1-11.37,6.25-15.72c4.53-4.76,10.47-7.17,17.66-7.17,6.33,0,11.53,1.83,15.47,5.44,4.09,3.87,6.15,9.11,6.15,15.62,0,5.3-1.8,10.12-5.35,14.34-4.46,5.31-10.79,8.01-18.79,8.01Zm2.12-25.51c-.83,0-1.55.26-2.27.83-.78.64-1.15,1.47-1.15,2.68,0,.95.33,1.59,1.12,2.2.64.49,1.22.73,1.76.73.77,0,1.48-.23,2.18-.71.57-.44,1.21-1.18,1.24-2.91,0-1.34-.47-1.87-.94-2.21-.58-.41-1.21-.61-1.95-.61Z"/>
        <path d="m330.93,6.56c5.58,0,10.06,1.55,13.44,4.65,3.45,3.26,5.18,7.73,5.18,13.41,0,4.59-1.55,8.73-4.65,12.41-3.89,4.63-9.39,6.94-16.5,6.94-5.58,0-10.08-1.68-13.49-5.05-3.26-3.26-4.89-7.42-4.89-12.47,0-5.3,1.8-9.85,5.42-13.65,3.96-4.16,9.13-6.24,15.49-6.24m-.94,24.34c1.41,0,2.73-.43,3.95-1.29,1.61-1.22,2.43-2.98,2.47-5.28,0-2.07-.73-3.64-2.18-4.69-1.1-.78-2.34-1.18-3.71-1.18-1.49,0-2.87.49-4.12,1.47-1.54,1.25-2.3,2.93-2.3,5.04,0,1.88.76,3.4,2.3,4.58,1.17.9,2.37,1.35,3.59,1.35m.94-30.34c-8.04,0-14.72,2.73-19.84,8.1-4.69,4.93-7.07,10.91-7.07,17.79s2.24,12.3,6.65,16.71c4.58,4.53,10.54,6.81,17.73,6.81,8.93,0,16.03-3.06,21.09-9.08,4.02-4.77,6.06-10.24,6.06-16.27,0-7.37-2.38-13.34-7.06-17.77-.02-.02-.04-.04-.07-.06-4.51-4.13-10.39-6.23-17.5-6.23h0Zm-.78,24.06c.11-.08.19-.12.25-.14-.01.16-.04.26-.06.32-.07.04-.12.06-.17.08-.02-.01-.04-.03-.07-.05,0-.1.02-.16.02-.19,0,0,.01-.01.02-.02h0Z"/>
      </g>
      <g>
        <path d="m329.99,33.9c-1.89,0-3.72-.66-5.42-1.97-2.27-1.74-3.47-4.15-3.47-6.96,0-3.01,1.18-5.56,3.41-7.37,1.82-1.43,3.83-2.14,6.01-2.14,1.99,0,3.82.58,5.44,1.73,1.59,1.15,3.45,3.3,3.45,7.14-.06,3.27-1.32,5.9-3.66,7.67-.03.02-.06.04-.08.06-1.73,1.22-3.64,1.84-5.68,1.84Z"/>
        <path d="m330.52,18.46c1.37,0,2.61.4,3.71,1.18,1.45,1.05,2.18,2.62,2.18,4.69-.04,2.3-.86,4.06-2.47,5.28-1.22.86-2.54,1.29-3.95,1.29-1.22,0-2.42-.45-3.59-1.35-1.54-1.18-2.3-2.7-2.3-4.58,0-2.11.76-3.79,2.3-5.04,1.25-.98,2.63-1.47,4.12-1.47m0-6c-2.82,0-5.53.95-7.82,2.75-.03.02-.05.04-.08.06-2.96,2.4-4.52,5.75-4.52,9.7,0,3.73,1.65,7.04,4.65,9.34,2.2,1.69,4.7,2.59,7.24,2.59,2.67,0,5.16-.8,7.41-2.39.06-.04.11-.08.17-.12,2.16-1.64,4.75-4.69,4.85-9.96,0-.03,0-.07,0-.1,0-3.98-1.66-7.37-4.66-9.55-.02-.01-.03-.02-.05-.03-2.11-1.5-4.59-2.29-7.18-2.29h0Z"/>
      </g>
      <g>
        <path d="m358.56,46.86c-2.66,0-2.98-2.51-3.13-3.72-.09-.74-.23-1.85-.41-3.32-.35-2.94-.86-7.34-1.54-13.22-1.35-11.99-2.04-18.17-2.08-18.52-.18-1.64.99-3.11,2.62-3.31l10.88-1.3c.12-.01.24-.02.36-.02.73,0,1.44.27,1.99.76.58.51.93,1.23,1,1.99.08.81,1.62,14,2.47,21.35,4.68-.59,6.08-.79,6.47-.85.12-.03.25-.05.38-.07.11-.01.22-.02.33-.02,1.39,0,2.62.97,2.93,2.36l2.52,11.49c.18.82,0,1.68-.48,2.37-.49.69-1.24,1.14-2.07,1.25l-21.86,2.77c-.12.02-.25.02-.38.02Z"/>
        <path d="m365.26,6.44c0,.08.94,8.23,2.83,24.45,6.54-.82,9.8-1.25,9.8-1.29l2.52,11.49-21.86,2.77s0,0,0,0c-.05,0-.74-5.87-2.1-17.61-1.35-11.98-2.04-18.15-2.08-18.5l10.88-1.3m0-6c-.24,0-.47.01-.71.04l-10.88,1.3c-3.27.39-5.61,3.34-5.25,6.62.04.35.73,6.53,2.08,18.52.68,5.9,1.2,10.31,1.55,13.25.18,1.49.31,2.6.41,3.35.05.41.09.71.12.92.53,3.73,3.48,5.43,5.99,5.43.25,0,.5-.02.75-.05l21.86-2.77c1.67-.21,3.18-1.12,4.15-2.49.97-1.38,1.32-3.1.96-4.75l-2.52-11.49c-.61-2.78-3.07-4.71-5.85-4.71-.22,0-.43.01-.65.04-.21.02-.42.06-.62.1-.31.05-1.12.16-3.27.44-1.33-11.46-2.04-17.6-2.12-18.28-.14-1.51-.85-2.92-1.99-3.94-1.1-.98-2.52-1.51-3.98-1.51h0Z"/>
      </g>
      <g>
        <path d="m387.84,46.86c-1.49,0-2.98-.06-4.44-.19-1.64-.14-2.86-1.58-2.74-3.22,2.26-28.91,2.78-36.17,2.82-37.09,0-.77.28-1.52.82-2.09.57-.6,1.36-.94,2.18-.94.08,0,.16,0,.24,0,8.42.69,14.28,1.4,17.94,2.18,7.29,1.55,12.57,4.28,15.71,8.1,2.39,2.94,3.45,6.26,3.15,9.87-.63,7.92-5.01,14.09-13.02,18.31-6.33,3.36-13.96,5.06-22.67,5.06Zm11.52-19.8c.35-.13.67-.29.96-.5.88-.6,1.33-1.29,1.45-2.24.11-.89-.13-1.2-.23-1.31-.14-.17-.59-.6-1.79-.97l-.4,5.02Z"/>
        <path d="m386.49,6.33c8.21.67,14.06,1.38,17.56,2.12,6.64,1.41,11.31,3.77,14.02,7.07,1.89,2.32,2.71,4.89,2.47,7.72-.55,6.87-4.36,12.18-11.43,15.91-5.93,3.14-13.02,4.71-21.27,4.71-1.41,0-2.81-.06-4.18-.18,1.92-24.63,2.87-37.08,2.83-37.35m10.66,24.08c1.89,0,3.51-.46,4.86-1.37,1.59-1.08,2.5-2.52,2.74-4.33.47-3.65-2.1-5.71-7.72-6.19l-.94,11.84c.36.03.72.05,1.06.05M386.49.33c-1.64,0-3.22.67-4.36,1.88-1.05,1.11-1.63,2.57-1.64,4.08-.05.99-.49,7.25-2.81,36.92-.26,3.29,2.19,6.16,5.47,6.45,1.54.13,3.12.2,4.69.2,9.2,0,17.3-1.82,24.08-5.41,11.17-5.89,14.1-14.53,14.6-20.73.36-4.33-.95-8.48-3.8-11.98-3.65-4.44-9.34-7.43-17.43-9.15-3.78-.81-9.77-1.54-18.32-2.23-.16-.01-.33-.02-.49-.02h0Z"/>
      </g>
    </g>
    <polygon class="cls-2" points="294.99 22.67 295.5 24.68 291.97 27.46 289.17 26.21 288.58 23.48 291.31 22.09 294.99 22.67"/>
  </g>
  <g id="theme_:_cold" data-name="theme : cold">
    <g>
      <path class="cls-1" d="m20.67,44.16l-3.98-25.37-9.15,1.38-1.47-9.31c3.54-.51,12.75-1.9,27.63-4.18l1.42,9.08-9.42,1.49,3.88,25.55-8.91,1.37Z"/>
      <path class="cls-1" d="m42.01,43.86c-1.3-14.89-2.32-26.43-3.06-34.64l11.19-1c.04-.08.22,1.57.53,4.95.12,1.65.25,3.32.41,5.01l12.37-1.06c-.51-6.01-.81-9.27-.88-9.78l10.9-1c1.06,11.47,2.12,22.94,3.18,34.41l-11.78,1.06c-.24-2.12-.61-6.11-1.12-11.96l-10.9,1c.59,7.38.93,11.37,1,11.96l-11.84,1.06Z"/>
      <path class="cls-1" d="m106.23,44.09c-1.1-.04-5.42-.29-12.96-.77-7.74-.47-11.57-.73-11.49-.77.82-11.98,1.67-23.96,2.53-35.94,7.86.43,15.77.85,23.74,1.24l-.53,8.19c-3.42-.31-6.89-.61-10.43-.88l-.18,3.48c2.12.24,4.63.39,7.54.47l-1,12.96c-.51-.04-1.78-.13-3.8-.27-2.02-.14-3.25-.21-3.68-.21l-.41,4.83c7.31.51,11.02.77,11.14.77l-.47,6.89Z"/>
      <path class="cls-1" d="m111.71,41.62c.24-.67,4.79-11.94,13.67-33.82.31.2,2.53,2.16,6.66,5.89,4.12,3.73,6.21,5.74,6.25,6.01-.04-.31,1.79-2.55,5.48-6.72,1.92-2.12,3.85-4.26,5.77-6.42l16.5,32.23-12.31,3.83c-.08-.08-1.34-2.25-3.77-6.51-2.44-4.26-3.65-6.41-3.65-6.45,0,.08-2.32,3.08-6.95,9.01-.08-.04-2.71-2.75-7.89-8.13-1.96,4.22-3.99,8.7-6.07,13.43l-13.67-2.35Z"/>
      <path class="cls-1" d="m194.43,44.09c-1.1-.04-5.42-.29-12.96-.77-7.74-.47-11.57-.73-11.49-.77.83-11.98,1.67-23.96,2.53-35.94,7.86.43,15.77.85,23.74,1.24l-.53,8.19c-3.42-.31-6.89-.61-10.43-.88l-.18,3.48c2.12.24,4.63.39,7.54.47l-1,12.96c-.51-.04-1.78-.13-3.8-.27-2.02-.14-3.25-.21-3.68-.21l-.41,4.83c7.31.51,11.02.77,11.14.77l-.47,6.89Z"/>
      <path class="cls-1" d="m228.48,35.67c-.9-.9-1.36-1.98-1.36-3.24s.45-2.4,1.36-3.3c.9-.9,2-1.35,3.3-1.35s2.34.45,3.24,1.35c.9.9,1.36,2,1.36,3.3s-.45,2.34-1.36,3.24c-.9.9-1.98,1.35-3.24,1.35s-2.4-.45-3.3-1.35Zm.24-21.62c-.9-.9-1.35-2-1.35-3.3s.45-2.34,1.35-3.24c.9-.9,1.98-1.35,3.24-1.35s2.4.45,3.3,1.35c.9.9,1.35,1.98,1.35,3.24s-.45,2.4-1.35,3.3c-.9.9-2,1.35-3.3,1.35s-2.34-.45-3.24-1.35Z"/>
      <path class="cls-1" d="m307.13,39.61c-4.36,1.85-9.13,3.18-14.32,4.01-1.69.24-3.34.35-4.95.35-6.95,0-12.24-2.48-15.85-7.44-2.79-3.89-3.99-7.93-3.59-12.1.47-4.56,2.61-8.44,6.42-11.62,5.03-4.25,12.31-6.37,21.86-6.37,1.65,0,3.34.08,5.07.24.2.59-1.06,4.36-3.77,11.31h-2c-3.93,0-7.05.76-9.37,2.29-2.08,1.37-3.12,3.05-3.12,5.04,0,.74.16,1.47.47,2.17,1.06,2.27,3.4,3.4,7.01,3.4,1.61-.04,3.61-.47,6.01-1.3,1.45-.55,2.91-1.08,4.36-1.59l5.77,11.61Z"/>
      <path class="cls-1" d="m330.93,6.56c5.58,0,10.05,1.55,13.43,4.65,3.46,3.25,5.18,7.73,5.18,13.41,0,4.59-1.55,8.73-4.65,12.41-3.89,4.63-9.39,6.94-16.5,6.94-5.58,0-10.07-1.69-13.49-5.06-3.26-3.25-4.89-7.41-4.89-12.47s1.81-9.84,5.42-13.65c3.97-4.16,9.13-6.23,15.5-6.23Zm-.94,24.33c1.41,0,2.73-.43,3.95-1.29,1.61-1.21,2.44-2.97,2.47-5.28,0-2.07-.73-3.64-2.18-4.69-1.1-.78-2.34-1.17-3.71-1.17-1.49,0-2.87.49-4.12,1.47-1.53,1.25-2.3,2.93-2.3,5.04,0,1.88.77,3.4,2.3,4.57,1.18.9,2.38,1.35,3.59,1.35Z"/>
      <path class="cls-1" d="m380.42,41.09l-21.86,2.77s-.74-5.83-2.1-17.61c-1.35-11.98-2.04-18.15-2.08-18.5l10.88-1.3c0,.08.94,8.23,2.83,24.45,6.54-.82,9.8-1.25,9.8-1.29l2.52,11.49Z"/>
      <path class="cls-1" d="m386.49,6.33c8.21.67,14.06,1.38,17.56,2.12,6.64,1.41,11.31,3.77,14.02,7.07,1.89,2.32,2.71,4.89,2.47,7.72-.55,6.87-4.36,12.18-11.43,15.91-5.93,3.14-13.02,4.71-21.27,4.71-1.41,0-2.81-.06-4.18-.18,1.92-24.63,2.87-37.08,2.83-37.35Zm9.6,24.04c2.36.2,4.33-.25,5.92-1.33,1.59-1.08,2.5-2.52,2.74-4.33.47-3.65-2.1-5.71-7.72-6.19l-.94,11.84Z"/>
    </g>
  </g>
</svg>