<?xml version="1.0" encoding="UTF-8"?>
<svg xmlns="http://www.w3.org/2000/svg" viewBox="0 0 293.58 67.66">
  <defs>
    <style>
      .cls-1 {
        fill: #ea2f2f;
      }
    </style>
  </defs>
  <g id="outline">
    <g>
      <g>
        <path d="m26.74,57.38c-.14,0-.27,0-.41-.03l-11.55-1.65c-.79-.11-1.5-.54-1.98-1.17-.48-.64-.68-1.44-.56-2.23.19-1.27.6-4.28,1.25-9.04-.37-.83-1.46-3.08-4.65-9.09-3.86-7.14-4.86-8.85-5.11-9.26-.45-.56-.69-1.28-.65-2.01.04-.96.54-1.84,1.34-2.36l9.37-6.19c.5-.33,1.07-.5,1.65-.5.3,0,.61.05.9.14.8.25,1.46.83,1.81,1.58.21.41,1.57,2.91,6.51,11.87.92-.91,2.09-2.05,3.6-3.5,6.5-6.25,7.01-6.48,7.61-6.75.4-.18.82-.27,1.24-.27.76,0,1.5.29,2.07.83l8.25,7.88c.66.63,1,1.52.92,2.43-.07.84-.5,1.61-1.16,2.12-.28.24-1.69,1.52-8.48,7.97-4.86,4.61-6.82,6.52-7.61,7.31-1.16,7.41-1.34,8.85-1.36,9.12-.06.83-.47,1.61-1.11,2.13-.54.43-1.21.68-1.9.68Z"/>
        <path d="m15.44,16.85c.08.2,2.95,5.42,8.6,15.67.12-.35,2.22-2.49,6.3-6.42,4.08-3.93,6.34-5.99,6.77-6.19l8.25,7.88c-.24.16-3.14,2.88-8.72,8.18-5.58,5.29-8.37,8-8.37,8.12-.98,6.23-1.49,9.67-1.53,10.29l-11.55-1.65c.2-1.33.65-4.6,1.35-9.78.04-.35-1.65-3.75-5.07-10.19-3.42-6.32-5.22-9.56-5.42-9.72l9.37-6.19m0-6c-1.16,0-2.31.34-3.31.99l-9.37,6.19c-1.6,1.06-2.6,2.81-2.69,4.73-.07,1.4.36,2.75,1.17,3.85.29.48,1.33,2.28,4.96,9,2.48,4.67,3.64,6.98,4.18,8.11-.57,4.16-.96,6.95-1.13,8.14-.23,1.58.17,3.18,1.13,4.46.95,1.28,2.38,2.12,3.96,2.35l11.55,1.65c.28.04.57.06.85.06,1.37,0,2.71-.47,3.79-1.35,1.28-1.04,2.08-2.57,2.2-4.22.03-.34.22-1.78,1.18-7.92,1.04-1.02,3.04-2.94,6.86-6.57,6.44-6.12,7.97-7.52,8.33-7.84,1.28-1.02,2.09-2.52,2.23-4.16.16-1.81-.52-3.6-1.83-4.86l-8.25-7.88c-1.14-1.09-2.63-1.66-4.15-1.66-.84,0-1.69.18-2.48.54-1.05.48-1.58.72-8.45,7.32-.28.27-.54.52-.8.77-3.27-5.94-4.32-7.87-4.55-8.31-.72-1.48-2.02-2.61-3.6-3.1-.59-.19-1.2-.28-1.8-.28h0Z"/>
      </g>
      <g>
        <path d="m67.59,57.37c-6.37,0-11.62-1.99-15.61-5.91-3.84-3.84-5.78-8.75-5.78-14.61s2.1-11.35,6.25-15.72c4.54-4.76,10.49-7.17,17.67-7.17,6.32,0,11.52,1.83,15.46,5.44,4.1,3.86,6.16,9.11,6.16,15.62,0,5.29-1.81,10.12-5.37,14.34-4.46,5.31-10.78,8.01-18.78,8.01Zm2.12-25.51c-.83,0-1.55.27-2.29.84-.77.63-1.14,1.47-1.14,2.67,0,.95.33,1.58,1.13,2.2.64.48,1.22.73,1.77.73.79,0,1.51-.24,2.2-.74.51-.39,1.19-1.12,1.22-2.89,0-1.34-.48-1.87-.94-2.21-.58-.41-1.21-.61-1.95-.61Z"/>
        <path d="m70.12,16.96c5.58,0,10.05,1.55,13.43,4.65,3.46,3.26,5.19,7.73,5.19,13.41,0,4.59-1.56,8.73-4.66,12.41-3.89,4.63-9.39,6.94-16.49,6.94-5.58,0-10.08-1.68-13.5-5.05-3.26-3.26-4.89-7.42-4.89-12.47,0-5.3,1.81-9.85,5.42-13.65,3.97-4.16,9.14-6.24,15.5-6.24m-.94,24.34c1.41,0,2.73-.43,3.94-1.29,1.61-1.22,2.44-2.98,2.48-5.28,0-2.07-.73-3.64-2.18-4.69-1.1-.78-2.34-1.18-3.71-1.18-1.5,0-2.87.49-4.13,1.47-1.53,1.25-2.3,2.93-2.3,5.04,0,1.88.77,3.4,2.3,4.58,1.18.9,2.38,1.35,3.6,1.35m.94-30.34c-8.04,0-14.71,2.72-19.84,8.1-4.7,4.95-7.08,10.93-7.08,17.79s2.24,12.3,6.65,16.71c4.59,4.53,10.55,6.81,17.74,6.81,8.93,0,16.02-3.06,21.08-9.08,4.02-4.78,6.07-10.25,6.07-16.27,0-7.37-2.38-13.35-7.08-17.78-.02-.02-.04-.04-.06-.05-4.51-4.13-10.39-6.23-17.49-6.23h0Zm-.79,24.06c.12-.09.2-.13.26-.14-.02.16-.04.27-.06.32-.07.04-.13.07-.17.08-.02-.01-.04-.03-.07-.05,0-.11.02-.17.03-.2,0,0,0,0,.02-.01h0Z"/>
      </g>
      <g>
        <path d="m69.18,44.3c-1.89,0-3.71-.66-5.42-1.96-2.28-1.76-3.48-4.17-3.48-6.97,0-3,1.18-5.54,3.4-7.36,1.85-1.44,3.86-2.15,6.03-2.15,1.99,0,3.82.58,5.45,1.73,1.59,1.15,3.44,3.3,3.44,7.14-.06,3.26-1.32,5.9-3.67,7.67-1.8,1.28-3.71,1.9-5.75,1.9Z"/>
        <path d="m69.71,28.86c1.37,0,2.61.4,3.71,1.18,1.45,1.05,2.18,2.62,2.18,4.69-.04,2.3-.87,4.06-2.48,5.28-1.21.86-2.53,1.29-3.94,1.29-1.22,0-2.42-.45-3.6-1.35-1.53-1.18-2.3-2.7-2.3-4.58,0-2.11.77-3.79,2.3-5.04,1.26-.98,2.63-1.47,4.13-1.47m0-6c-2.85,0-5.48.92-7.81,2.73-.04.03-.08.06-.11.09-2.95,2.41-4.5,5.76-4.5,9.69,0,3.71,1.65,7.03,4.64,9.33,2.27,1.73,4.7,2.6,7.26,2.6s5.21-.83,7.42-2.4c.05-.04.1-.07.15-.11,2.16-1.64,4.76-4.7,4.86-9.96,0-.03,0-.07,0-.1,0-3.98-1.66-7.37-4.66-9.55-.02-.01-.03-.02-.05-.03-2.11-1.5-4.59-2.29-7.18-2.29h0Z"/>
      </g>
      <g>
        <path d="m111.3,57.38c-3.6,0-6.35-.4-8.41-1.21-2.88-1.19-5.37-3.4-7.42-6.59-1.73-2.68-2.77-4.57-3.29-5.94-1.14-2.8-1.73-6.35-1.73-10.5,0-1.82.1-3.84.31-6.01,1.01-10.29,1.57-11.15,2.06-11.91.56-.86,1.51-1.37,2.52-1.37.16,0,.33.01.49.04l11.43,1.89c.81.13,1.53.59,1.99,1.27.46.68.63,1.52.45,2.32-.85,3.99-1.29,7.45-1.29,10.3,0,1.08.04,2.2.11,3.35.07,1.06.4,1.95.99,2.68.52.62,1.07.89,1.88.89.42-.02.9-.54,1.21-.97.57-.78.94-1.58,1.1-2.4.25-1.8.38-3.46.38-4.94,0-2.53-.49-5.49-1.47-8.82-.25-.84-.11-1.75.37-2.49.48-.73,1.26-1.22,2.13-1.33l11.08-1.41c.13-.02.26-.02.38-.02,1.33,0,2.53.89,2.89,2.21.47,1.7,1.09,5.23,1.9,10.79,0,.06.02.13.02.19.16,2,.25,3.87.25,5.54,0,7.03-1.94,13.03-5.78,17.84-3.54,4.39-8.43,6.61-14.54,6.61Z"/>
        <path d="m95.33,16.85l11.43,1.89c-.9,4.21-1.36,7.86-1.36,10.93,0,1.14.04,2.32.12,3.54.12,1.69.67,3.15,1.65,4.37,1.11,1.34,2.51,2.01,4.21,2.01.05,0,.1,0,.15,0,1.3-.08,2.45-.8,3.48-2.18.86-1.18,1.41-2.42,1.65-3.71.27-1.96.41-3.77.41-5.42,0-2.83-.53-6.05-1.59-9.66l11.08-1.41c.43,1.57,1.04,5.05,1.83,10.43.16,1.92.24,3.69.24,5.3,0,6.36-1.71,11.69-5.12,15.97-2.95,3.65-7.01,5.48-12.2,5.48-3.18,0-5.62-.33-7.3-1-2.28-.94-4.28-2.75-6.01-5.43-1.57-2.44-2.57-4.23-3-5.37-1.02-2.52-1.53-5.67-1.53-9.44,0-1.73.1-3.64.29-5.72.63-6.37,1.16-9.89,1.59-10.56m0-6c-2.01,0-3.92,1.02-5.04,2.74-.89,1.38-1.49,2.76-2.52,13.23-.22,2.28-.32,4.4-.32,6.31,0,4.57.64,8.38,1.95,11.64.6,1.56,1.73,3.61,3.55,6.42,2.4,3.71,5.34,6.31,8.76,7.72.03.01.06.02.08.03,2.42.96,5.53,1.43,9.52,1.43,6.96,0,12.8-2.67,16.87-7.71,4.29-5.37,6.45-12,6.45-19.73,0-1.76-.09-3.7-.26-5.79-.01-.13-.02-.26-.04-.38-1.11-7.57-1.66-9.99-1.98-11.15-.72-2.63-3.11-4.41-5.78-4.41-.25,0-.51.02-.76.05l-11.08,1.41c-1.41.18-2.71.86-3.66,1.89-.89-.91-2.05-1.53-3.32-1.74l-11.43-1.89c-.33-.05-.66-.08-.98-.08h0Z"/>
      </g>
      <g>
        <path d="m189.3,57.38c-.14,0-.28,0-.42-.03-1.39-.19-2.12-.89-5.64-5.28-.54-.67-.99-1.25-1.38-1.74-1.39,1.27-3.39,3.07-5.96,5.35-.55.49-1.27.76-1.99.76-.22,0-.44-.02-.66-.07-.94-.21-1.73-.87-2.1-1.76-2.28-5.39-4.57-10.79-6.89-16.22-4.09-9.73-6.44-15.68-7.19-18.21-.23-.79-.13-1.64.28-2.35s1.09-1.22,1.89-1.42l10.25-2.48c.24-.06.47-.08.71-.08,1.32,0,2.52.87,2.89,2.2.14.49.77,2.33,3.49,9.12.58,1.44,1.06,2.65,1.46,3.67.91-1.25,2.01-2.75,3.3-4.5.57-.77,1.47-1.23,2.42-1.23.04,0,.07,0,.11,0,.99.04,1.91.56,2.43,1.41.31.5.96,1.64,2.93,5.53.57-.94,1.26-2.11,2.11-3.55,3.74-6.36,4.93-8.66,5.27-9.46.33-.78.98-1.39,1.78-1.66.32-.11.65-.16.98-.16.5,0,1,.13,1.45.38l8.84,4.89c1.44.8,1.97,2.61,1.18,4.06-.12.21-.39.71-18.98,31.4-.55.91-1.53,1.45-2.56,1.45Z"/>
        <path d="m170.21,16.85c.27.99,1.47,4.13,3.59,9.43,2.12,5.3,3.24,8.25,3.36,8.84.31-.43,2.51-3.44,6.6-9.01.59.94,2.3,4.26,5.12,9.96.27-.12,1.95-2.8,5.04-8.04,3.08-5.24,4.9-8.51,5.45-9.81l8.84,4.89c-.24.43-6.54,10.86-18.91,31.28-.28-.04-1.51-1.43-3.71-4.18-2-2.51-3.12-3.98-3.36-4.42,0,0,0,0,0,0,0,0,0,0,0,0,.06.13-2.71,2.69-8.31,7.66-2.28-5.39-4.58-10.8-6.89-16.23-4.01-9.52-6.36-15.48-7.07-17.88l10.25-2.48m-.01-6c-.46,0-.93.05-1.39.17l-10.25,2.48c-1.6.39-2.97,1.41-3.79,2.83-.82,1.42-1.02,3.12-.56,4.69.5,1.68,1.79,5.43,7.29,18.51,2.33,5.45,4.62,10.85,6.9,16.24.75,1.78,2.32,3.09,4.2,3.52.44.1.88.15,1.32.15,1.45,0,2.87-.53,3.98-1.51,1.36-1.21,2.56-2.28,3.6-3.22,2.96,3.69,4.35,5.25,6.96,5.62.28.04.56.06.83.06,2.08,0,4.03-1.08,5.13-2.89,18.63-30.75,18.89-31.24,19.05-31.53,1.58-2.9.52-6.52-2.37-8.12l-8.84-4.89c-.9-.5-1.9-.75-2.91-.75-.66,0-1.32.11-1.95.33-1.61.55-2.9,1.76-3.57,3.33-.19.45-1,2.11-4.45,8.01-.25-.46-.42-.74-.55-.95-1.05-1.69-2.88-2.74-4.87-2.82-.07,0-.15,0-.22,0-1.91,0-3.71.91-4.84,2.45-.03.04-.06.08-.09.13-2.33-5.85-2.76-7.17-2.84-7.44-.75-2.63-3.17-4.39-5.79-4.39h0Z"/>
      </g>
      <g>
        <path d="m224.29,57.55l-15.79-.94c-.88-.05-1.69-.49-2.22-1.19-.53-.7-.72-1.6-.53-2.46.12-.54.59-3.64,2.43-18.39,1.77-14.36,2.08-17.22,2.1-17.65.1-1.59,1.42-2.84,3-2.84.06,0,.12,0,.18,0l15.85.94c.89.05,1.71.5,2.24,1.22.53.72.71,1.64.49,2.5-.06.34-.48,3.24-2.32,17.79-1.79,14.17-2.21,17.72-2.25,18.2-.12,1.58-1.44,2.81-3,2.81-.06,0-.12,0-.18,0Z"/>
        <path d="m213.28,17.08l15.85.94c-.12.47-.91,6.52-2.39,18.15-1.47,11.63-2.23,17.75-2.27,18.38l-15.79-.94c.24-1.06,1.06-7.29,2.47-18.68,1.37-11.15,2.08-17.1,2.12-17.85m0-6c-1.47,0-2.89.54-4,1.52-1.18,1.06-1.9,2.54-1.99,4.12-.04.55-.37,3.56-2.09,17.48-1.84,14.85-2.28,17.63-2.38,18.13-.38,1.72.01,3.5,1.07,4.9,1.06,1.4,2.68,2.26,4.44,2.36l15.79.94c.12,0,.24.01.36.01,3.13,0,5.76-2.42,5.98-5.58.06-.63.49-4.3,2.23-18.05,1.81-14.29,2.22-17.13,2.31-17.68.35-1.66-.03-3.4-1.04-4.77-1.06-1.44-2.7-2.33-4.48-2.44l-15.85-.94c-.12,0-.24-.01-.36-.01h0Z"/>
      </g>
      <g>
        <path d="m265.96,57.38c-.73,0-1.45-.27-2.01-.77-.75-.67-1.89-1.57-3.41-2.68-3.02-2.26-7.06-5.11-12.05-8.5-.35,1.77-.71,3.67-1.09,5.67-.27,1.44-1.52,2.45-2.95,2.45-.14,0-.28,0-.42-.03l-11.44-1.59c-1.53-.21-2.65-1.56-2.58-3.11.01-.29.07-.57.16-.83.22-1.01,1.25-6.65,5.42-31.63.19-1.12,1-2.05,2.09-2.38.29-.09.58-.13.87-.13.82,0,1.61.33,2.19.95.85.91,3.33,3.2,10.28,8.97,1.9,1.58,3.4,2.83,4.57,3.82.35-2.4.72-4.82,1.09-7.25.12-.82.58-1.55,1.26-2.02.5-.35,1.1-.53,1.7-.53.21,0,.42.02.63.07l11.72,2.53c1.6.34,2.63,1.91,2.31,3.51-.5,2.55-2.32,12.98-5.39,30.98-.18,1.08-.94,1.97-1.97,2.33-.32.11-.65.17-.98.17Z"/>
        <path d="m238.55,16.85c1.33,1.42,4.85,4.49,10.55,9.22,5.42,4.49,8.31,6.98,8.66,7.45.59-4.12,1.22-8.37,1.89-12.73l11.72,2.53c-.51,2.59-2.31,12.94-5.41,31.05-.82-.74-2.04-1.7-3.65-2.87-3.76-2.81-9.05-6.51-15.87-11.08-.6,2.91-1.26,6.28-1.99,10.13l-11.44-1.59c.12,0,1.97-10.71,5.54-32.11m-5.54,32.11h0s0,0,0,0c0,0,0,0,0,0m5.54-38.11c-.58,0-1.17.08-1.74.26-2.18.66-3.8,2.5-4.18,4.75-4.03,24.14-5.1,30.09-5.36,31.35-.14.46-.22.94-.25,1.44-.16,3.11,2.08,5.82,5.16,6.25l11.44,1.59c.28.04.56.06.83.06,2.84,0,5.35-2.02,5.89-4.89.07-.39.15-.78.22-1.17,3.25,2.25,5.98,4.2,8.15,5.82.02.01.04.03.06.04,1.78,1.3,2.7,2.07,3.16,2.48,1.12,1.01,2.56,1.54,4.02,1.54.66,0,1.32-.11,1.97-.33,2.07-.72,3.58-2.5,3.95-4.66,3.07-17.98,4.88-28.37,5.38-30.9.63-3.21-1.42-6.33-4.62-7.02l-11.72-2.53c-.42-.09-.84-.13-1.27-.13-1.21,0-2.39.36-3.4,1.06-1.36.94-2.28,2.4-2.53,4.03-.1.66-.2,1.31-.3,1.97-.16-.13-.32-.27-.48-.4-7.19-5.97-9.35-8.02-10-8.71-1.15-1.23-2.74-1.89-4.37-1.89h0Z"/>
      </g>
      <g>
        <path d="m280.97,57.61c-2.03,0-3.88-.75-5.34-2.18-1.48-1.44-2.26-3.31-2.26-5.41s.77-3.9,2.23-5.36c1.46-1.46,3.32-2.23,5.36-2.23s3.9.77,5.36,2.23c1.46,1.46,2.23,3.32,2.23,5.36s-.78,3.97-2.26,5.41c-1.46,1.43-3.3,2.18-5.34,2.18Zm-3.24-17.14c-.72,0-1.42-.26-1.97-.74-.6-.53-.97-1.27-1.02-2.07-.51-8.06-1.06-18.07-1.65-29.73-.04-.84.27-1.66.87-2.26.56-.57,1.33-.89,2.13-.89.04,0,11.55.47,11.55.47.84.03,1.63.42,2.17,1.07.54.65.79,1.49.68,2.33-.94,7.04-2.13,16.7-3.53,28.7-.17,1.43-1.32,2.54-2.75,2.64l-6.25.47c-.08,0-.15,0-.23,0Z"/>
        <path d="m276.08,7.77l11.43.47c-.94,7.07-2.12,16.65-3.54,28.75l-6.25.47c-.51-8.09-1.06-17.99-1.65-29.69m4.89,37.65c1.26,0,2.34.45,3.24,1.35.9.9,1.36,1.98,1.36,3.24s-.45,2.39-1.36,3.27c-.9.88-1.98,1.33-3.24,1.33s-2.34-.44-3.24-1.33c-.9-.88-1.35-1.97-1.35-3.27s.45-2.34,1.35-3.24c.9-.9,1.98-1.35,3.24-1.35m-4.89-43.65c-1.6,0-3.13.64-4.26,1.78-1.19,1.2-1.82,2.84-1.73,4.52.59,11.68,1.14,21.69,1.65,29.77.1,1.6.84,3.09,2.05,4.15.05.04.09.08.14.12-.15.14-.3.28-.44.42-2.04,2.04-3.11,4.62-3.11,7.48s1.09,5.54,3.16,7.56c2.03,1.98,4.6,3.03,7.43,3.03s5.41-1.05,7.44-3.04c2.07-2.02,3.16-4.64,3.16-7.56s-1.08-5.44-3.11-7.48c-.27-.27-.55-.53-.84-.76,1.26-.96,2.13-2.41,2.33-4.08,1.4-11.99,2.59-21.63,3.52-28.65.22-1.67-.27-3.36-1.35-4.65-1.08-1.29-2.66-2.07-4.35-2.14l-11.43-.47c-.08,0-.17,0-.25,0h0Z"/>
      </g>
    </g>
  </g>
  <g id="you_win_" data-name="you win!">
    <g>
      <path class="cls-1" d="m15.21,52.73c.2-1.33.65-4.6,1.35-9.78.04-.35-1.65-3.75-5.07-10.19-3.42-6.32-5.22-9.56-5.42-9.72l9.37-6.19c.08.2,2.95,5.42,8.6,15.67.12-.35,2.22-2.49,6.3-6.42,4.08-3.93,6.34-5.99,6.77-6.19l8.25,7.88c-.24.16-3.14,2.88-8.72,8.18-5.58,5.29-8.37,8-8.37,8.12-.98,6.23-1.49,9.67-1.53,10.29l-11.55-1.65Z"/>
      <path class="cls-1" d="m70.12,16.96c5.58,0,10.05,1.55,13.43,4.65,3.46,3.25,5.19,7.73,5.19,13.41,0,4.59-1.55,8.73-4.66,12.41-3.89,4.63-9.39,6.94-16.5,6.94-5.58,0-10.07-1.69-13.49-5.06-3.26-3.25-4.89-7.41-4.89-12.47s1.81-9.84,5.42-13.65c3.97-4.16,9.13-6.23,15.49-6.23Zm-.94,24.33c1.41,0,2.73-.43,3.95-1.29,1.61-1.21,2.43-2.97,2.47-5.28,0-2.07-.73-3.64-2.18-4.69-1.1-.78-2.34-1.17-3.71-1.17-1.49,0-2.87.49-4.12,1.47-1.53,1.25-2.3,2.93-2.3,5.04,0,1.88.77,3.4,2.3,4.57,1.18.9,2.38,1.35,3.59,1.35Z"/>
      <path class="cls-1" d="m128.38,27.63c.16,1.92.24,3.69.24,5.3,0,6.36-1.71,11.69-5.12,15.97-2.95,3.65-7.01,5.48-12.2,5.48-3.18,0-5.62-.33-7.3-1-2.28-.94-4.28-2.75-6.01-5.43-1.57-2.44-2.57-4.23-3-5.37-1.02-2.52-1.53-5.67-1.53-9.44,0-1.73.1-3.64.29-5.72.63-6.37,1.16-9.89,1.59-10.56l11.43,1.89c-.9,4.21-1.36,7.86-1.36,10.93,0,1.14.04,2.32.12,3.54.12,1.69.67,3.15,1.65,4.37,1.14,1.38,2.59,2.05,4.36,2.01,1.3-.08,2.45-.8,3.48-2.18.86-1.18,1.41-2.42,1.65-3.71.27-1.96.41-3.77.41-5.42,0-2.83-.53-6.05-1.59-9.66l11.08-1.41c.43,1.57,1.04,5.05,1.83,10.43Z"/>
      <path class="cls-1" d="m170.21,16.85c.27.99,1.47,4.13,3.59,9.43,2.12,5.3,3.24,8.25,3.36,8.84.31-.43,2.51-3.44,6.6-9.01.59.94,2.3,4.26,5.12,9.96.27-.12,1.95-2.8,5.04-8.04,3.08-5.24,4.9-8.51,5.45-9.81l8.84,4.89c-.24.43-6.54,10.86-18.91,31.28-.28-.04-1.51-1.43-3.71-4.18-2-2.51-3.12-3.99-3.36-4.42.08.12-2.69,2.67-8.31,7.66-2.28-5.39-4.58-10.8-6.89-16.23-4.01-9.52-6.36-15.48-7.07-17.88l10.25-2.48Z"/>
      <path class="cls-1" d="m208.68,53.61c.24-1.06,1.06-7.29,2.47-18.68,1.37-11.15,2.08-17.1,2.12-17.85l15.85.94c-.12.47-.91,6.52-2.39,18.15-1.47,11.63-2.23,17.75-2.27,18.38l-15.79-.94Z"/>
      <path class="cls-1" d="m233.01,48.95c.12.04,1.96-10.66,5.54-32.11,1.33,1.42,4.85,4.49,10.55,9.22,5.42,4.49,8.31,6.98,8.66,7.45.59-4.12,1.22-8.37,1.89-12.73l11.72,2.53c-.51,2.59-2.31,12.94-5.41,31.05-.82-.74-2.04-1.7-3.65-2.87-3.76-2.81-9.05-6.51-15.87-11.08-.6,2.91-1.26,6.28-1.99,10.13l-11.44-1.59Z"/>
      <path class="cls-1" d="m287.51,8.25c-.94,7.07-2.12,16.65-3.54,28.75l-6.25.47c-.51-8.09-1.06-17.99-1.65-29.69l11.43.47Zm-6.54,46.37c1.26,0,2.34-.44,3.24-1.33s1.36-1.97,1.36-3.27-.45-2.34-1.36-3.24c-.9-.9-1.98-1.35-3.24-1.35s-2.34.45-3.24,1.35c-.9.9-1.35,1.98-1.35,3.24s.45,2.39,1.35,3.27c.9.88,1.98,1.33,3.24,1.33Z"/>
    </g>
  </g>
</svg>