<?xml version="1.0" encoding="UTF-8"?>
<svg xmlns="http://www.w3.org/2000/svg" viewBox="0 0 67.29 182.72">
  <defs>
    <style>
      .cls-1 {
        fill: #ea2f2f;
      }
    </style>
  </defs>
  <g id="outline">
    <g>
      <path d="m27.22,68.87c-.14,0-.27,0-.41-.03l-11.55-1.65c-.79-.11-1.5-.54-1.98-1.17-.48-.64-.68-1.44-.56-2.23.19-1.27.6-4.28,1.25-9.04-.37-.83-1.46-3.08-4.65-9.09-3.86-7.14-4.86-8.85-5.11-9.26-.45-.56-.69-1.28-.65-2.01.04-.96.54-1.84,1.34-2.36l9.37-6.19c.5-.33,1.07-.5,1.65-.5.3,0,.61.05.9.14.8.25,1.46.83,1.81,1.58.21.41,1.57,2.91,6.51,11.87.92-.91,2.09-2.05,3.6-3.5,6.5-6.25,7.01-6.48,7.61-6.75.4-.18.82-.27,1.24-.27.76,0,1.5.29,2.07.83l8.25,7.88c.66.63,1,1.52.92,2.43-.07.84-.5,1.61-1.16,2.12-.28.24-1.69,1.52-8.48,7.97-4.86,4.61-6.82,6.52-7.61,7.31-1.16,7.41-1.34,8.85-1.36,9.12-.06.83-.47,1.61-1.11,2.13-.54.43-1.21.68-1.9.68Z"/>
      <path d="m15.93,28.34c.08.2,2.95,5.42,8.6,15.67.12-.35,2.22-2.49,6.3-6.42,4.08-3.93,6.34-5.99,6.77-6.19l8.25,7.88c-.24.16-3.14,2.88-8.72,8.18-5.58,5.29-8.37,8-8.37,8.12-.98,6.23-1.49,9.67-1.53,10.29l-11.55-1.65c.2-1.33.65-4.6,1.35-9.78.04-.35-1.65-3.75-5.07-10.19-3.42-6.32-5.22-9.56-5.42-9.72l9.37-6.19m0-6c-1.16,0-2.31.34-3.31.99l-9.37,6.19c-1.6,1.06-2.6,2.81-2.69,4.73-.07,1.4.36,2.75,1.17,3.85.29.48,1.33,2.28,4.96,9,2.48,4.67,3.64,6.98,4.18,8.11-.57,4.16-.96,6.95-1.13,8.14-.23,1.58.17,3.18,1.13,4.46.95,1.28,2.38,2.12,3.96,2.35l11.55,1.65c.28.04.57.06.85.06,1.37,0,2.71-.47,3.79-1.35,1.28-1.04,2.08-2.57,2.2-4.22.03-.34.22-1.78,1.18-7.92,1.04-1.02,3.04-2.94,6.86-6.57,6.44-6.12,7.97-7.52,8.33-7.84,1.28-1.02,2.09-2.52,2.23-4.16.16-1.81-.52-3.6-1.83-4.86l-8.25-7.88c-1.14-1.09-2.63-1.66-4.15-1.66-.84,0-1.69.18-2.48.54-1.05.48-1.58.72-8.45,7.32-.28.27-.54.52-.8.77-3.27-5.94-4.32-7.87-4.55-8.31-.72-1.48-2.02-2.61-3.6-3.1-.59-.19-1.2-.28-1.8-.28h0Z"/>
    </g>
    <g>
      <g>
        <path d="m24.83,114.52c-6.37,0-11.62-1.99-15.61-5.92-3.84-3.84-5.78-8.75-5.78-14.61s2.1-11.35,6.25-15.72c4.54-4.75,10.48-7.16,17.67-7.16,6.33,0,11.53,1.83,15.46,5.43,4.1,3.86,6.16,9.11,6.16,15.62,0,5.29-1.8,10.11-5.36,14.35-4.48,5.32-10.8,8.01-18.79,8.01Zm2.12-25.51c-.83,0-1.56.26-2.29.83-.77.63-1.14,1.47-1.14,2.67,0,.94.34,1.6,1.12,2.2.65.49,1.23.73,1.78.73.79,0,1.49-.24,2.21-.74.51-.38,1.18-1.11,1.21-2.88,0-1.34-.48-1.87-.94-2.21-.57-.4-1.2-.6-1.95-.6Z"/>
        <path d="m27.36,74.11c5.58,0,10.05,1.54,13.43,4.64,3.46,3.26,5.19,7.73,5.19,13.41,0,4.59-1.56,8.73-4.66,12.42-3.89,4.62-9.39,6.94-16.49,6.94-5.58,0-10.08-1.69-13.5-5.06-3.26-3.26-4.89-7.41-4.89-12.47s1.81-9.85,5.42-13.65c3.97-4.16,9.14-6.23,15.5-6.23m-.94,24.33c1.41,0,2.72-.43,3.94-1.29,1.61-1.21,2.44-2.97,2.48-5.28,0-2.07-.73-3.64-2.18-4.69-1.1-.78-2.34-1.17-3.71-1.17-1.5,0-2.87.48-4.13,1.46-1.53,1.25-2.3,2.93-2.3,5.04,0,1.88.77,3.41,2.3,4.58,1.18.9,2.38,1.35,3.6,1.35m.94-30.33c-8.04,0-14.72,2.72-19.84,8.09-4.7,4.95-7.08,10.93-7.08,17.79s2.24,12.3,6.65,16.71c4.6,4.53,10.56,6.82,17.74,6.82,8.92,0,16.01-3.05,21.08-9.08,4.03-4.8,6.07-10.27,6.07-16.28,0-7.37-2.38-13.35-7.08-17.78-.02-.02-.04-.04-.06-.05-4.5-4.13-10.38-6.22-17.49-6.22h0Zm-.79,24.05c.12-.09.2-.12.26-.14-.01.15-.04.26-.05.31-.07.04-.13.07-.18.08-.02-.01-.04-.03-.07-.05,0-.11.02-.17.03-.2,0,0,0,0,.02-.01h0Z"/>
      </g>
      <g>
        <path d="m26.42,101.44c-1.89,0-3.71-.66-5.42-1.96-2.28-1.74-3.48-4.15-3.48-6.97,0-3,1.18-5.54,3.4-7.36,1.84-1.43,3.85-2.14,6.03-2.14,2,0,3.83.58,5.44,1.72,1.59,1.15,3.44,3.3,3.44,7.14-.06,3.28-1.33,5.91-3.68,7.68-1.8,1.27-3.71,1.89-5.74,1.89Z"/>
        <path d="m26.95,86.01c1.37,0,2.61.39,3.71,1.17,1.45,1.05,2.18,2.62,2.18,4.69-.04,2.31-.87,4.07-2.48,5.28-1.22.86-2.53,1.29-3.94,1.29-1.22,0-2.42-.45-3.6-1.35-1.53-1.17-2.3-2.7-2.3-4.58,0-2.11.77-3.79,2.3-5.04,1.26-.98,2.63-1.46,4.13-1.46m0-6c-2.86,0-5.49.92-7.81,2.72-.04.03-.08.06-.11.09-2.95,2.41-4.5,5.76-4.5,9.69s1.65,7.05,4.66,9.35c2.25,1.72,4.69,2.58,7.24,2.58s5.15-.8,7.4-2.39c.05-.04.1-.07.15-.11,2.17-1.63,4.78-4.69,4.87-9.97,0-.03,0-.07,0-.1,0-3.98-1.66-7.37-4.66-9.55-.02-.01-.03-.02-.05-.03-2.1-1.49-4.58-2.28-7.18-2.28h0Z"/>
      </g>
    </g>
    <g>
      <path d="m26.94,159.41c-3.6,0-6.35-.4-8.41-1.21-2.88-1.19-5.37-3.4-7.42-6.59-1.73-2.68-2.77-4.57-3.29-5.94-1.14-2.8-1.73-6.35-1.73-10.5,0-1.82.1-3.84.31-6.01,1.01-10.29,1.57-11.15,2.06-11.91.56-.86,1.51-1.37,2.52-1.37.16,0,.33.01.49.04l11.43,1.89c.81.13,1.53.59,1.99,1.27.46.68.63,1.52.45,2.32-.85,3.99-1.29,7.45-1.29,10.3,0,1.08.04,2.21.11,3.35.07,1.06.4,1.95.99,2.68.52.62,1.07.89,1.88.89.42-.02.9-.54,1.21-.97.57-.78.94-1.57,1.1-2.41.25-1.79.37-3.46.37-4.94,0-2.53-.49-5.49-1.47-8.82-.25-.84-.11-1.75.37-2.49.48-.74,1.26-1.22,2.13-1.33l11.08-1.41c.13-.02.26-.02.38-.02,1.33,0,2.53.89,2.89,2.21.47,1.7,1.09,5.23,1.9,10.79,0,.06.02.13.02.19.16,2.01.25,3.87.25,5.54,0,7.03-1.95,13.03-5.78,17.84-3.54,4.39-8.43,6.61-14.54,6.61Z"/>
      <path d="m10.98,118.88l11.43,1.89c-.9,4.21-1.35,7.86-1.35,10.93,0,1.14.04,2.32.12,3.54.12,1.69.67,3.15,1.65,4.37,1.11,1.34,2.51,2.01,4.21,2.01.05,0,.1,0,.15,0,1.3-.08,2.45-.8,3.48-2.18.86-1.18,1.41-2.42,1.65-3.71.27-1.96.41-3.77.41-5.42,0-2.83-.53-6.05-1.59-9.66l11.08-1.41c.43,1.57,1.04,5.05,1.83,10.43.16,1.92.24,3.69.24,5.3,0,6.36-1.71,11.69-5.13,15.97-2.95,3.65-7.01,5.48-12.2,5.48-3.18,0-5.62-.33-7.31-1-2.28-.94-4.28-2.75-6.01-5.43-1.57-2.44-2.57-4.23-3-5.37-1.02-2.52-1.53-5.67-1.53-9.44,0-1.73.1-3.64.29-5.72.63-6.37,1.16-9.89,1.59-10.56m0-6c-2.01,0-3.92,1.02-5.04,2.74-.89,1.38-1.49,2.76-2.52,13.23-.22,2.28-.32,4.4-.32,6.31,0,4.57.64,8.38,1.95,11.64.6,1.56,1.73,3.61,3.55,6.42,2.4,3.71,5.34,6.31,8.76,7.72.03.01.06.02.08.03,2.42.96,5.53,1.43,9.52,1.43,6.96,0,12.8-2.67,16.87-7.71,4.29-5.37,6.46-12.01,6.46-19.73,0-1.75-.09-3.7-.26-5.79-.01-.13-.02-.26-.04-.38-1.11-7.57-1.66-9.99-1.98-11.15-.72-2.63-3.11-4.41-5.78-4.41-.25,0-.51.02-.76.05l-11.08,1.41c-1.41.18-2.71.86-3.66,1.89-.89-.91-2.05-1.53-3.32-1.74l-11.43-1.89c-.33-.05-.66-.08-.98-.08h0Z"/>
    </g>
  </g>
  <g id="you">
    <path class="cls-1" d="m15.69,64.22c.2-1.33.65-4.6,1.35-9.78.04-.35-1.65-3.75-5.07-10.19-3.42-6.32-5.22-9.56-5.42-9.72l9.37-6.19c.08.2,2.95,5.42,8.6,15.67.12-.35,2.22-2.49,6.3-6.42,4.08-3.93,6.34-5.99,6.77-6.19l8.25,7.88c-.24.16-3.14,2.88-8.72,8.18-5.58,5.29-8.37,8-8.37,8.12-.98,6.23-1.49,9.67-1.53,10.29l-11.55-1.65Z"/>
    <path class="cls-1" d="m27.36,74.1c5.58,0,10.05,1.55,13.43,4.65,3.46,3.25,5.18,7.73,5.18,13.41,0,4.59-1.55,8.73-4.65,12.41-3.89,4.63-9.39,6.94-16.5,6.94-5.58,0-10.07-1.69-13.49-5.06-3.26-3.25-4.89-7.41-4.89-12.47s1.81-9.84,5.42-13.65c3.97-4.16,9.13-6.23,15.49-6.23Zm-.94,24.33c1.41,0,2.73-.43,3.95-1.29,1.61-1.21,2.43-2.97,2.47-5.28,0-2.07-.73-3.64-2.18-4.69-1.1-.78-2.34-1.17-3.71-1.17-1.49,0-2.87.49-4.12,1.47-1.53,1.25-2.3,2.93-2.3,5.04,0,1.88.77,3.4,2.3,4.57,1.18.9,2.38,1.35,3.59,1.35Z"/>
    <path class="cls-1" d="m44.03,129.67c.16,1.92.24,3.69.24,5.3,0,6.36-1.71,11.69-5.13,15.97-2.95,3.65-7.01,5.48-12.2,5.48-3.18,0-5.62-.33-7.31-1-2.28-.94-4.28-2.75-6.01-5.43-1.57-2.44-2.57-4.23-3-5.37-1.02-2.52-1.53-5.67-1.53-9.44,0-1.73.1-3.64.29-5.72.63-6.37,1.16-9.89,1.59-10.56l11.43,1.89c-.9,4.21-1.35,7.86-1.35,10.93,0,1.14.04,2.32.12,3.54.12,1.69.67,3.15,1.65,4.37,1.14,1.38,2.59,2.05,4.36,2.01,1.3-.08,2.45-.8,3.48-2.18.86-1.18,1.41-2.42,1.65-3.71.27-1.96.41-3.77.41-5.42,0-2.83-.53-6.05-1.59-9.66l11.08-1.41c.43,1.57,1.04,5.05,1.83,10.43Z"/>
  </g>
</svg>